font.ufo
<glyph name="exclam" format="1">
  <advance width="265"/>
  <unicode hex="0021"/>
  <outline>
    <contour>
      <point x="173" y="229" type="line"/>
      <point x="183" y="722" type="line"/>
      <point x="82" y="722" type="line"/>
      <point x="92" y="229" type="line"/>
    </contour>
    <contour>
      <point x="186" y="40" type="curve"/>
      <point x="186" y="71"/>
      <point x="164" y="87"/>
      <point x="132" y="87" type="curve"/>
      <point x="100" y="87"/>
      <point x="80" y="70"/>
      <point x="80" y="40" type="curve"/>
      <point x="181" y="40"/>
      <point x="85" y="40"/>
      <point x="186" y="40" type="curve"/>
      <point x="186" y="7"/>
      <point x="164" y="-8"/>
      <point x="132" y="-8" type="curve"/>
      <point x="99" y="-8"/>
      <point x="80" y="8"/>
      <point x="80" y="40" type="curve"/>
      <point x="181" y="40"/>
      <point x="85" y="40"/>
    </contour>
  </outline>
</glyph>
<glyph name="quotedbl" format="1">
  <advance width="449"/>
  <unicode hex="0022"/>
  <outline>
    <contour>
      <point x="168" y="610" type="line"/>
      <point x="174" y="819" type="line"/>
      <point x="74" y="819" type="line"/>
      <point x="80" y="610" type="line"/>
    </contour>
    <contour>
      <point x="369" y="610" type="line"/>
      <point x="376" y="819" type="line"/>
      <point x="275" y="819" type="line"/>
      <point x="282" y="610" type="line"/>
    </contour>
  </outline>
</glyph>
<glyph name="numbersign" format="1">
  <advance width="716"/>
  <unicode hex="0023"/>
  <outline>
    <contour>
      <point x="46" y="230" type="line"/>
      <point x="573" y="230" type="line"/>
      <point x="597" y="301" type="line"/>
      <point x="70" y="301" type="line"/>
    </contour>
    <contour>
      <point x="118" y="457" type="line"/>
      <point x="647" y="457" type="line"/>
      <point x="670" y="528" type="line"/>
      <point x="141" y="528" type="line"/>
    </contour>
    <contour>
      <point x="437" y="39" type="line"/>
      <point x="663" y="722" type="line"/>
      <point x="571" y="722" type="line"/>
      <point x="345" y="39" type="line"/>
    </contour>
    <contour>
      <point x="155" y="46" type="line"/>
      <point x="378" y="722" type="line"/>
      <point x="286" y="722" type="line"/>
      <point x="66" y="46" type="line"/>
    </contour>
  </outline>
</glyph>
<glyph name="dollar" format="1">
  <advance width="605"/>
  <unicode hex="0024"/>
  <outline>
    <contour>
      <point x="136" y="95" type="curve"/>
      <point x="136" y="215"/>
      <point x="136" y="103"/>
      <point x="136" y="223" type="curve"/>
      <point x="63" y="223"/>
      <point x="136" y="223"/>
      <point x="63" y="223" type="curve"/>
      <point x="63" y="103"/>
      <point x="63" y="215"/>
      <point x="63" y="95" type="curve"/>
      <point x="136" y="95"/>
      <point x="63" y="95"/>
    </contour>
    <contour>
      <point x="449" y="634" type="curve"/>
      <point x="449" y="514"/>
      <point x="449" y="625"/>
      <point x="449" y="505" type="curve"/>
      <point x="521" y="505"/>
      <point x="449" y="505"/>
      <point x="521" y="505" type="curve"/>
      <point x="521" y="625"/>
      <point x="521" y="514"/>
      <point x="521" y="634" type="curve"/>
      <point x="449" y="634"/>
      <point x="521" y="634"/>
    </contour>
    <contour>
      <point x="332" y="-41" type="curve"/>
      <point x="332" y="-10"/>
      <point x="332" y="48"/>
      <point x="332" y="80" type="curve"/>
      <point x="239" y="80"/>
      <point x="332" y="80"/>
      <point x="239" y="80" type="curve"/>
      <point x="239" y="48"/>
      <point x="239" y="-10"/>
      <point x="239" y="-41" type="curve"/>
      <point x="332" y="-41"/>
      <point x="239" y="-41"/>
    </contour>
    <contour>
      <point x="344" y="649" type="curve"/>
      <point x="344" y="681"/>
      <point x="344" y="742"/>
      <point x="344" y="773" type="curve"/>
      <point x="252" y="773"/>
      <point x="344" y="773"/>
      <point x="252" y="773" type="curve"/>
      <point x="252" y="742"/>
      <point x="252" y="681"/>
      <point x="252" y="649" type="curve"/>
      <point x="344" y="649"/>
      <point x="252" y="649"/>
    </contour>
    <contour>
      <point x="63" y="95" type="curve"/>
      <point x="124" y="68"/>
      <point x="197" y="44"/>
      <point x="280" y="44" type="curve"/>
      <point x="432" y="44"/>
      <point x="555" y="90"/>
      <point x="555" y="211" type="curve"/>
      <point x="555" y="320"/>
      <point x="444" y="360"/>
      <point x="327" y="406" type="curve"/>
      <point x="242" y="439"/>
      <point x="165" y="461"/>
      <point x="165" y="530" type="curve"/>
      <point x="165" y="590"/>
      <point x="225" y="616"/>
      <point x="301" y="616" type="curve"/>
      <point x="369" y="616"/>
      <point x="416" y="601"/>
      <point x="475" y="574" type="curve"/>
      <point x="521" y="634"/>
      <point x="475" y="574"/>
      <point x="521" y="634" type="curve"/>
      <point x="448" y="668"/>
      <point x="389" y="686"/>
      <point x="306" y="686" type="curve"/>
      <point x="174" y="686"/>
      <point x="73" y="638"/>
      <point x="73" y="530" type="curve"/>
      <point x="73" y="426"/>
      <point x="162" y="385"/>
      <point x="273" y="342" type="curve"/>
      <point x="365" y="308"/>
      <point x="463" y="284"/>
      <point x="463" y="208" type="curve"/>
      <point x="463" y="137"/>
      <point x="383" y="115"/>
      <point x="289" y="115" type="curve"/>
      <point x="221" y="115"/>
      <point x="162" y="137"/>
      <point x="113" y="158" type="curve"/>
      <point x="63" y="94"/>
      <point x="113" y="158"/>
    </contour>
  </outline>
</glyph>
<glyph name="ampersand" format="1">
  <advance width="727"/>
  <unicode hex="0026"/>
  <outline>
    <contour>
      <point x="704" y="39" type="line"/>
      <point x="594" y="142"/>
      <point x="475" y="259"/>
      <point x="363" y="365" type="curve"/>
      <point x="300" y="427"/>
      <point x="221" y="471"/>
      <point x="221" y="562" type="curve"/>
      <point x="221" y="617"/>
      <point x="254" y="656"/>
      <point x="310" y="656" type="curve"/>
      <point x="371" y="656"/>
      <point x="412" y="623"/>
      <point x="412" y="564" type="curve"/>
      <point x="412" y="479"/>
      <point x="343" y="446"/>
      <point x="266" y="406" type="curve"/>
      <point x="159" y="350"/>
      <point x="60" y="307"/>
      <point x="60" y="190" type="curve"/>
      <point x="60" y="61"/>
      <point x="166" y="-5"/>
      <point x="303" y="-5" type="curve"/>
      <point x="500" y="-5"/>
      <point x="612" y="126"/>
      <point x="679" y="314" type="curve"/>
      <point x="599" y="333"/>
      <point x="679" y="314"/>
      <point x="599" y="333" type="curve"/>
      <point x="545" y="179"/>
      <point x="463" y="66"/>
      <point x="307" y="66" type="curve"/>
      <point x="219" y="66"/>
      <point x="152" y="106"/>
      <point x="152" y="190" type="curve"/>
      <point x="152" y="277"/>
      <point x="226" y="307"/>
      <point x="305" y="349" type="curve"/>
      <point x="408" y="404"/>
      <point x="503" y="450"/>
      <point x="504" y="564" type="curve"/>
      <point x="504" y="670"/>
      <point x="423" y="727"/>
      <point x="314" y="727" type="curve"/>
      <point x="206" y="727"/>
      <point x="131" y="665"/>
      <point x="131" y="562" type="curve"/>
      <point x="131" y="453"/>
      <point x="221" y="396"/>
      <point x="298" y="322" type="curve"/>
      <point x="408" y="218"/>
      <point x="540" y="91"/>
      <point x="648" y="-11" type="curve"/>
    </contour>
  </outline>
</glyph>
<glyph name="quotesingle" format="1">
  <advance width="248"/>
  <unicode hex="0027"/>
  <outline>
    <contour>
      <point x="168" y="610" type="line"/>
      <point x="174" y="819" type="line"/>
      <point x="74" y="819" type="line"/>
      <point x="80" y="610" type="line"/>
    </contour>
  </outline>
</glyph>
<glyph name="parenleft" format="1">
  <advance width="385"/>
  <unicode hex="0028"/>
  <outline>
    <contour>
      <point x="376" y="-218" type="curve"/>
      <point x="213" y="-60"/>
      <point x="141" y="97"/>
      <point x="141" y="326" type="curve"/>
      <point x="141" y="556"/>
      <point x="213" y="711"/>
      <point x="375" y="873" type="curve"/>
      <point x="320" y="918"/>
      <point x="375" y="873"/>
      <point x="320" y="918" type="curve"/>
      <point x="139" y="744"/>
      <point x="50" y="579"/>
      <point x="50" y="326" type="curve"/>
      <point x="50" y="72"/>
      <point x="140" y="-92"/>
      <point x="321" y="-268" type="curve"/>
      <point x="376" y="-218"/>
      <point x="321" y="-268"/>
    </contour>
  </outline>
</glyph>
<glyph name="parenright" format="1">
  <advance width="393"/>
  <unicode hex="0029"/>
  <outline>
    <contour>
      <point x="59" y="-282" type="curve"/>
      <point x="243" y="-99"/>
      <point x="344" y="66"/>
      <point x="344" y="328" type="curve"/>
      <point x="344" y="584"/>
      <point x="250" y="747"/>
      <point x="63" y="920" type="curve"/>
      <point x="8" y="870"/>
      <point x="63" y="920"/>
      <point x="8" y="870" type="curve"/>
      <point x="175" y="710"/>
      <point x="252" y="557"/>
      <point x="252" y="325" type="curve"/>
      <point x="252" y="88"/>
      <point x="166" y="-66"/>
      <point x="3" y="-237" type="curve"/>
      <point x="59" y="-282"/>
      <point x="3" y="-237"/>
    </contour>
  </outline>
</glyph>
<glyph name="asterisk" format="1">
  <advance width="611"/>
  <unicode hex="002A"/>
  <outline>
    <contour>
      <point x="336" y="585" type="line"/>
      <point x="341" y="794" type="line"/>
      <point x="267" y="794" type="line"/>
      <point x="272" y="585" type="line"/>
    </contour>
    <contour>
      <point x="346" y="535" type="line"/>
      <point x="545" y="599" type="line"/>
      <point x="519" y="670" type="line"/>
      <point x="324" y="596" type="line"/>
    </contour>
    <contour>
      <point x="301" y="510" type="line"/>
      <point x="427" y="343" type="line"/>
      <point x="485" y="391" type="line"/>
      <point x="351" y="551" type="line"/>
    </contour>
    <contour>
      <point x="265" y="549" type="line"/>
      <point x="131" y="388" type="line"/>
      <point x="189" y="341" type="line"/>
      <point x="314" y="508" type="line"/>
    </contour>
    <contour>
      <point x="287" y="592" type="line"/>
      <point x="92" y="665" type="line"/>
      <point x="66" y="595" type="line"/>
      <point x="265" y="531" type="line"/>
    </contour>
  </outline>
</glyph>
<glyph name="plus" format="1">
  <advance width="672"/>
  <unicode hex="002B"/>
  <outline>
    <contour>
      <point x="49" y="273" type="curve"/>
      <point x="622" y="273" type="line"/>
      <point x="622" y="351"/>
      <point x="622" y="273"/>
      <point x="622" y="351" type="curve"/>
      <point x="49" y="351" type="line"/>
      <point x="49" y="273"/>
      <point x="49" y="351"/>
    </contour>
    <contour>
      <point x="380" y="28" type="curve"/>
      <point x="380" y="585" type="line"/>
      <point x="287" y="585"/>
      <point x="385" y="585"/>
      <point x="293" y="585" type="curve"/>
      <point x="293" y="28" type="line"/>
      <point x="385" y="28"/>
      <point x="287" y="28"/>
    </contour>
  </outline>
</glyph>
<glyph name="hyphen" format="1">
  <advance width="462"/>
  <unicode hex="002D"/>
  <outline>
    <contour>
      <point x="79" y="239" type="curve"/>
      <point x="180" y="239"/>
      <point x="282" y="239"/>
      <point x="383" y="239" type="curve"/>
      <point x="383" y="318"/>
      <point x="383" y="239"/>
      <point x="383" y="318" type="curve"/>
      <point x="282" y="318"/>
      <point x="180" y="318"/>
      <point x="79" y="318" type="curve"/>
      <point x="79" y="239"/>
      <point x="79" y="318"/>
    </contour>
  </outline>
</glyph>
<glyph name="period" format="1">
  <advance width="256"/>
  <unicode hex="002E"/>
  <outline>
    <contour>
      <point x="182" y="40" type="curve"/>
      <point x="182" y="71"/>
      <point x="158" y="87"/>
      <point x="127" y="87" type="curve"/>
      <point x="95" y="87"/>
      <point x="74" y="70"/>
      <point x="74" y="40" type="curve"/>
      <point x="175" y="40"/>
      <point x="80" y="40"/>
      <point x="182" y="40" type="curve"/>
      <point x="182" y="7"/>
      <point x="159" y="-8"/>
      <point x="126" y="-8" type="curve"/>
      <point x="95" y="-8"/>
      <point x="74" y="8"/>
      <point x="74" y="40" type="curve"/>
      <point x="175" y="40"/>
      <point x="80" y="40"/>
    </contour>
  </outline>
</glyph>
<glyph name="slash" format="1">
  <advance width="601"/>
  <unicode hex="002F"/>
  <outline>
    <contour>
      <point x="125" y="-37" type="curve"/>
      <point x="273" y="245"/>
      <point x="421" y="527"/>
      <point x="569" y="809" type="curve"/>
      <point x="477" y="809"/>
      <point x="569" y="809"/>
      <point x="477" y="809" type="curve"/>
      <point x="329" y="527"/>
      <point x="181" y="245"/>
      <point x="32" y="-37" type="curve"/>
      <point x="125" y="-37"/>
      <point x="32" y="-37"/>
    </contour>
  </outline>
</glyph>
<glyph name="three" format="1">
  <advance width="582"/>
  <unicode hex="0033"/>
  <outline>
    <contour>
      <point x="52" y="56" type="curve"/>
      <point x="110" y="19"/>
      <point x="173" y="-5"/>
      <point x="255" y="-5" type="curve"/>
      <point x="413" y="-5"/>
      <point x="523" y="54"/>
      <point x="523" y="208" type="curve"/>
      <point x="523" y="345"/>
      <point x="374" y="403"/>
      <point x="168" y="403" type="curve"/>
      <point x="168" y="346"/>
      <point x="168" y="400"/>
      <point x="168" y="343" type="curve"/>
      <point x="306" y="343"/>
      <point x="434" y="303"/>
      <point x="434" y="205" type="curve"/>
      <point x="434" y="103"/>
      <point x="351" y="70"/>
      <point x="258" y="70" type="curve"/>
      <point x="203" y="70"/>
      <point x="153" y="85"/>
      <point x="96" y="115" type="curve"/>
      <point x="52" y="56"/>
      <point x="96" y="115"/>
    </contour>
    <contour>
      <point x="107" y="589" type="curve"/>
      <point x="139" y="621"/>
      <point x="193" y="652"/>
      <point x="252" y="652" type="curve"/>
      <point x="340" y="652"/>
      <point x="399" y="621"/>
      <point x="399" y="538" type="curve"/>
      <point x="399" y="451"/>
      <point x="290" y="413"/>
      <point x="168" y="413" type="curve"/>
      <point x="168" y="355"/>
      <point x="168" y="410"/>
      <point x="168" y="353" type="curve"/>
      <point x="345" y="353"/>
      <point x="488" y="407"/>
      <point x="488" y="541" type="curve"/>
      <point x="488" y="669"/>
      <point x="394" y="727"/>
      <point x="259" y="727" type="curve"/>
      <point x="171" y="727"/>
      <point x="95" y="686"/>
      <point x="55" y="639" type="curve"/>
      <point x="107" y="589"/>
      <point x="55" y="639"/>
    </contour>
  </outline>
</glyph>
<glyph name="six" format="1">
  <advance width="636"/>
  <unicode hex="0036"/>
  <outline>
    <contour>
      <point x="133" y="223" type="curve"/>
      <point x="170" y="308"/>
      <point x="236" y="357"/>
      <point x="330" y="357" type="curve"/>
      <point x="425" y="357"/>
      <point x="482" y="309"/>
      <point x="482" y="215" type="curve"/>
      <point x="482" y="126"/>
      <point x="423" y="75"/>
      <point x="332" y="75" type="curve"/>
      <point x="216" y="75"/>
      <point x="147" y="139"/>
      <point x="147" y="252" type="curve"/>
      <point x="147" y="490"/>
      <point x="323" y="596"/>
      <point x="562" y="663" type="curve"/>
      <point x="539" y="731"/>
      <point x="562" y="663"/>
      <point x="539" y="731" type="curve"/>
      <point x="270" y="662"/>
      <point x="57" y="530"/>
      <point x="57" y="248" type="curve"/>
      <point x="57" y="84"/>
      <point x="163" y="-9"/>
      <point x="329" y="-9" type="curve"/>
      <point x="478" y="-9"/>
      <point x="576" y="71"/>
      <point x="576" y="216" type="curve"/>
      <point x="576" y="357"/>
      <point x="482" y="432"/>
      <point x="340" y="432" type="curve"/>
      <point x="208" y="432"/>
      <point x="120" y="349"/>
      <point x="77" y="252" type="curve"/>
      <point x="132" y="223"/>
      <point x="77" y="252"/>
    </contour>
  </outline>
</glyph>
<glyph name="colon" format="1">
  <advance width="267"/>
  <unicode hex="003A"/>
  <outline>
    <contour>
      <point x="187" y="393" type="curve"/>
      <point x="187" y="425"/>
      <point x="164" y="441"/>
      <point x="133" y="441" type="curve"/>
      <point x="101" y="441"/>
      <point x="79" y="423"/>
      <point x="79" y="393" type="curve"/>
      <point x="181" y="393"/>
      <point x="86" y="393"/>
      <point x="187" y="393" type="curve"/>
      <point x="187" y="361"/>
      <point x="164" y="346"/>
      <point x="132" y="346" type="curve"/>
      <point x="100" y="346"/>
      <point x="79" y="362"/>
      <point x="79" y="393" type="curve"/>
      <point x="181" y="393"/>
      <point x="86" y="393"/>
    </contour>
    <contour>
      <point x="187" y="40" type="curve"/>
      <point x="187" y="72"/>
      <point x="164" y="89"/>
      <point x="132" y="89" type="curve"/>
      <point x="100" y="89"/>
      <point x="79" y="71"/>
      <point x="79" y="40" type="curve"/>
      <point x="181" y="40"/>
      <point x="85" y="40"/>
      <point x="187" y="40" type="curve"/>
      <point x="187" y="8"/>
      <point x="164" y="-7"/>
      <point x="132" y="-7" type="curve"/>
      <point x="100" y="-7"/>
      <point x="79" y="10"/>
      <point x="79" y="40" type="curve"/>
      <point x="181" y="40"/>
      <point x="85" y="40"/>
    </contour>
  </outline>
</glyph>
<glyph name="semicolon" format="1">
  <advance width="295"/>
  <unicode hex="003B"/>
  <outline>
    <contour>
      <point x="83" y="-143" type="line"/>
      <point x="157" y="-131"/>
      <point x="210" y="-77"/>
      <point x="210" y="4" type="curve"/>
      <point x="210" y="59"/>
      <point x="186" y="97"/>
      <point x="146" y="97" type="curve"/>
      <point x="113" y="97"/>
      <point x="90" y="81"/>
      <point x="90" y="49" type="curve"/>
      <point x="90" y="20"/>
      <point x="109" y="3"/>
      <point x="142" y="0" type="curve"/>
      <point x="141" y="-31"/>
      <point x="129" y="-74"/>
      <point x="75" y="-92" type="curve"/>
    </contour>
    <contour>
      <point x="198" y="400" type="curve"/>
      <point x="198" y="432"/>
      <point x="176" y="448"/>
      <point x="143" y="448" type="curve"/>
      <point x="112" y="448"/>
      <point x="91" y="430"/>
      <point x="91" y="400" type="curve"/>
      <point x="193" y="400"/>
      <point x="97" y="400"/>
      <point x="198" y="400" type="curve"/>
      <point x="198" y="368"/>
      <point x="176" y="353"/>
      <point x="143" y="353" type="curve"/>
      <point x="111" y="353"/>
      <point x="91" y="369"/>
      <point x="91" y="400" type="curve"/>
      <point x="193" y="400"/>
      <point x="97" y="400"/>
    </contour>
  </outline>
</glyph>
<glyph name="less" format="1">
  <advance width="749"/>
  <unicode hex="003C"/>
  <outline>
    <contour>
      <point x="675" y="609" type="curve"/>
      <point x="463" y="519"/>
      <point x="252" y="429"/>
      <point x="40" y="339" type="curve"/>
      <point x="40" y="261"/>
      <point x="40" y="339"/>
      <point x="40" y="261" type="curve"/>
      <point x="252" y="351"/>
      <point x="463" y="441"/>
      <point x="675" y="531" type="curve"/>
      <point x="675" y="609"/>
      <point x="675" y="531"/>
    </contour>
    <contour>
      <point x="686" y="75" type="curve"/>
      <point x="471" y="163"/>
      <point x="256" y="251"/>
      <point x="40" y="339" type="curve"/>
      <point x="40" y="261"/>
      <point x="40" y="339"/>
      <point x="40" y="261" type="curve"/>
      <point x="256" y="173"/>
      <point x="471" y="85"/>
      <point x="686" y="-3" type="curve"/>
      <point x="686" y="75"/>
      <point x="686" y="-3"/>
    </contour>
  </outline>
</glyph>
<glyph name="equal" format="1">
  <advance width="822"/>
  <unicode hex="003D"/>
  <outline>
    <contour>
      <point x="83" y="180" type="curve"/>
      <point x="301" y="180"/>
      <point x="520" y="180"/>
      <point x="738" y="180" type="curve"/>
      <point x="738" y="255"/>
      <point x="738" y="180"/>
      <point x="738" y="255" type="curve"/>
      <point x="520" y="255"/>
      <point x="301" y="255"/>
      <point x="83" y="255" type="curve"/>
      <point x="83" y="180"/>
      <point x="83" y="255"/>
    </contour>
    <contour>
      <point x="83" y="402" type="curve"/>
      <point x="301" y="402"/>
      <point x="520" y="402"/>
      <point x="738" y="402" type="curve"/>
      <point x="738" y="477"/>
      <point x="738" y="402"/>
      <point x="738" y="477" type="curve"/>
      <point x="520" y="477"/>
      <point x="301" y="477"/>
      <point x="83" y="477" type="curve"/>
      <point x="83" y="402"/>
      <point x="83" y="477"/>
    </contour>
  </outline>
</glyph>
<glyph name="at" format="1">
  <advance width="888"/>
  <unicode hex="0040"/>
  <outline>
    <contour>
      <point x="611" y="-40" type="curve"/>
      <point x="558" y="-65"/>
      <point x="518" y="-73"/>
      <point x="459" y="-73" type="curve"/>
      <point x="266" y="-73"/>
      <point x="142" y="23"/>
      <point x="142" y="210" type="curve"/>
      <point x="142" y="392"/>
      <point x="265" y="485"/>
      <point x="453" y="485" type="curve"/>
      <point x="631" y="485"/>
      <point x="745" y="389"/>
      <point x="745" y="215" type="curve"/>
      <point x="745" y="150"/>
      <point x="735" y="97"/>
      <point x="688" y="97" type="curve"/>
      <point x="639" y="97"/>
      <point x="626" y="149"/>
      <point x="626" y="215" type="curve"/>
      <point x="626" y="330"/>
      <point x="558" y="399"/>
      <point x="442" y="399" type="curve"/>
      <point x="318" y="399"/>
      <point x="246" y="333"/>
      <point x="246" y="213" type="curve"/>
      <point x="246" y="90"/>
      <point x="312" y="17"/>
      <point x="433" y="17" type="curve"/>
      <point x="540" y="17"/>
      <point x="593" y="88"/>
      <point x="612" y="199" type="curve"/>
      <point x="553" y="213"/>
      <point x="612" y="199"/>
      <point x="553" y="213" type="curve"/>
      <point x="535" y="142"/>
      <point x="512" y="88"/>
      <point x="444" y="88" type="curve"/>
      <point x="370" y="88"/>
      <point x="332" y="138"/>
      <point x="332" y="217" type="curve"/>
      <point x="332" y="286"/>
      <point x="368" y="328"/>
      <point x="436" y="328" type="curve"/>
      <point x="507" y="328"/>
      <point x="541" y="284"/>
      <point x="541" y="211" type="curve"/>
      <point x="541" y="106"/>
      <point x="582" y="30"/>
      <point x="681" y="30" type="curve"/>
      <point x="785" y="30"/>
      <point x="829" y="107"/>
      <point x="829" y="219" type="curve"/>
      <point x="829" y="440"/>
      <point x="684" y="559"/>
      <point x="457" y="559" type="curve"/>
      <point x="212" y="559"/>
      <point x="56" y="441"/>
      <point x="56" y="207" type="curve"/>
      <point x="56" y="-26"/>
      <point x="212" y="-144"/>
      <point x="454" y="-144" type="curve"/>
      <point x="531" y="-144"/>
      <point x="585" y="-132"/>
      <point x="645" y="-101" type="curve"/>
      <point x="611" y="-40"/>
      <point x="645" y="-101"/>
    </contour>
  </outline>
</glyph>
<glyph name="C" format="1">
  <advance width="744"/>
  <unicode hex="0043"/>
  <outline>
    <contour>
      <point x="422" y="801" type="move" name="top"/>
    </contour>
    <contour>
      <point x="426" y="5" type="move" name="bottom"/>
    </contour>
    <contour>
      <point x="611" y="654" type="curve"/>
      <point x="611" y="534"/>
      <point x="611" y="641"/>
      <point x="611" y="521" type="curve"/>
      <point x="684" y="521"/>
      <point x="611" y="521"/>
      <point x="684" y="521" type="curve"/>
      <point x="684" y="641"/>
      <point x="684" y="534"/>
      <point x="684" y="654" type="curve"/>
      <point x="611" y="654"/>
      <point x="684" y="654"/>
    </contour>
    <contour>
      <point x="684" y="654" type="curve"/>
      <point x="608" y="696"/>
      <point x="524" y="727"/>
      <point x="430" y="727" type="curve"/>
      <point x="195" y="727"/>
      <point x="60" y="584"/>
      <point x="60" y="344" type="curve"/>
      <point x="60" y="124"/>
      <point x="187" y="-5"/>
      <point x="406" y="-5" type="curve"/>
      <point x="530" y="-5"/>
      <point x="608" y="27"/>
      <point x="696" y="94" type="curve"/>
      <point x="651" y="152"/>
      <point x="695" y="94"/>
      <point x="651" y="152" type="curve"/>
      <point x="571" y="96"/>
      <point x="507" y="71"/>
      <point x="411" y="71" type="curve"/>
      <point x="242" y="71"/>
      <point x="153" y="176"/>
      <point x="153" y="348" type="curve"/>
      <point x="153" y="534"/>
      <point x="246" y="653"/>
      <point x="426" y="653" type="curve"/>
      <point x="503" y="653"/>
      <point x="572" y="632"/>
      <point x="633" y="598" type="curve"/>
      <point x="684" y="654"/>
      <point x="633" y="598"/>
    </contour>
  </outline>
</glyph>
<glyph name="H" format="1">
  <advance width="903"/>
  <unicode hex="0048"/>
  <outline>
    <contour>
      <point x="715" y="651" type="curve"/>
      <point x="874" y="651"/>
      <point x="701" y="651"/>
      <point x="861" y="651" type="curve"/>
      <point x="861" y="722"/>
      <point x="861" y="651"/>
      <point x="861" y="722" type="curve"/>
      <point x="808" y="722"/>
      <point x="767" y="722"/>
      <point x="715" y="722" type="curve"/>
      <point x="715" y="651"/>
      <point x="715" y="722"/>
    </contour>
    <contour>
      <point x="715" y="0" type="curve"/>
      <point x="767" y="0"/>
      <point x="808" y="0"/>
      <point x="861" y="0" type="curve"/>
      <point x="861" y="71"/>
      <point x="861" y="0"/>
      <point x="861" y="71" type="curve"/>
      <point x="701" y="71"/>
      <point x="874" y="71"/>
      <point x="715" y="71" type="curve"/>
      <point x="715" y="0"/>
      <point x="715" y="71"/>
    </contour>
    <contour>
      <point x="715" y="71" type="curve"/>
      <point x="555" y="71"/>
      <point x="727" y="71"/>
      <point x="567" y="71" type="curve"/>
      <point x="567" y="0"/>
      <point x="567" y="71"/>
      <point x="567" y="0" type="curve"/>
      <point x="621" y="0"/>
      <point x="661" y="0"/>
      <point x="715" y="0" type="curve"/>
      <point x="715" y="71"/>
      <point x="715" y="0"/>
    </contour>
    <contour>
      <point x="715" y="722" type="curve"/>
      <point x="661" y="722"/>
      <point x="621" y="722"/>
      <point x="567" y="722" type="curve"/>
      <point x="567" y="651"/>
      <point x="567" y="722"/>
      <point x="567" y="651" type="curve"/>
      <point x="727" y="651"/>
      <point x="555" y="651"/>
      <point x="715" y="651" type="curve"/>
      <point x="715" y="722"/>
      <point x="715" y="651"/>
    </contour>
    <contour>
      <point x="189" y="651" type="curve"/>
      <point x="349" y="651"/>
      <point x="176" y="651"/>
      <point x="336" y="651" type="curve"/>
      <point x="336" y="722"/>
      <point x="336" y="651"/>
      <point x="336" y="722" type="curve"/>
      <point x="283" y="722"/>
      <point x="243" y="722"/>
      <point x="189" y="722" type="curve"/>
      <point x="189" y="651"/>
      <point x="189" y="722"/>
    </contour>
    <contour>
      <point x="189" y="722" type="curve"/>
      <point x="136" y="722"/>
      <point x="95" y="722"/>
      <point x="42" y="722" type="curve"/>
      <point x="42" y="651"/>
      <point x="42" y="722"/>
      <point x="42" y="651" type="curve"/>
      <point x="202" y="651"/>
      <point x="29" y="651"/>
      <point x="189" y="651" type="curve"/>
      <point x="189" y="722"/>
      <point x="189" y="651"/>
    </contour>
    <contour>
      <point x="189" y="0" type="curve"/>
      <point x="243" y="0"/>
      <point x="176" y="0"/>
      <point x="336" y="0" type="curve"/>
      <point x="336" y="71"/>
      <point x="336" y="0"/>
      <point x="336" y="71" type="curve"/>
      <point x="176" y="71"/>
      <point x="349" y="71"/>
      <point x="189" y="71" type="curve"/>
      <point x="189" y="0"/>
      <point x="189" y="71"/>
    </contour>
    <contour>
      <point x="189" y="71" type="curve"/>
      <point x="29" y="71"/>
      <point x="202" y="71"/>
      <point x="42" y="71" type="curve"/>
      <point x="42" y="0"/>
      <point x="42" y="71"/>
      <point x="42" y="0" type="curve"/>
      <point x="95" y="0"/>
      <point x="136" y="0"/>
      <point x="189" y="0" type="curve"/>
      <point x="189" y="71"/>
      <point x="189" y="0"/>
    </contour>
    <contour>
      <point x="235" y="0" type="curve"/>
      <point x="235" y="722" type="line"/>
      <point x="143" y="722"/>
      <point x="235" y="722"/>
      <point x="143" y="722" type="curve"/>
      <point x="143" y="481"/>
      <point x="143" y="241"/>
      <point x="143" y="0" type="curve"/>
      <point x="235" y="0"/>
      <point x="143" y="0"/>
    </contour>
    <contour>
      <point x="712" y="398" type="curve"/>
      <point x="537" y="398"/>
      <point x="363" y="398"/>
      <point x="189" y="398" type="curve"/>
      <point x="189" y="327"/>
      <point x="189" y="398"/>
      <point x="189" y="327" type="curve"/>
      <point x="363" y="327"/>
      <point x="537" y="327"/>
      <point x="712" y="327" type="curve"/>
      <point x="712" y="398"/>
      <point x="712" y="327"/>
    </contour>
    <contour>
      <point x="760" y="27" type="curve"/>
      <point x="760" y="250"/>
      <point x="760" y="472"/>
      <point x="760" y="695" type="curve"/>
      <point x="668" y="695"/>
      <point x="760" y="695"/>
      <point x="668" y="695" type="curve"/>
      <point x="668" y="27" type="line"/>
      <point x="760" y="27"/>
      <point x="668" y="27"/>
    </contour>
  </outline>
</glyph>
<glyph name="I" format="1">
  <advance width="379"/>
  <unicode hex="0049"/>
  <outline>
    <contour>
      <point x="189" y="801" type="move" name="top"/>
    </contour>
    <contour>
      <point x="232" y="1" type="move" name="bottom"/>
    </contour>
    <contour>
      <point x="190" y="722" type="curve"/>
      <point x="136" y="722"/>
      <point x="96" y="722"/>
      <point x="43" y="722" type="curve"/>
      <point x="43" y="651"/>
      <point x="43" y="722"/>
      <point x="43" y="651" type="curve"/>
      <point x="203" y="651"/>
      <point x="30" y="651"/>
      <point x="190" y="651" type="curve"/>
      <point x="190" y="722"/>
      <point x="190" y="651"/>
    </contour>
    <contour>
      <point x="190" y="651" type="curve"/>
      <point x="350" y="651"/>
      <point x="177" y="651"/>
      <point x="337" y="651" type="curve"/>
      <point x="337" y="722"/>
      <point x="337" y="651"/>
      <point x="337" y="722" type="curve"/>
      <point x="284" y="722"/>
      <point x="243" y="722"/>
      <point x="190" y="722" type="curve"/>
      <point x="190" y="651"/>
      <point x="190" y="722"/>
    </contour>
    <contour>
      <point x="190" y="0" type="curve"/>
      <point x="243" y="0"/>
      <point x="284" y="0"/>
      <point x="337" y="0" type="curve"/>
      <point x="337" y="71"/>
      <point x="337" y="0"/>
      <point x="337" y="71" type="curve"/>
      <point x="177" y="71"/>
      <point x="350" y="71"/>
      <point x="190" y="71" type="curve"/>
      <point x="190" y="0"/>
      <point x="190" y="71"/>
    </contour>
    <contour>
      <point x="190" y="71" type="curve"/>
      <point x="30" y="71"/>
      <point x="203" y="71"/>
      <point x="43" y="71" type="curve"/>
      <point x="43" y="0"/>
      <point x="43" y="71"/>
      <point x="43" y="0" type="curve"/>
      <point x="96" y="0"/>
      <point x="136" y="0"/>
      <point x="190" y="0" type="curve"/>
      <point x="190" y="71"/>
      <point x="190" y="0"/>
    </contour>
    <contour>
      <point x="235" y="0" type="curve"/>
      <point x="235" y="241"/>
      <point x="235" y="481"/>
      <point x="235" y="722" type="curve"/>
      <point x="142" y="722"/>
      <point x="235" y="722"/>
      <point x="142" y="722" type="curve"/>
      <point x="142" y="481"/>
      <point x="142" y="241"/>
      <point x="142" y="0" type="curve"/>
      <point x="235" y="0"/>
      <point x="142" y="0"/>
    </contour>
  </outline>
</glyph>
<glyph name="J" format="1">
  <advance width="499"/>
  <unicode hex="004A"/>
  <outline>
    <contour>
      <point x="333" y="722" type="curve"/>
      <point x="280" y="722"/>
      <point x="241" y="722"/>
      <point x="189" y="722" type="curve"/>
      <point x="189" y="651"/>
      <point x="189" y="722"/>
      <point x="189" y="651" type="curve"/>
      <point x="345" y="651"/>
      <point x="176" y="651"/>
      <point x="333" y="651" type="curve"/>
      <point x="333" y="722"/>
      <point x="333" y="651"/>
    </contour>
    <contour>
      <point x="333" y="651" type="curve"/>
      <point x="487" y="651"/>
      <point x="319" y="651"/>
      <point x="474" y="651" type="curve"/>
      <point x="474" y="722"/>
      <point x="474" y="651"/>
      <point x="474" y="722" type="curve"/>
      <point x="423" y="722"/>
      <point x="384" y="722"/>
      <point x="333" y="722" type="curve"/>
      <point x="333" y="651"/>
      <point x="333" y="722"/>
    </contour>
    <contour>
      <point x="12" y="43" type="curve"/>
      <point x="46" y="21"/>
      <point x="93" y="-4"/>
      <point x="152" y="-4" type="curve"/>
      <point x="299" y="-4"/>
      <point x="378" y="78"/>
      <point x="378" y="233" type="curve"/>
      <point x="378" y="400"/>
      <point x="378" y="555"/>
      <point x="378" y="722" type="curve"/>
      <point x="288" y="722"/>
      <point x="374" y="722"/>
      <point x="285" y="722" type="curve"/>
      <point x="285" y="555"/>
      <point x="285" y="400"/>
      <point x="285" y="233" type="curve"/>
      <point x="285" y="134"/>
      <point x="246" y="68"/>
      <point x="152" y="68" type="curve"/>
      <point x="112" y="68"/>
      <point x="86" y="83"/>
      <point x="55" y="99" type="curve"/>
      <point x="14" y="45"/>
      <point x="53" y="97"/>
    </contour>
  </outline>
</glyph>
<glyph name="L" format="1">
  <advance width="658"/>
  <unicode hex="004C"/>
  <outline>
    <contour>
      <point x="190" y="801" type="move" name="top"/>
    </contour>
    <contour>
      <point x="377" y="-13" type="move" name="bottom"/>
    </contour>
    <contour>
      <point x="629" y="35" type="curve"/>
      <point x="629" y="155"/>
      <point x="629" y="33"/>
      <point x="629" y="153" type="curve"/>
      <point x="556" y="153"/>
      <point x="629" y="153"/>
      <point x="556" y="153" type="curve"/>
      <point x="556" y="33"/>
      <point x="556" y="155"/>
      <point x="556" y="35" type="curve"/>
      <point x="629" y="35"/>
      <point x="556" y="35"/>
    </contour>
    <contour>
      <point x="189" y="71" type="curve"/>
      <point x="29" y="71"/>
      <point x="202" y="71"/>
      <point x="42" y="71" type="curve"/>
      <point x="42" y="0"/>
      <point x="42" y="71"/>
      <point x="42" y="0" type="curve"/>
      <point x="94" y="0"/>
      <point x="135" y="0"/>
      <point x="189" y="0" type="curve"/>
      <point x="189" y="71"/>
      <point x="189" y="0"/>
    </contour>
    <contour>
      <point x="189" y="722" type="curve"/>
      <point x="135" y="722"/>
      <point x="94" y="722"/>
      <point x="42" y="722" type="curve"/>
      <point x="42" y="651"/>
      <point x="42" y="722"/>
      <point x="42" y="651" type="curve"/>
      <point x="202" y="651"/>
      <point x="29" y="651"/>
      <point x="189" y="651" type="curve"/>
      <point x="189" y="722"/>
      <point x="189" y="651"/>
    </contour>
    <contour>
      <point x="189" y="651" type="curve"/>
      <point x="349" y="651"/>
      <point x="176" y="651"/>
      <point x="336" y="651" type="curve"/>
      <point x="336" y="722"/>
      <point x="336" y="651"/>
      <point x="336" y="722" type="curve"/>
      <point x="283" y="722"/>
      <point x="242" y="722"/>
      <point x="189" y="722" type="curve"/>
      <point x="189" y="651"/>
      <point x="189" y="722"/>
    </contour>
    <contour>
      <point x="236" y="0" type="curve"/>
      <point x="236" y="241"/>
      <point x="236" y="481"/>
      <point x="236" y="722" type="curve"/>
      <point x="143" y="722"/>
      <point x="236" y="722"/>
      <point x="143" y="722" type="curve"/>
      <point x="143" y="481"/>
      <point x="143" y="241"/>
      <point x="143" y="0" type="curve"/>
      <point x="236" y="0"/>
      <point x="143" y="0"/>
    </contour>
    <contour>
      <point x="189" y="0" type="curve"/>
      <point x="336" y="0"/>
      <point x="482" y="0"/>
      <point x="629" y="0" type="curve"/>
      <point x="629" y="71"/>
      <point x="629" y="0"/>
      <point x="629" y="71" type="curve"/>
      <point x="482" y="71"/>
      <point x="336" y="71"/>
      <point x="189" y="71" type="curve"/>
      <point x="189" y="0"/>
      <point x="189" y="71"/>
    </contour>
  </outline>
</glyph>
<glyph name="M" format="1">
  <advance width="1047"/>
  <unicode hex="004D"/>
  <outline>
    <contour>
      <point x="881" y="0" type="curve"/>
      <point x="934" y="0"/>
      <point x="973" y="0"/>
      <point x="1025" y="0" type="curve"/>
      <point x="1025" y="71"/>
      <point x="1025" y="0"/>
      <point x="1025" y="71" type="curve"/>
      <point x="868" y="71"/>
      <point x="1038" y="71"/>
      <point x="881" y="71" type="curve"/>
      <point x="881" y="0"/>
      <point x="881" y="71"/>
    </contour>
    <contour>
      <point x="881" y="71" type="curve"/>
      <point x="726" y="71"/>
      <point x="893" y="71"/>
      <point x="739" y="71" type="curve"/>
      <point x="739" y="0"/>
      <point x="739" y="71"/>
      <point x="739" y="0" type="curve"/>
      <point x="790" y="0"/>
      <point x="829" y="0"/>
      <point x="881" y="0" type="curve"/>
      <point x="881" y="71"/>
      <point x="881" y="0"/>
    </contour>
    <contour>
      <point x="168" y="71" type="curve"/>
      <point x="11" y="71"/>
      <point x="181" y="71"/>
      <point x="24" y="71" type="curve"/>
      <point x="24" y="0"/>
      <point x="24" y="71"/>
      <point x="24" y="0" type="curve"/>
      <point x="76" y="0"/>
      <point x="116" y="0"/>
      <point x="168" y="0" type="curve"/>
      <point x="168" y="71"/>
      <point x="168" y="0"/>
    </contour>
    <contour>
      <point x="227" y="722" type="curve"/>
      <point x="174" y="722"/>
      <point x="135" y="722"/>
      <point x="82" y="722" type="curve"/>
      <point x="82" y="651"/>
      <point x="82" y="722"/>
      <point x="82" y="651" type="curve"/>
      <point x="239" y="651"/>
      <point x="69" y="651"/>
      <point x="227" y="651" type="curve"/>
      <point x="227" y="722"/>
      <point x="227" y="651"/>
    </contour>
    <contour>
      <point x="820" y="651" type="curve"/>
      <point x="978" y="651"/>
      <point x="807" y="651"/>
      <point x="964" y="651" type="curve"/>
      <point x="964" y="722"/>
      <point x="964" y="651"/>
      <point x="964" y="722" type="curve"/>
      <point x="912" y="722"/>
      <point x="872" y="722"/>
      <point x="820" y="722" type="curve"/>
      <point x="820" y="651"/>
      <point x="820" y="722"/>
    </contour>
    <contour>
      <point x="168" y="0" type="curve"/>
      <point x="220" y="0"/>
      <point x="155" y="0"/>
      <point x="310" y="0" type="curve"/>
      <point x="310" y="71"/>
      <point x="310" y="0"/>
      <point x="310" y="71" type="curve"/>
      <point x="155" y="71"/>
      <point x="323" y="71"/>
      <point x="168" y="71" type="curve"/>
      <point x="168" y="0"/>
      <point x="168" y="71"/>
    </contour>
    <contour>
      <point x="931" y="0" type="curve"/>
      <point x="909" y="241"/>
      <point x="885" y="481"/>
      <point x="863" y="722" type="curve"/>
      <point x="779" y="722"/>
      <point x="863" y="722"/>
      <point x="779" y="722" type="curve"/>
      <point x="800" y="482"/>
      <point x="818" y="240"/>
      <point x="839" y="0" type="curve"/>
      <point x="931" y="0"/>
      <point x="839" y="0"/>
    </contour>
    <contour>
      <point x="208" y="0" type="curve"/>
      <point x="228" y="241"/>
      <point x="247" y="481"/>
      <point x="267" y="722" type="curve"/>
      <point x="182" y="722"/>
      <point x="267" y="722"/>
      <point x="182" y="722" type="curve"/>
      <point x="161" y="481"/>
      <point x="141" y="241"/>
      <point x="120" y="0" type="curve"/>
      <point x="208" y="0"/>
      <point x="120" y="0"/>
    </contour>
    <contour>
      <point x="564" y="0" type="curve"/>
      <point x="466" y="241"/>
      <point x="368" y="481"/>
      <point x="270" y="722" type="curve"/>
      <point x="184" y="722"/>
      <point x="270" y="722"/>
      <point x="184" y="722" type="curve"/>
      <point x="281" y="481"/>
      <point x="379" y="241"/>
      <point x="476" y="0" type="curve"/>
      <point x="563" y="0"/>
      <point x="477" y="0"/>
    </contour>
    <contour>
      <point x="573" y="0" type="curve"/>
      <point x="668" y="241"/>
      <point x="764" y="481"/>
      <point x="860" y="722" type="curve"/>
      <point x="774" y="722"/>
      <point x="859" y="722"/>
      <point x="774" y="722" type="curve"/>
      <point x="677" y="481"/>
      <point x="580" y="241"/>
      <point x="484" y="0" type="curve"/>
      <point x="572" y="0"/>
      <point x="485" y="0"/>
    </contour>
  </outline>
</glyph>
<glyph name="P" format="1">
  <advance width="674"/>
  <unicode hex="0050"/>
  <outline>
    <contour>
      <point x="204" y="722" type="curve"/>
      <point x="154" y="722"/>
      <point x="107" y="722"/>
      <point x="57" y="722" type="curve"/>
      <point x="57" y="651"/>
      <point x="57" y="722"/>
      <point x="57" y="651" type="curve"/>
      <point x="209" y="651"/>
      <point x="53" y="651"/>
      <point x="204" y="651" type="curve"/>
      <point x="204" y="722"/>
      <point x="204" y="651"/>
    </contour>
    <contour>
      <point x="204" y="71" type="curve"/>
      <point x="53" y="71"/>
      <point x="209" y="71"/>
      <point x="57" y="71" type="curve"/>
      <point x="57" y="0"/>
      <point x="57" y="71"/>
      <point x="57" y="0" type="curve"/>
      <point x="107" y="0"/>
      <point x="154" y="0"/>
      <point x="204" y="0" type="curve"/>
      <point x="204" y="71"/>
      <point x="204" y="0"/>
    </contour>
    <contour>
      <point x="204" y="0" type="curve"/>
      <point x="255" y="0"/>
      <point x="200" y="0"/>
      <point x="351" y="0" type="curve"/>
      <point x="351" y="71"/>
      <point x="351" y="0"/>
      <point x="351" y="71" type="curve"/>
      <point x="200" y="71"/>
      <point x="356" y="71"/>
      <point x="204" y="71" type="curve"/>
      <point x="204" y="0"/>
      <point x="204" y="71"/>
    </contour>
    <contour>
      <point x="192" y="308" type="curve"/>
      <point x="249" y="280"/>
      <point x="313" y="262"/>
      <point x="380" y="262" type="curve"/>
      <point x="528" y="265"/>
      <point x="628" y="338"/>
      <point x="628" y="486" type="curve"/>
      <point x="628" y="640"/>
      <point x="509" y="722"/>
      <point x="345" y="722" type="curve"/>
      <point x="299" y="722"/>
      <point x="254" y="722"/>
      <point x="207" y="722" type="curve"/>
      <point x="207" y="651"/>
      <point x="207" y="722"/>
      <point x="207" y="651" type="curve"/>
      <point x="250" y="651"/>
      <point x="291" y="651"/>
      <point x="333" y="651" type="curve"/>
      <point x="451" y="651"/>
      <point x="536" y="596"/>
      <point x="536" y="488" type="curve"/>
      <point x="536" y="387"/>
      <point x="469" y="332"/>
      <point x="371" y="332" type="curve"/>
      <point x="313" y="332"/>
      <point x="273" y="346"/>
      <point x="221" y="370" type="curve"/>
      <point x="192" y="309"/>
      <point x="221" y="370"/>
    </contour>
    <contour>
      <point x="249" y="0" type="curve"/>
      <point x="249" y="241"/>
      <point x="249" y="481"/>
      <point x="249" y="722" type="curve"/>
      <point x="157" y="722"/>
      <point x="249" y="722"/>
      <point x="157" y="722" type="curve"/>
      <point x="157" y="481"/>
      <point x="157" y="241"/>
      <point x="157" y="0" type="curve"/>
      <point x="249" y="0"/>
      <point x="157" y="0"/>
    </contour>
  </outline>
</glyph>
<glyph name="Q" format="1">
  <advance width="831"/>
  <unicode hex="0051"/>
  <outline>
    <contour>
      <point x="375" y="17" type="curve"/>
      <point x="490" y="-166"/>
      <point x="621" y="-224"/>
      <point x="825" y="-224" type="curve"/>
      <point x="825" y="-150"/>
      <point x="825" y="-224"/>
      <point x="825" y="-150" type="curve"/>
      <point x="657" y="-150"/>
      <point x="552" y="-100"/>
      <point x="454" y="52" type="curve"/>
      <point x="375" y="17"/>
      <point x="454" y="52"/>
    </contour>
    <contour>
      <point x="152" y="360" type="curve"/>
      <point x="152" y="531"/>
      <point x="239" y="650"/>
      <point x="404" y="650" type="curve"/>
      <point x="571" y="650"/>
      <point x="659" y="534"/>
      <point x="659" y="361" type="curve"/>
      <point x="659" y="190"/>
      <point x="575" y="70"/>
      <point x="410" y="70" type="curve"/>
      <point x="241" y="70"/>
      <point x="152" y="187"/>
      <point x="152" y="360" type="curve"/>
      <point x="60" y="360"/>
      <point x="152" y="360"/>
      <point x="60" y="360" type="curve"/>
      <point x="60" y="139"/>
      <point x="189" y="-5"/>
      <point x="405" y="-5" type="curve"/>
      <point x="624" y="-5"/>
      <point x="752" y="142"/>
      <point x="752" y="365" type="curve"/>
      <point x="752" y="586"/>
      <point x="626" y="730"/>
      <point x="410" y="730" type="curve"/>
      <point x="190" y="730"/>
      <point x="60" y="584"/>
      <point x="60" y="360" type="curve"/>
      <point x="152" y="360"/>
      <point x="60" y="360"/>
    </contour>
  </outline>
</glyph>
<glyph name="T" format="1">
  <advance width="718"/>
  <unicode hex="0054"/>
  <outline>
    <contour>
      <point x="357" y="801" type="move" name="top"/>
    </contour>
    <contour>
      <point x="390" y="-16" type="move" name="bottom"/>
    </contour>
    <contour>
      <point x="36" y="686" type="curve"/>
      <point x="36" y="566"/>
      <point x="36" y="688"/>
      <point x="36" y="568" type="curve"/>
      <point x="108" y="568"/>
      <point x="36" y="568"/>
      <point x="108" y="568" type="curve"/>
      <point x="108" y="688"/>
      <point x="108" y="566"/>
      <point x="108" y="686" type="curve"/>
      <point x="36" y="686"/>
      <point x="108" y="686"/>
    </contour>
    <contour>
      <point x="610" y="686" type="curve"/>
      <point x="610" y="566"/>
      <point x="610" y="688"/>
      <point x="610" y="568" type="curve"/>
      <point x="682" y="568"/>
      <point x="610" y="568"/>
      <point x="682" y="568" type="curve"/>
      <point x="682" y="688"/>
      <point x="682" y="566"/>
      <point x="682" y="686" type="curve"/>
      <point x="610" y="686"/>
      <point x="682" y="686"/>
    </contour>
    <contour>
      <point x="358" y="0" type="curve"/>
      <point x="408" y="0"/>
      <point x="455" y="0"/>
      <point x="505" y="0" type="curve"/>
      <point x="505" y="71"/>
      <point x="505" y="0"/>
      <point x="505" y="71" type="curve"/>
      <point x="356" y="71"/>
      <point x="507" y="71"/>
      <point x="358" y="71" type="curve"/>
      <point x="358" y="0"/>
      <point x="358" y="71"/>
    </contour>
    <contour>
      <point x="358" y="71" type="curve"/>
      <point x="209" y="71"/>
      <point x="360" y="71"/>
      <point x="211" y="71" type="curve"/>
      <point x="211" y="0"/>
      <point x="211" y="71"/>
      <point x="211" y="0" type="curve"/>
      <point x="260" y="0"/>
      <point x="309" y="0"/>
      <point x="358" y="0" type="curve"/>
      <point x="358" y="71"/>
      <point x="358" y="0"/>
    </contour>
    <contour>
      <point x="406" y="0" type="curve"/>
      <point x="406" y="237"/>
      <point x="406" y="473"/>
      <point x="406" y="710" type="curve"/>
      <point x="314" y="710"/>
      <point x="406" y="710"/>
      <point x="314" y="710" type="curve"/>
      <point x="313" y="473"/>
      <point x="314" y="237"/>
      <point x="314" y="0" type="curve"/>
      <point x="406" y="0"/>
      <point x="314" y="0"/>
    </contour>
    <contour>
      <point x="36" y="646" type="curve"/>
      <point x="251" y="646"/>
      <point x="467" y="646"/>
      <point x="682" y="646" type="curve"/>
      <point x="682" y="725"/>
      <point x="682" y="644"/>
      <point x="682" y="722" type="curve"/>
      <point x="467" y="722"/>
      <point x="251" y="722"/>
      <point x="36" y="722" type="curve"/>
      <point x="36" y="644"/>
      <point x="36" y="725"/>
    </contour>
  </outline>
</glyph>
<glyph name="X" format="1">
  <advance width="782"/>
  <unicode hex="0058"/>
  <outline>
    <contour>
      <point x="158" y="0" type="curve"/>
      <point x="210" y="0"/>
      <point x="156" y="0"/>
      <point x="311" y="0" type="curve"/>
      <point x="311" y="71"/>
      <point x="311" y="0"/>
      <point x="311" y="71" type="curve"/>
      <point x="156" y="71"/>
      <point x="314" y="71"/>
      <point x="158" y="71" type="curve"/>
      <point x="158" y="0"/>
      <point x="158" y="71"/>
    </contour>
    <contour>
      <point x="153" y="71" type="curve"/>
      <point x="7" y="71"/>
      <point x="155" y="71"/>
      <point x="9" y="71" type="curve"/>
      <point x="8" y="0"/>
      <point x="9" y="71"/>
      <point x="8" y="0" type="curve"/>
      <point x="57" y="0"/>
      <point x="105" y="0"/>
      <point x="153" y="0" type="curve"/>
      <point x="153" y="71"/>
      <point x="153" y="0"/>
    </contour>
    <contour>
      <point x="625" y="0" type="curve"/>
      <point x="673" y="0"/>
      <point x="722" y="0"/>
      <point x="770" y="0" type="curve"/>
      <point x="770" y="71"/>
      <point x="770" y="0"/>
      <point x="770" y="71" type="curve"/>
      <point x="623" y="71"/>
      <point x="771" y="71"/>
      <point x="625" y="71" type="curve"/>
      <point x="625" y="0"/>
      <point x="625" y="71"/>
    </contour>
    <contour>
      <point x="620" y="71" type="curve"/>
      <point x="465" y="71"/>
      <point x="622" y="71"/>
      <point x="467" y="71" type="curve"/>
      <point x="467" y="0"/>
      <point x="467" y="71"/>
      <point x="467" y="0" type="curve"/>
      <point x="518" y="0"/>
      <point x="568" y="0"/>
      <point x="620" y="0" type="curve"/>
      <point x="620" y="71"/>
      <point x="620" y="0"/>
    </contour>
    <contour>
      <point x="598" y="651" type="curve"/>
      <point x="746" y="651"/>
      <point x="597" y="651"/>
      <point x="744" y="651" type="curve"/>
      <point x="744" y="722"/>
      <point x="744" y="651"/>
      <point x="744" y="722" type="curve"/>
      <point x="695" y="722"/>
      <point x="647" y="722"/>
      <point x="598" y="722" type="curve"/>
      <point x="598" y="651"/>
      <point x="598" y="722"/>
    </contour>
    <contour>
      <point x="603" y="722" type="curve"/>
      <point x="550" y="722"/>
      <point x="499" y="722"/>
      <point x="447" y="722" type="curve"/>
      <point x="447" y="651"/>
      <point x="447" y="722"/>
      <point x="447" y="651" type="curve"/>
      <point x="605" y="651"/>
      <point x="445" y="651"/>
      <point x="603" y="651" type="curve"/>
      <point x="603" y="722"/>
      <point x="603" y="651"/>
    </contour>
    <contour>
      <point x="186" y="722" type="curve"/>
      <point x="138" y="722"/>
      <point x="90" y="722"/>
      <point x="42" y="722" type="curve"/>
      <point x="42" y="651"/>
      <point x="42" y="722"/>
      <point x="42" y="651" type="curve"/>
      <point x="188" y="651"/>
      <point x="39" y="651"/>
      <point x="186" y="651" type="curve"/>
      <point x="186" y="722"/>
      <point x="186" y="651"/>
    </contour>
    <contour>
      <point x="183" y="651" type="curve"/>
      <point x="340" y="651"/>
      <point x="181" y="651"/>
      <point x="338" y="651" type="curve"/>
      <point x="338" y="722"/>
      <point x="338" y="651"/>
      <point x="338" y="722" type="curve"/>
      <point x="286" y="722"/>
      <point x="235" y="722"/>
      <point x="183" y="722" type="curve"/>
      <point x="183" y="651"/>
      <point x="183" y="722"/>
    </contour>
    <contour>
      <point x="589" y="722" type="curve"/>
      <point x="420" y="485"/>
      <point x="249" y="251"/>
      <point x="79" y="14" type="curve"/>
      <point x="173" y="14"/>
      <point x="79" y="0"/>
      <point x="173" y="0" type="curve"/>
      <point x="341" y="237"/>
      <point x="509" y="474"/>
      <point x="678" y="710" type="curve"/>
      <point x="589" y="710"/>
      <point x="678" y="722"/>
    </contour>
    <contour>
      <point x="110" y="710" type="curve"/>
      <point x="276" y="473"/>
      <point x="442" y="237"/>
      <point x="610" y="0" type="curve"/>
      <point x="703" y="0"/>
      <point x="610" y="10"/>
      <point x="703" y="10" type="curve"/>
      <point x="534" y="247"/>
      <point x="365" y="484"/>
      <point x="196" y="722" type="curve"/>
      <point x="110" y="722"/>
      <point x="196" y="710"/>
    </contour>
  </outline>
</glyph>
<glyph name="bracketleft" format="1">
  <advance width="323"/>
  <unicode hex="005B"/>
  <outline>
    <contour>
      <point x="278" y="770" type="curve"/>
      <point x="225" y="770"/>
      <point x="171" y="770"/>
      <point x="118" y="770" type="curve"/>
      <point x="108" y="770"/>
      <point x="90" y="770"/>
      <point x="79" y="770" type="curve"/>
      <point x="79" y="760"/>
      <point x="79" y="747"/>
      <point x="79" y="737" type="curve"/>
      <point x="79" y="462"/>
      <point x="79" y="188"/>
      <point x="79" y="-86" type="curve"/>
      <point x="79" y="-96"/>
      <point x="79" y="-107"/>
      <point x="79" y="-118" type="curve"/>
      <point x="89" y="-118"/>
      <point x="106" y="-118"/>
      <point x="117" y="-118" type="curve"/>
      <point x="170" y="-118"/>
      <point x="224" y="-118"/>
      <point x="278" y="-118" type="curve"/>
      <point x="278" y="-40"/>
      <point x="278" y="-118"/>
      <point x="278" y="-40" type="curve"/>
      <point x="224" y="-40"/>
      <point x="170" y="-40"/>
      <point x="117" y="-40" type="curve"/>
      <point x="172" y="-40"/>
      <point x="117" y="-40"/>
      <point x="172" y="-40" type="curve"/>
      <point x="172" y="-86"/>
      <point x="172" y="-40"/>
      <point x="172" y="-86" type="curve"/>
      <point x="172" y="188"/>
      <point x="172" y="462"/>
      <point x="172" y="737" type="curve"/>
      <point x="172" y="692"/>
      <point x="172" y="737"/>
      <point x="172" y="692" type="curve"/>
      <point x="118" y="692"/>
      <point x="172" y="692"/>
      <point x="118" y="692" type="curve"/>
      <point x="171" y="692"/>
      <point x="225" y="692"/>
      <point x="278" y="692" type="curve"/>
      <point x="278" y="770"/>
      <point x="278" y="692"/>
    </contour>
  </outline>
</glyph>
<glyph name="backslash" format="1">
  <advance width="574"/>
  <unicode hex="005C"/>
  <outline>
    <contour>
      <point x="540" y="-68" type="curve"/>
      <point x="404" y="236"/>
      <point x="267" y="540"/>
      <point x="131" y="844" type="curve"/>
      <point x="34" y="844"/>
      <point x="131" y="844"/>
      <point x="34" y="844" type="curve"/>
      <point x="170" y="540"/>
      <point x="307" y="236"/>
      <point x="443" y="-68" type="curve"/>
      <point x="540" y="-68"/>
      <point x="443" y="-68"/>
    </contour>
  </outline>
</glyph>
<glyph name="asciicircum" format="1">
  <advance width="578"/>
  <unicode hex="005E"/>
  <outline>
    <contour>
      <point x="153" y="459" type="curve"/>
      <point x="213" y="566"/>
      <point x="274" y="672"/>
      <point x="335" y="779" type="curve"/>
      <point x="243" y="779"/>
      <point x="334" y="779"/>
      <point x="242" y="779" type="curve"/>
      <point x="181" y="672"/>
      <point x="121" y="566"/>
      <point x="60" y="459" type="curve"/>
      <point x="152" y="459"/>
      <point x="61" y="459"/>
    </contour>
    <contour>
      <point x="518" y="459" type="curve"/>
      <point x="459" y="563"/>
      <point x="395" y="674"/>
      <point x="335" y="779" type="curve"/>
      <point x="243" y="779"/>
      <point x="335" y="779"/>
      <point x="243" y="779" type="curve"/>
      <point x="302" y="674"/>
      <point x="365" y="563"/>
      <point x="426" y="459" type="curve"/>
      <point x="518" y="459"/>
      <point x="426" y="459"/>
    </contour>
  </outline>
</glyph>
<glyph name="underscore" format="1">
  <advance width="711"/>
  <unicode hex="005F"/>
  <outline>
    <contour>
      <point x="0" y="-195" type="curve"/>
      <point x="236" y="-195"/>
      <point x="474" y="-195"/>
      <point x="710" y="-195" type="curve"/>
      <point x="710" y="-125"/>
      <point x="710" y="-195"/>
      <point x="710" y="-125" type="curve"/>
      <point x="474" y="-125"/>
      <point x="236" y="-125"/>
      <point x="0" y="-125" type="curve"/>
      <point x="0" y="-195"/>
      <point x="0" y="-125"/>
    </contour>
  </outline>
</glyph>
<glyph name="grave" format="1">
  <advance width="404"/>
  <unicode hex="0060"/>
  <outline>
    <contour>
      <point x="251" y="574" type="move" name="_top"/>
    </contour>
    <contour>
      <point x="302" y="574" type="line"/>
      <point x="178" y="740" type="line"/>
      <point x="59" y="740" type="line"/>
      <point x="210" y="574" type="line"/>
    </contour>
  </outline>
</glyph>
<glyph name="b" format="1">
  <advance width="703"/>
  <unicode hex="0062"/>
  <outline>
    <contour>
      <point x="170" y="800" type="curve"/>
      <point x="118" y="800"/>
      <point x="75" y="800"/>
      <point x="23" y="800" type="curve"/>
      <point x="22" y="749"/>
      <point x="23" y="780"/>
      <point x="22" y="729" type="curve"/>
      <point x="143" y="729"/>
      <point x="49" y="729"/>
      <point x="170" y="729" type="curve"/>
      <point x="170" y="780"/>
      <point x="170" y="749"/>
    </contour>
    <contour>
      <point x="190" y="363" type="curve"/>
      <point x="231" y="414"/>
      <point x="297" y="464"/>
      <point x="386" y="464" type="curve"/>
      <point x="497" y="464"/>
      <point x="557" y="382"/>
      <point x="557" y="264" type="curve"/>
      <point x="559" y="150"/>
      <point x="494" y="68"/>
      <point x="386" y="69" type="curve"/>
      <point x="307" y="69"/>
      <point x="245" y="103"/>
      <point x="197" y="158" type="curve"/>
      <point x="160" y="133"/>
      <point x="180" y="146"/>
      <point x="145" y="120" type="curve"/>
      <point x="213" y="44"/>
      <point x="287" y="-5"/>
      <point x="399" y="-5" type="curve"/>
      <point x="555" y="-5"/>
      <point x="651" y="102"/>
      <point x="650" y="266" type="curve"/>
      <point x="650" y="430"/>
      <point x="556" y="539"/>
      <point x="399" y="539" type="curve"/>
      <point x="285" y="539"/>
      <point x="206" y="479"/>
      <point x="149" y="409" type="curve"/>
      <point x="178" y="381"/>
      <point x="161" y="392"/>
    </contour>
    <contour>
      <point x="214" y="0" type="curve"/>
      <point x="214" y="279"/>
      <point x="214" y="521"/>
      <point x="214" y="800" type="curve"/>
      <point x="149" y="800"/>
      <point x="186" y="800"/>
      <point x="122" y="800" type="curve"/>
      <point x="122" y="521"/>
      <point x="122" y="279"/>
      <point x="122" y="0" type="curve"/>
      <point x="186" y="0"/>
      <point x="149" y="0"/>
    </contour>
    <contour>
      <point x="170" y="70" type="curve"/>
      <point x="49" y="70"/>
      <point x="143" y="71"/>
      <point x="23" y="71" type="curve"/>
      <point x="23" y="20"/>
      <point x="23" y="51"/>
      <point x="23" y="0" type="curve"/>
      <point x="75" y="0"/>
      <point x="118" y="0"/>
      <point x="170" y="0" type="curve"/>
      <point x="170" y="51"/>
      <point x="170" y="20"/>
    </contour>
  </outline>
</glyph>
<glyph name="f" format="1">
  <advance width="508"/>
  <unicode hex="0066"/>
  <outline>
    <contour>
      <point x="418" y="770" type="curve"/>
      <point x="418" y="644"/>
      <point x="418" y="772"/>
      <point x="418" y="646" type="curve"/>
      <point x="490" y="646"/>
      <point x="418" y="646"/>
      <point x="490" y="646" type="curve"/>
      <point x="490" y="772"/>
      <point x="490" y="644"/>
      <point x="490" y="770" type="curve"/>
      <point x="418" y="770"/>
      <point x="490" y="770"/>
    </contour>
    <contour>
      <point x="220" y="-1" type="curve"/>
      <point x="272" y="-1"/>
      <point x="314" y="0"/>
      <point x="366" y="0" type="curve"/>
      <point x="366" y="71"/>
      <point x="366" y="0"/>
      <point x="366" y="71" type="curve"/>
      <point x="209" y="70"/>
      <point x="376" y="71"/>
      <point x="220" y="70" type="curve"/>
      <point x="220" y="-1"/>
      <point x="220" y="70"/>
    </contour>
    <contour>
      <point x="220" y="70" type="curve"/>
      <point x="62" y="71"/>
      <point x="230" y="70"/>
      <point x="72" y="71" type="curve"/>
      <point x="72" y="0"/>
      <point x="72" y="71"/>
      <point x="72" y="0" type="curve"/>
      <point x="125" y="0"/>
      <point x="168" y="-1"/>
      <point x="220" y="-1" type="curve"/>
      <point x="220" y="70"/>
      <point x="220" y="-1"/>
    </contour>
    <contour>
      <point x="32" y="462" type="curve"/>
      <point x="454" y="462" type="line"/>
      <point x="454" y="533"/>
      <point x="454" y="462"/>
      <point x="454" y="533" type="curve"/>
      <point x="32" y="533" type="line"/>
      <point x="32" y="462"/>
      <point x="32" y="533"/>
    </contour>
    <contour>
      <point x="266" y="0" type="curve"/>
      <point x="266" y="620" type="line"/>
      <point x="266" y="689"/>
      <point x="298" y="735"/>
      <point x="365" y="735" type="curve"/>
      <point x="396" y="735"/>
      <point x="425" y="726"/>
      <point x="453" y="713" type="curve"/>
      <point x="490" y="770"/>
      <point x="453" y="713"/>
      <point x="490" y="770" type="curve"/>
      <point x="451" y="789"/>
      <point x="408" y="803"/>
      <point x="365" y="803" type="curve"/>
      <point x="248" y="803"/>
      <point x="172" y="735"/>
      <point x="174" y="620" type="curve"/>
      <point x="174" y="0" type="line"/>
      <point x="266" y="0"/>
      <point x="174" y="0"/>
    </contour>
  </outline>
</glyph>
<glyph name="g" format="1">
  <advance width="597"/>
  <unicode hex="0067"/>
  <outline>
    <contour>
      <point x="303" y="639" type="move" name="top"/>
    </contour>
    <contour>
      <point x="414" y="464" type="curve"/>
      <point x="577" y="536" type="line"/>
      <point x="574" y="540"/>
      <point x="543" y="600"/>
      <point x="540" y="604" type="curve"/>
      <point x="366" y="516" type="line"/>
      <point x="413" y="463"/>
      <point x="366" y="517"/>
    </contour>
    <contour>
      <point x="170" y="346" type="curve"/>
      <point x="170" y="423"/>
      <point x="226" y="468"/>
      <point x="307" y="468" type="curve"/>
      <point x="387" y="468"/>
      <point x="440" y="423"/>
      <point x="440" y="347" type="curve"/>
      <point x="440" y="274"/>
      <point x="386" y="233"/>
      <point x="307" y="233" type="curve"/>
      <point x="229" y="233"/>
      <point x="170" y="271"/>
      <point x="170" y="346" type="curve"/>
      <point x="78" y="343"/>
      <point x="170" y="346"/>
      <point x="78" y="343" type="curve"/>
      <point x="78" y="224"/>
      <point x="174" y="162"/>
      <point x="301" y="162" type="curve"/>
      <point x="432" y="162"/>
      <point x="532" y="226"/>
      <point x="532" y="350" type="curve"/>
      <point x="532" y="471"/>
      <point x="436" y="538"/>
      <point x="307" y="538" type="curve"/>
      <point x="174" y="538"/>
      <point x="78" y="468"/>
      <point x="78" y="343" type="curve"/>
      <point x="170" y="346"/>
      <point x="78" y="343"/>
    </contour>
    <contour>
      <point x="180" y="238" type="curve"/>
      <point x="124" y="210"/>
      <point x="82" y="174"/>
      <point x="82" y="111" type="curve"/>
      <point x="82" y="10"/>
      <point x="182" y="-16"/>
      <point x="293" y="-24" type="curve"/>
      <point x="397" y="-32"/>
      <point x="499" y="-41"/>
      <point x="499" y="-130" type="curve"/>
      <point x="499" y="-211"/>
      <point x="407" y="-234"/>
      <point x="306" y="-234" type="curve"/>
      <point x="211" y="-234"/>
      <point x="130" y="-201"/>
      <point x="130" y="-116" type="curve"/>
      <point x="130" y="-53"/>
      <point x="167" y="-15"/>
      <point x="221" y="7" type="curve"/>
      <point x="176" y="50"/>
      <point x="221" y="7"/>
      <point x="176" y="50" type="curve"/>
      <point x="95" y="19"/>
      <point x="38" y="-31"/>
      <point x="38" y="-120" type="curve"/>
      <point x="38" y="-253"/>
      <point x="157" y="-304"/>
      <point x="302" y="-304" type="curve"/>
      <point x="454" y="-304"/>
      <point x="585" y="-262"/>
      <point x="583" y="-123" type="curve"/>
      <point x="583" y="11"/>
      <point x="452" y="33"/>
      <point x="310" y="43" type="curve"/>
      <point x="240" y="48"/>
      <point x="174" y="60"/>
      <point x="174" y="118" type="curve"/>
      <point x="174" y="154"/>
      <point x="193" y="176"/>
      <point x="225" y="194" type="curve"/>
      <point x="180" y="238"/>
      <point x="225" y="194"/>
    </contour>
  </outline>
</glyph>
<glyph name="j" format="1">
  <advance width="320"/>
  <unicode hex="006A"/>
  <outline>
    <contour>
      <point x="181" y="533" type="curve"/>
      <point x="129" y="533"/>
      <point x="78" y="533"/>
      <point x="25" y="533" type="curve"/>
      <point x="25" y="462"/>
      <point x="25" y="533"/>
      <point x="25" y="462" type="curve"/>
      <point x="183" y="462"/>
      <point x="23" y="462"/>
      <point x="181" y="462" type="curve"/>
      <point x="181" y="533"/>
      <point x="181" y="462"/>
    </contour>
    <contour>
      <point x="-7" y="-302" type="curve"/>
      <point x="3" y="-303"/>
      <point x="15" y="-305"/>
      <point x="27" y="-305" type="curve"/>
      <point x="142" y="-305"/>
      <point x="228" y="-242"/>
      <point x="228" y="-130" type="curve"/>
      <point x="228" y="92"/>
      <point x="228" y="312"/>
      <point x="228" y="534" type="curve"/>
      <point x="136" y="534"/>
      <point x="228" y="534"/>
      <point x="136" y="534" type="curve"/>
      <point x="136" y="312"/>
      <point x="136" y="92"/>
      <point x="136" y="-130" type="curve"/>
      <point x="136" y="-193"/>
      <point x="94" y="-235"/>
      <point x="31" y="-235" type="curve"/>
      <point x="23" y="-235"/>
      <point x="13" y="-235"/>
      <point x="6" y="-234" type="curve"/>
      <point x="-6" y="-301"/>
      <point x="6" y="-234"/>
    </contour>
    <contour>
      <point x="237" y="681" type="curve"/>
      <point x="237" y="713"/>
      <point x="214" y="729"/>
      <point x="181" y="729" type="curve"/>
      <point x="150" y="729"/>
      <point x="129" y="711"/>
      <point x="129" y="681" type="curve"/>
      <point x="231" y="681"/>
      <point x="135" y="681"/>
      <point x="237" y="681" type="curve"/>
      <point x="237" y="649"/>
      <point x="214" y="634"/>
      <point x="181" y="634" type="curve"/>
      <point x="150" y="634"/>
      <point x="129" y="650"/>
      <point x="129" y="681" type="curve"/>
      <point x="231" y="681"/>
      <point x="135" y="681"/>
    </contour>
  </outline>
</glyph>
<glyph name="k" format="1">
  <advance width="638"/>
  <unicode hex="006B"/>
  <outline>
    <contour>
      <point x="380" y="-18" type="move" name="bottom"/>
    </contour>
    <contour>
      <point x="154" y="70" type="curve"/>
      <point x="-3" y="71"/>
      <point x="164" y="70"/>
      <point x="7" y="71" type="curve"/>
      <point x="7" y="0"/>
      <point x="7" y="71"/>
      <point x="7" y="0" type="curve"/>
      <point x="59" y="0"/>
      <point x="101" y="-1"/>
      <point x="154" y="-1" type="curve"/>
      <point x="154" y="70"/>
      <point x="154" y="-1"/>
    </contour>
    <contour>
      <point x="477" y="-1" type="curve"/>
      <point x="529" y="-1"/>
      <point x="567" y="0"/>
      <point x="620" y="0" type="curve"/>
      <point x="620" y="71"/>
      <point x="620" y="0"/>
      <point x="620" y="71" type="curve"/>
      <point x="461" y="70"/>
      <point x="636" y="71"/>
      <point x="477" y="70" type="curve"/>
      <point x="477" y="-1"/>
      <point x="477" y="70"/>
    </contour>
    <contour>
      <point x="469" y="462" type="curve"/>
      <point x="605" y="462"/>
      <point x="453" y="462"/>
      <point x="588" y="462" type="curve"/>
      <point x="588" y="533"/>
      <point x="588" y="462"/>
      <point x="588" y="533" type="curve"/>
      <point x="543" y="533"/>
      <point x="513" y="533"/>
      <point x="469" y="533" type="curve"/>
      <point x="469" y="462"/>
      <point x="469" y="533"/>
    </contour>
    <contour>
      <point x="154" y="-1" type="curve"/>
      <point x="197" y="-1"/>
      <point x="152" y="-1"/>
      <point x="283" y="0" type="curve"/>
      <point x="283" y="71"/>
      <point x="283" y="0"/>
      <point x="283" y="71" type="curve"/>
      <point x="152" y="70"/>
      <point x="284" y="71"/>
      <point x="154" y="70" type="curve"/>
      <point x="154" y="-1"/>
      <point x="154" y="70"/>
    </contour>
    <contour>
      <point x="481" y="533" type="curve"/>
      <point x="419" y="533"/>
      <point x="360" y="533"/>
      <point x="298" y="533" type="curve"/>
      <point x="298" y="462"/>
      <point x="298" y="533"/>
      <point x="298" y="462" type="curve"/>
      <point x="487" y="462"/>
      <point x="293" y="462"/>
      <point x="481" y="462" type="curve"/>
      <point x="481" y="533"/>
      <point x="481" y="462"/>
    </contour>
    <contour>
      <point x="156" y="799" type="curve"/>
      <point x="103" y="799"/>
      <point x="62" y="800"/>
      <point x="9" y="800" type="curve"/>
      <point x="9" y="729"/>
      <point x="9" y="800"/>
      <point x="9" y="729" type="curve"/>
      <point x="167" y="729"/>
      <point x="-2" y="729"/>
      <point x="156" y="729" type="curve"/>
      <point x="156" y="799"/>
      <point x="156" y="729"/>
    </contour>
    <contour>
      <point x="201" y="0" type="curve"/>
      <point x="201" y="800" type="line"/>
      <point x="109" y="800"/>
      <point x="201" y="800"/>
      <point x="109" y="800" type="curve"/>
      <point x="109" y="533"/>
      <point x="109" y="267"/>
      <point x="109" y="0" type="curve"/>
      <point x="201" y="0"/>
      <point x="109" y="0"/>
    </contour>
    <contour>
      <point x="445" y="533" type="curve"/>
      <point x="176" y="275" type="line"/>
      <point x="285" y="275"/>
      <point x="175" y="275"/>
      <point x="284" y="275" type="curve"/>
      <point x="538" y="507" type="line"/>
      <point x="426" y="507"/>
      <point x="556" y="533"/>
    </contour>
    <contour>
      <point x="559" y="34" type="curve"/>
      <point x="283" y="275" type="line"/>
      <point x="175" y="275"/>
      <point x="284" y="275"/>
      <point x="176" y="275" type="curve"/>
      <point x="471" y="0" type="line"/>
      <point x="580" y="0"/>
      <point x="449" y="34"/>
    </contour>
  </outline>
</glyph>
<glyph name="l" format="1">
  <advance width="345"/>
  <unicode hex="006C"/>
  <outline>
    <contour>
      <point x="173" y="890" type="move" name="top"/>
    </contour>
    <contour>
      <point x="207" y="-13" type="move" name="bottom"/>
    </contour>
    <contour>
      <point x="173" y="70" type="curve"/>
      <point x="15" y="71"/>
      <point x="173" y="70"/>
      <point x="15" y="71" type="curve"/>
      <point x="15" y="0"/>
      <point x="15" y="71"/>
      <point x="15" y="0" type="curve"/>
      <point x="68" y="0"/>
      <point x="120" y="-1"/>
      <point x="173" y="-1" type="curve"/>
      <point x="173" y="71"/>
      <point x="173" y="-1"/>
    </contour>
    <contour>
      <point x="175" y="799" type="curve"/>
      <point x="122" y="799"/>
      <point x="70" y="800"/>
      <point x="17" y="800" type="curve"/>
      <point x="17" y="729"/>
      <point x="17" y="800"/>
      <point x="17" y="729" type="curve"/>
      <point x="175" y="729"/>
      <point x="17" y="729"/>
      <point x="175" y="729" type="curve"/>
      <point x="175" y="799"/>
      <point x="175" y="729"/>
    </contour>
    <contour>
      <point x="173" y="-1" type="curve"/>
      <point x="226" y="-1"/>
      <point x="278" y="0"/>
      <point x="331" y="0" type="curve"/>
      <point x="331" y="71"/>
      <point x="331" y="0"/>
      <point x="331" y="71" type="curve"/>
      <point x="173" y="70"/>
      <point x="331" y="71"/>
      <point x="173" y="70" type="curve"/>
      <point x="173" y="-1"/>
      <point x="173" y="71"/>
    </contour>
    <contour>
      <point x="218" y="0" type="curve"/>
      <point x="218" y="267"/>
      <point x="218" y="533"/>
      <point x="218" y="800" type="curve"/>
      <point x="126" y="800"/>
      <point x="218" y="800"/>
      <point x="126" y="800" type="curve"/>
      <point x="126" y="533"/>
      <point x="126" y="267"/>
      <point x="126" y="0" type="curve"/>
      <point x="218" y="0"/>
      <point x="126" y="0"/>
    </contour>
  </outline>
</glyph>
<glyph name="m" format="1">
  <advance width="1049"/>
  <unicode hex="006D"/>
  <outline>
    <contour>
      <point x="539" y="0" type="curve"/>
      <point x="665" y="0"/>
      <point x="540" y="0"/>
      <point x="665" y="0" type="curve"/>
      <point x="665" y="71"/>
      <point x="665" y="0"/>
      <point x="665" y="71" type="curve"/>
      <point x="540" y="71"/>
      <point x="665" y="71"/>
      <point x="539" y="71" type="curve"/>
      <point x="539" y="0"/>
      <point x="539" y="71"/>
    </contour>
    <contour>
      <point x="887" y="0" type="curve"/>
      <point x="934" y="0"/>
      <point x="979" y="0"/>
      <point x="1025" y="0" type="curve"/>
      <point x="1025" y="71"/>
      <point x="1025" y="0"/>
      <point x="1025" y="71" type="curve"/>
      <point x="885" y="71"/>
      <point x="1028" y="71"/>
      <point x="887" y="71" type="curve"/>
      <point x="887" y="0"/>
      <point x="887" y="71"/>
    </contour>
    <contour>
      <point x="193" y="71" type="curve"/>
      <point x="44" y="71"/>
      <point x="195" y="71"/>
      <point x="46" y="71" type="curve"/>
      <point x="46" y="0"/>
      <point x="46" y="71"/>
      <point x="46" y="0" type="curve"/>
      <point x="96" y="0"/>
      <point x="143" y="0"/>
      <point x="193" y="0" type="curve"/>
      <point x="193" y="71"/>
      <point x="193" y="0"/>
    </contour>
    <contour>
      <point x="193" y="0" type="curve"/>
      <point x="235" y="0"/>
      <point x="189" y="0"/>
      <point x="317" y="0" type="curve"/>
      <point x="317" y="71"/>
      <point x="317" y="0"/>
      <point x="317" y="71" type="curve"/>
      <point x="189" y="71"/>
      <point x="322" y="71"/>
      <point x="193" y="71" type="curve"/>
      <point x="193" y="0"/>
      <point x="193" y="71"/>
    </contour>
    <contour>
      <point x="193" y="533" type="curve"/>
      <point x="143" y="533"/>
      <point x="96" y="533"/>
      <point x="46" y="533" type="curve"/>
      <point x="46" y="462"/>
      <point x="46" y="533"/>
      <point x="46" y="462" type="curve"/>
      <point x="195" y="462"/>
      <point x="44" y="462"/>
      <point x="193" y="462" type="curve"/>
      <point x="193" y="533"/>
      <point x="193" y="462"/>
    </contour>
    <contour>
      <point x="565" y="306" type="curve"/>
      <point x="600" y="394"/>
      <point x="648" y="464"/>
      <point x="730" y="464" type="curve"/>
      <point x="816" y="464"/>
      <point x="839" y="414"/>
      <point x="839" y="322" type="curve"/>
      <point x="839" y="215"/>
      <point x="839" y="108"/>
      <point x="839" y="0" type="curve"/>
      <point x="931" y="0"/>
      <point x="839" y="0"/>
      <point x="931" y="0" type="curve"/>
      <point x="931" y="110"/>
      <point x="931" y="220"/>
      <point x="931" y="330" type="curve"/>
      <point x="931" y="466"/>
      <point x="887" y="538"/>
      <point x="754" y="538" type="curve"/>
      <point x="642" y="538"/>
      <point x="571" y="461"/>
      <point x="526" y="344" type="curve"/>
      <point x="566" y="306"/>
      <point x="525" y="343"/>
    </contour>
    <contour>
      <point x="219" y="307" type="curve"/>
      <point x="253" y="395"/>
      <point x="301" y="465"/>
      <point x="383" y="465" type="curve"/>
      <point x="468" y="465"/>
      <point x="493" y="414"/>
      <point x="493" y="322" type="curve"/>
      <point x="493" y="215"/>
      <point x="493" y="108"/>
      <point x="493" y="0" type="curve"/>
      <point x="585" y="0"/>
      <point x="493" y="0"/>
      <point x="585" y="0" type="curve"/>
      <point x="585" y="110"/>
      <point x="585" y="220"/>
      <point x="585" y="330" type="curve"/>
      <point x="585" y="466"/>
      <point x="542" y="538"/>
      <point x="408" y="538" type="curve"/>
      <point x="295" y="538"/>
      <point x="231" y="464"/>
      <point x="180" y="345" type="curve"/>
      <point x="220" y="308"/>
      <point x="179" y="345"/>
    </contour>
    <contour>
      <point x="239" y="0" type="curve"/>
      <point x="239" y="178"/>
      <point x="239" y="355"/>
      <point x="239" y="533" type="curve"/>
      <point x="146" y="533"/>
      <point x="239" y="533"/>
      <point x="146" y="533" type="curve"/>
      <point x="146" y="355"/>
      <point x="146" y="178"/>
      <point x="146" y="0" type="curve"/>
      <point x="239" y="0"/>
      <point x="146" y="0"/>
    </contour>
  </outline>
</glyph>
<glyph name="o" format="1">
  <advance width="642"/>
  <unicode hex="006F"/>
  <outline>
    <contour>
      <point x="319" y="639" type="move" name="top"/>
    </contour>
    <contour>
      <point x="143" y="267" type="curve"/>
      <point x="143" y="386"/>
      <point x="200" y="466"/>
      <point x="315" y="466" type="curve"/>
      <point x="436" y="466"/>
      <point x="496" y="386"/>
      <point x="496" y="266" type="curve"/>
      <point x="496" y="144"/>
      <point x="437" y="67"/>
      <point x="323" y="67" type="curve"/>
      <point x="202" y="68"/>
      <point x="143" y="145"/>
      <point x="143" y="267" type="curve"/>
      <point x="86" y="267"/>
      <point x="110" y="267"/>
      <point x="53" y="267" type="curve"/>
      <point x="53" y="97"/>
      <point x="150" y="-5"/>
      <point x="319" y="-5" type="curve"/>
      <point x="489" y="-5"/>
      <point x="589" y="95"/>
      <point x="589" y="266" type="curve"/>
      <point x="589" y="434"/>
      <point x="491" y="538"/>
      <point x="320" y="538" type="curve"/>
      <point x="150" y="538"/>
      <point x="53" y="434"/>
      <point x="53" y="267" type="curve"/>
      <point x="110" y="267"/>
      <point x="86" y="267"/>
    </contour>
  </outline>
</glyph>
<glyph name="p" format="1">
  <advance width="693"/>
  <unicode hex="0070"/>
  <outline>
    <contour>
      <point x="156" y="-229" type="curve"/>
      <point x="-4" y="-229"/>
      <point x="167" y="-229"/>
      <point x="7" y="-229" type="curve"/>
      <point x="7" y="-300"/>
      <point x="7" y="-229"/>
      <point x="7" y="-300" type="curve"/>
      <point x="60" y="-300"/>
      <point x="102" y="-300"/>
      <point x="156" y="-300" type="curve"/>
      <point x="156" y="-229"/>
      <point x="156" y="-300"/>
    </contour>
    <contour>
      <point x="156" y="-300" type="curve"/>
      <point x="206" y="-300"/>
      <point x="246" y="-300"/>
      <point x="295" y="-300" type="curve"/>
      <point x="295" y="-229"/>
      <point x="295" y="-300"/>
      <point x="295" y="-229" type="curve"/>
      <point x="145" y="-230"/>
      <point x="306" y="-229"/>
      <point x="156" y="-230" type="curve"/>
      <point x="156" y="-300"/>
      <point x="156" y="-230"/>
    </contour>
    <contour>
      <point x="157" y="533" type="curve"/>
      <point x="103" y="533"/>
      <point x="61" y="533"/>
      <point x="8" y="533" type="curve"/>
      <point x="8" y="462"/>
      <point x="8" y="533"/>
      <point x="8" y="462" type="curve"/>
      <point x="168" y="463"/>
      <point x="-3" y="462"/>
      <point x="157" y="463" type="curve"/>
      <point x="157" y="533"/>
      <point x="157" y="463"/>
    </contour>
    <contour>
      <point x="176" y="347" type="curve"/>
      <point x="218" y="413"/>
      <point x="288" y="468"/>
      <point x="377" y="468" type="curve"/>
      <point x="491" y="468"/>
      <point x="548" y="385"/>
      <point x="548" y="269" type="curve"/>
      <point x="550" y="149"/>
      <point x="490" y="65"/>
      <point x="376" y="66" type="curve"/>
      <point x="295" y="66"/>
      <point x="236" y="99"/>
      <point x="178" y="153" type="curve"/>
      <point x="149" y="127"/>
      <point x="167" y="136"/>
      <point x="137" y="110" type="curve"/>
      <point x="206" y="37"/>
      <point x="283" y="-5"/>
      <point x="389" y="-5" type="curve"/>
      <point x="552" y="-5"/>
      <point x="640" y="109"/>
      <point x="640" y="272" type="curve"/>
      <point x="640" y="429"/>
      <point x="552" y="539"/>
      <point x="394" y="539" type="curve"/>
      <point x="281" y="539"/>
      <point x="197" y="480"/>
      <point x="143" y="402" type="curve"/>
      <point x="166" y="362"/>
      <point x="152" y="386"/>
    </contour>
    <contour>
      <point x="202" y="-300" type="curve"/>
      <point x="202" y="-22"/>
      <point x="202" y="255"/>
      <point x="202" y="533" type="curve"/>
      <point x="110" y="533"/>
      <point x="202" y="533"/>
      <point x="110" y="533" type="curve"/>
      <point x="110" y="255"/>
      <point x="110" y="-22"/>
      <point x="110" y="-300" type="curve"/>
      <point x="202" y="-300"/>
      <point x="110" y="-300"/>
    </contour>
  </outline>
</glyph>
<glyph name="q" format="1">
  <advance width="704"/>
  <unicode hex="0071"/>
  <outline>
    <contour>
      <point x="541" y="462" type="curve"/>
      <point x="655" y="462"/>
      <point x="563" y="462"/>
      <point x="677" y="462" type="curve"/>
      <point x="677" y="512"/>
      <point x="677" y="483"/>
      <point x="677" y="533" type="curve"/>
      <point x="627" y="533"/>
      <point x="591" y="533"/>
      <point x="541" y="533" type="curve"/>
      <point x="541" y="483"/>
      <point x="541" y="512"/>
    </contour>
    <contour>
      <point x="541" y="-230" type="curve"/>
      <point x="417" y="-229"/>
      <point x="517" y="-230"/>
      <point x="393" y="-229" type="curve"/>
      <point x="393" y="-279"/>
      <point x="393" y="-250"/>
      <point x="393" y="-300" type="curve"/>
      <point x="448" y="-300"/>
      <point x="486" y="-300"/>
      <point x="541" y="-300" type="curve"/>
      <point x="541" y="-250"/>
      <point x="541" y="-279"/>
    </contour>
    <contour>
      <point x="541" y="-300" type="curve"/>
      <point x="591" y="-300"/>
      <point x="627" y="-300"/>
      <point x="677" y="-300" type="curve"/>
      <point x="677" y="-250"/>
      <point x="677" y="-279"/>
      <point x="677" y="-229" type="curve"/>
      <point x="562" y="-230"/>
      <point x="655" y="-229"/>
      <point x="541" y="-230" type="curve"/>
      <point x="541" y="-279"/>
      <point x="541" y="-250"/>
    </contour>
    <contour>
      <point x="555" y="410" type="curve"/>
      <point x="490" y="490"/>
      <point x="405" y="538"/>
      <point x="304" y="538" type="curve"/>
      <point x="141" y="538"/>
      <point x="52" y="426"/>
      <point x="53" y="263" type="curve"/>
      <point x="53" y="101"/>
      <point x="146" y="-5"/>
      <point x="309" y="-5" type="curve"/>
      <point x="413" y="-5"/>
      <point x="496" y="52"/>
      <point x="562" y="133" type="curve"/>
      <point x="534" y="162"/>
      <point x="546" y="147"/>
      <point x="518" y="176" type="curve"/>
      <point x="470" y="107"/>
      <point x="402" y="66"/>
      <point x="321" y="66" type="curve"/>
      <point x="207" y="66"/>
      <point x="145" y="148"/>
      <point x="145" y="267" type="curve"/>
      <point x="145" y="384"/>
      <point x="206" y="466"/>
      <point x="319" y="466" type="curve"/>
      <point x="398" y="466"/>
      <point x="467" y="428"/>
      <point x="522" y="363" type="curve"/>
      <point x="544" y="394"/>
      <point x="533" y="379"/>
    </contour>
    <contour>
      <point x="588" y="-300" type="curve"/>
      <point x="588" y="-13"/>
      <point x="588" y="246"/>
      <point x="588" y="533" type="curve"/>
      <point x="521" y="533"/>
      <point x="557" y="533"/>
      <point x="491" y="533" type="curve"/>
      <point x="491" y="246"/>
      <point x="491" y="-13"/>
      <point x="491" y="-300" type="curve"/>
      <point x="557" y="-300"/>
      <point x="521" y="-300"/>
    </contour>
  </outline>
</glyph>
<glyph name="r" format="1">
  <advance width="477"/>
  <unicode hex="0072"/>
  <outline>
    <contour>
      <point x="220" y="639" type="move" name="top"/>
    </contour>
    <contour>
      <point x="220" y="-7" type="move" name="bottom"/>
    </contour>
    <contour>
      <point x="193" y="0" type="curve"/>
      <point x="242" y="0"/>
      <point x="283" y="0"/>
      <point x="332" y="0" type="curve"/>
      <point x="332" y="51"/>
      <point x="332" y="20"/>
      <point x="332" y="71" type="curve"/>
      <point x="219" y="71"/>
      <point x="307" y="71"/>
      <point x="193" y="71" type="curve"/>
      <point x="193" y="20"/>
      <point x="193" y="51"/>
    </contour>
    <contour>
      <point x="193" y="71" type="curve"/>
      <point x="72" y="71"/>
      <point x="167" y="71"/>
      <point x="46" y="71" type="curve"/>
      <point x="46" y="20"/>
      <point x="46" y="51"/>
      <point x="46" y="0" type="curve"/>
      <point x="97" y="0"/>
      <point x="141" y="0"/>
      <point x="193" y="0" type="curve"/>
      <point x="193" y="51"/>
      <point x="193" y="20"/>
    </contour>
    <contour>
      <point x="192" y="533" type="curve"/>
      <point x="140" y="533"/>
      <point x="97" y="533"/>
      <point x="45" y="533" type="curve"/>
      <point x="45" y="482"/>
      <point x="45" y="513"/>
      <point x="45" y="462" type="curve"/>
      <point x="166" y="462"/>
      <point x="71" y="462"/>
      <point x="192" y="462" type="curve"/>
      <point x="192" y="513"/>
      <point x="192" y="482"/>
    </contour>
    <contour>
      <point x="239" y="0" type="curve"/>
      <point x="239" y="185"/>
      <point x="239" y="348"/>
      <point x="239" y="533" type="curve"/>
      <point x="175" y="533"/>
      <point x="211" y="533"/>
      <point x="146" y="533" type="curve"/>
      <point x="146" y="348"/>
      <point x="146" y="185"/>
      <point x="146" y="0" type="curve"/>
      <point x="211" y="0"/>
      <point x="175" y="0"/>
    </contour>
    <contour>
      <point x="216" y="312" type="curve"/>
      <point x="265" y="423"/>
      <point x="349" y="459"/>
      <point x="452" y="459" type="curve"/>
      <point x="452" y="514"/>
      <point x="452" y="483"/>
      <point x="452" y="538" type="curve"/>
      <point x="331" y="538"/>
      <point x="237" y="474"/>
      <point x="185" y="360" type="curve"/>
      <point x="209" y="329"/>
      <point x="193" y="343"/>
    </contour>
  </outline>
</glyph>
<glyph name="t" format="1">
  <advance width="439"/>
  <unicode hex="0074"/>
  <outline>
    <contour>
      <point x="312" y="-13" type="move" name="bottom"/>
    </contour>
    <contour>
      <point x="17" y="462" type="curve"/>
      <point x="410" y="462" type="line"/>
      <point x="410" y="533"/>
      <point x="410" y="462"/>
      <point x="410" y="533" type="curve"/>
      <point x="17" y="533" type="line"/>
      <point x="17" y="462"/>
      <point x="17" y="533"/>
    </contour>
    <contour>
      <point x="386" y="90" type="curve"/>
      <point x="356" y="76"/>
      <point x="335" y="69"/>
      <point x="303" y="69" type="curve"/>
      <point x="247" y="69"/>
      <point x="224" y="101"/>
      <point x="224" y="162" type="curve"/>
      <point x="224" y="682" type="line"/>
      <point x="182" y="656"/>
      <point x="173" y="653"/>
      <point x="132" y="627" type="curve"/>
      <point x="132" y="158" type="line"/>
      <point x="132" y="51"/>
      <point x="189" y="-6"/>
      <point x="293" y="-6" type="curve"/>
      <point x="343" y="-6"/>
      <point x="377" y="8"/>
      <point x="416" y="28" type="curve"/>
      <point x="386" y="90"/>
      <point x="416" y="28"/>
    </contour>
  </outline>
</glyph>
<glyph name="w" format="1">
  <advance width="1042"/>
  <unicode hex="0077"/>
  <outline>
    <contour>
      <point x="895" y="462" type="curve"/>
      <point x="1035" y="462"/>
      <point x="892" y="462"/>
      <point x="1033" y="462" type="curve"/>
      <point x="1033" y="533"/>
      <point x="1033" y="462"/>
      <point x="1033" y="533" type="curve"/>
      <point x="986" y="533"/>
      <point x="941" y="533"/>
      <point x="895" y="533" type="curve"/>
      <point x="895" y="462"/>
      <point x="895" y="533"/>
    </contour>
    <contour>
      <point x="895" y="533" type="curve"/>
      <point x="847" y="533"/>
      <point x="805" y="533"/>
      <point x="758" y="533" type="curve"/>
      <point x="758" y="462"/>
      <point x="758" y="533"/>
      <point x="758" y="462" type="curve"/>
      <point x="900" y="462"/>
      <point x="752" y="462"/>
      <point x="895" y="462" type="curve"/>
      <point x="895" y="533"/>
      <point x="895" y="462"/>
    </contour>
    <contour>
      <point x="149" y="533" type="curve"/>
      <point x="103" y="533"/>
      <point x="57" y="533"/>
      <point x="10" y="533" type="curve"/>
      <point x="10" y="462"/>
      <point x="10" y="533"/>
      <point x="10" y="462" type="curve"/>
      <point x="151" y="462"/>
      <point x="8" y="462"/>
      <point x="149" y="462" type="curve"/>
      <point x="149" y="533"/>
      <point x="149" y="462"/>
    </contour>
    <contour>
      <point x="149" y="462" type="curve"/>
      <point x="291" y="462"/>
      <point x="146" y="462"/>
      <point x="287" y="462" type="curve"/>
      <point x="287" y="533"/>
      <point x="287" y="462"/>
      <point x="287" y="533" type="curve"/>
      <point x="239" y="533"/>
      <point x="197" y="533"/>
      <point x="149" y="533" type="curve"/>
      <point x="149" y="462"/>
      <point x="149" y="533"/>
    </contour>
    <contour>
      <point x="358" y="0" type="curve"/>
      <point x="429" y="178"/>
      <point x="500" y="355"/>
      <point x="570" y="533" type="curve"/>
      <point x="481" y="533"/>
      <point x="570" y="533"/>
      <point x="481" y="533" type="curve"/>
      <point x="411" y="355"/>
      <point x="342" y="178"/>
      <point x="272" y="0" type="curve"/>
      <point x="358" y="0"/>
      <point x="272" y="0"/>
    </contour>
    <contour>
      <point x="874" y="533" type="curve"/>
      <point x="809" y="355"/>
      <point x="744" y="178"/>
      <point x="679" y="0" type="curve"/>
      <point x="765" y="0"/>
      <point x="679" y="0"/>
      <point x="765" y="0" type="curve"/>
      <point x="831" y="178"/>
      <point x="897" y="355"/>
      <point x="964" y="533" type="curve"/>
      <point x="874" y="533"/>
      <point x="964" y="533"/>
    </contour>
    <contour>
      <point x="487" y="533" type="curve"/>
      <point x="551" y="355"/>
      <point x="614" y="178"/>
      <point x="678" y="0" type="curve"/>
      <point x="764" y="0"/>
      <point x="678" y="0"/>
      <point x="764" y="0" type="curve"/>
      <point x="701" y="178"/>
      <point x="638" y="355"/>
      <point x="575" y="533" type="curve"/>
      <point x="487" y="533"/>
      <point x="575" y="533"/>
    </contour>
    <contour>
      <point x="81" y="533" type="curve"/>
      <point x="145" y="355"/>
      <point x="208" y="178"/>
      <point x="271" y="0" type="curve"/>
      <point x="357" y="0"/>
      <point x="271" y="0"/>
      <point x="357" y="0" type="curve"/>
      <point x="295" y="178"/>
      <point x="233" y="355"/>
      <point x="170" y="533" type="curve"/>
      <point x="81" y="533"/>
      <point x="170" y="533"/>
    </contour>
  </outline>
</glyph>
<glyph name="x" format="1">
  <advance width="696"/>
  <unicode hex="0078"/>
  <outline>
    <contour>
      <point x="137" y="71" type="curve"/>
      <point x="3" y="71"/>
      <point x="148" y="71"/>
      <point x="14" y="71" type="curve"/>
      <point x="14" y="0"/>
      <point x="14" y="71"/>
      <point x="14" y="0" type="curve"/>
      <point x="58" y="0"/>
      <point x="92" y="0"/>
      <point x="137" y="0" type="curve"/>
      <point x="137" y="71"/>
      <point x="137" y="0"/>
    </contour>
    <contour>
      <point x="569" y="71" type="curve"/>
      <point x="400" y="71"/>
      <point x="574" y="71"/>
      <point x="405" y="71" type="curve"/>
      <point x="405" y="0"/>
      <point x="405" y="71"/>
      <point x="405" y="0" type="curve"/>
      <point x="462" y="0"/>
      <point x="513" y="0"/>
      <point x="569" y="0" type="curve"/>
      <point x="569" y="71"/>
      <point x="569" y="0"/>
    </contour>
    <contour>
      <point x="564" y="0" type="curve"/>
      <point x="608" y="0"/>
      <point x="644" y="0"/>
      <point x="688" y="0" type="curve"/>
      <point x="688" y="71"/>
      <point x="688" y="0"/>
      <point x="688" y="71" type="curve"/>
      <point x="555" y="71"/>
      <point x="696" y="71"/>
      <point x="564" y="71" type="curve"/>
      <point x="564" y="0"/>
      <point x="564" y="71"/>
    </contour>
    <contour>
      <point x="132" y="0" type="curve"/>
      <point x="189" y="0"/>
      <point x="126" y="0"/>
      <point x="296" y="0" type="curve"/>
      <point x="296" y="71"/>
      <point x="296" y="0"/>
      <point x="296" y="71" type="curve"/>
      <point x="126" y="71"/>
      <point x="302" y="71"/>
      <point x="132" y="71" type="curve"/>
      <point x="132" y="0"/>
      <point x="132" y="71"/>
    </contour>
    <contour>
      <point x="541" y="462" type="curve"/>
      <point x="678" y="462"/>
      <point x="535" y="462"/>
      <point x="671" y="462" type="curve"/>
      <point x="671" y="533"/>
      <point x="671" y="462"/>
      <point x="671" y="533" type="curve"/>
      <point x="626" y="533"/>
      <point x="587" y="533"/>
      <point x="541" y="533" type="curve"/>
      <point x="541" y="462"/>
      <point x="541" y="533"/>
    </contour>
    <contour>
      <point x="169" y="533" type="curve"/>
      <point x="123" y="533"/>
      <point x="85" y="533"/>
      <point x="39" y="533" type="curve"/>
      <point x="39" y="462"/>
      <point x="39" y="533"/>
      <point x="39" y="462" type="curve"/>
      <point x="179" y="462"/>
      <point x="30" y="462"/>
      <point x="169" y="462" type="curve"/>
      <point x="169" y="533"/>
      <point x="169" y="462"/>
    </contour>
    <contour>
      <point x="153" y="462" type="curve"/>
      <point x="316" y="462"/>
      <point x="141" y="462"/>
      <point x="303" y="462" type="curve"/>
      <point x="303" y="533"/>
      <point x="303" y="462"/>
      <point x="303" y="533" type="curve"/>
      <point x="250" y="533"/>
      <point x="208" y="533"/>
      <point x="153" y="533" type="curve"/>
      <point x="153" y="462"/>
      <point x="153" y="533"/>
    </contour>
    <contour>
      <point x="549" y="533" type="curve"/>
      <point x="497" y="533"/>
      <point x="457" y="533"/>
      <point x="404" y="533" type="curve"/>
      <point x="404" y="462"/>
      <point x="404" y="533"/>
      <point x="404" y="462" type="curve"/>
      <point x="562" y="462"/>
      <point x="392" y="462"/>
      <point x="549" y="462" type="curve"/>
      <point x="549" y="533"/>
      <point x="549" y="462"/>
    </contour>
    <contour>
      <point x="615" y="26" type="curve"/>
      <point x="547" y="109"/>
      <point x="242" y="450"/>
      <point x="174" y="533" type="curve"/>
      <point x="91" y="533"/>
      <point x="184" y="505"/>
      <point x="102" y="505" type="curve"/>
      <point x="170" y="422"/>
      <point x="468" y="83"/>
      <point x="535" y="0" type="curve"/>
      <point x="625" y="0"/>
      <point x="524" y="26"/>
    </contour>
    <contour>
      <point x="537" y="533" type="curve"/>
      <point x="468" y="450"/>
      <point x="154" y="111"/>
      <point x="85" y="28" type="curve"/>
      <point x="175" y="28"/>
      <point x="75" y="0"/>
      <point x="165" y="0" type="curve"/>
      <point x="234" y="83"/>
      <point x="537" y="421"/>
      <point x="606" y="504" type="curve"/>
      <point x="522" y="504"/>
      <point x="620" y="533"/>
    </contour>
  </outline>
</glyph>
<glyph name="y" format="1">
  <advance width="749"/>
  <unicode hex="0079"/>
  <outline>
    <contour>
      <point x="377" y="639" type="move" name="top"/>
    </contour>
    <contour>
      <point x="238" y="-229" type="curve"/>
      <point x="109" y="-229"/>
      <point x="240" y="-229"/>
      <point x="111" y="-229" type="curve"/>
      <point x="111" y="-300"/>
      <point x="111" y="-229"/>
      <point x="111" y="-300" type="curve"/>
      <point x="154" y="-300"/>
      <point x="195" y="-300"/>
      <point x="238" y="-300" type="curve"/>
      <point x="238" y="-229"/>
      <point x="238" y="-300"/>
    </contour>
    <contour>
      <point x="155" y="533" type="curve"/>
      <point x="108" y="533"/>
      <point x="61" y="533"/>
      <point x="14" y="533" type="curve"/>
      <point x="14" y="462"/>
      <point x="14" y="533"/>
      <point x="14" y="462" type="curve"/>
      <point x="157" y="463"/>
      <point x="12" y="462"/>
      <point x="155" y="463" type="curve"/>
      <point x="155" y="533"/>
      <point x="155" y="463"/>
    </contour>
    <contour>
      <point x="155" y="463" type="curve"/>
      <point x="305" y="462"/>
      <point x="153" y="463"/>
      <point x="303" y="462" type="curve"/>
      <point x="303" y="533"/>
      <point x="303" y="462"/>
      <point x="303" y="533" type="curve"/>
      <point x="253" y="533"/>
      <point x="206" y="533"/>
      <point x="155" y="533" type="curve"/>
      <point x="155" y="463"/>
      <point x="155" y="533"/>
    </contour>
    <contour>
      <point x="605" y="533" type="curve"/>
      <point x="554" y="533"/>
      <point x="504" y="533"/>
      <point x="453" y="533" type="curve"/>
      <point x="453" y="462"/>
      <point x="453" y="533"/>
      <point x="453" y="462" type="curve"/>
      <point x="607" y="463"/>
      <point x="451" y="462"/>
      <point x="605" y="463" type="curve"/>
      <point x="605" y="533"/>
      <point x="605" y="463"/>
    </contour>
    <contour>
      <point x="605" y="463" type="curve"/>
      <point x="742" y="462"/>
      <point x="603" y="463"/>
      <point x="741" y="462" type="curve"/>
      <point x="741" y="533"/>
      <point x="741" y="462"/>
      <point x="741" y="533" type="curve"/>
      <point x="695" y="533"/>
      <point x="650" y="533"/>
      <point x="605" y="533" type="curve"/>
      <point x="605" y="463"/>
      <point x="605" y="533"/>
    </contour>
    <contour>
      <point x="408" y="-5" type="curve"/>
      <point x="367" y="86"/>
      <point x="220" y="443"/>
      <point x="179" y="533" type="curve"/>
      <point x="83" y="533"/>
      <point x="179" y="533"/>
      <point x="83" y="533" type="curve"/>
      <point x="126" y="443"/>
      <point x="281" y="78"/>
      <point x="325" y="-11" type="curve"/>
      <point x="408" y="-11"/>
      <point x="325" y="-5"/>
    </contour>
    <contour>
      <point x="274" y="-300" type="curve"/>
      <point x="344" y="-162"/>
      <point x="602" y="395"/>
      <point x="673" y="533" type="curve"/>
      <point x="578" y="533"/>
      <point x="673" y="533"/>
      <point x="578" y="533" type="curve"/>
      <point x="507" y="395"/>
      <point x="249" y="-162"/>
      <point x="178" y="-300" type="curve"/>
      <point x="274" y="-300"/>
      <point x="178" y="-300"/>
    </contour>
  </outline>
</glyph>
<glyph name="braceleft" format="1">
  <advance width="330"/>
  <unicode hex="007B"/>
  <outline>
    <contour>
      <point x="280" y="-45" type="curve"/>
      <point x="225" y="-45"/>
      <point x="201" y="-7"/>
      <point x="201" y="48" type="curve"/>
      <point x="201" y="103"/>
      <point x="201" y="157"/>
      <point x="201" y="212" type="curve"/>
      <point x="201" y="312"/>
      <point x="139" y="377"/>
      <point x="39" y="377" type="curve"/>
      <point x="39" y="303"/>
      <point x="39" y="377"/>
      <point x="39" y="303" type="curve"/>
      <point x="90" y="303"/>
      <point x="117" y="270"/>
      <point x="117" y="219" type="curve"/>
      <point x="117" y="163"/>
      <point x="117" y="107"/>
      <point x="117" y="52" type="curve"/>
      <point x="117" y="-51"/>
      <point x="178" y="-114"/>
      <point x="280" y="-114" type="curve"/>
      <point x="280" y="-45"/>
      <point x="280" y="-114"/>
    </contour>
    <contour>
      <point x="280" y="794" type="curve"/>
      <point x="178" y="794"/>
      <point x="117" y="732"/>
      <point x="117" y="630" type="curve"/>
      <point x="117" y="573"/>
      <point x="117" y="516"/>
      <point x="117" y="458" type="curve"/>
      <point x="117" y="408"/>
      <point x="89" y="377"/>
      <point x="39" y="377" type="curve"/>
      <point x="39" y="303"/>
      <point x="39" y="377"/>
      <point x="39" y="303" type="curve"/>
      <point x="140" y="303"/>
      <point x="201" y="366"/>
      <point x="201" y="469" type="curve"/>
      <point x="201" y="522"/>
      <point x="201" y="576"/>
      <point x="201" y="630" type="curve"/>
      <point x="201" y="686"/>
      <point x="225" y="724"/>
      <point x="280" y="724" type="curve"/>
      <point x="280" y="794"/>
      <point x="280" y="724"/>
    </contour>
  </outline>
</glyph>
<glyph name="braceright" format="1">
  <advance width="331"/>
  <unicode hex="007D"/>
  <outline>
    <contour>
      <point x="50" y="-115" type="curve"/>
      <point x="153" y="-115"/>
      <point x="213" y="-51"/>
      <point x="213" y="52" type="curve"/>
      <point x="213" y="107"/>
      <point x="213" y="163"/>
      <point x="213" y="219" type="curve"/>
      <point x="213" y="270"/>
      <point x="240" y="303"/>
      <point x="292" y="303" type="curve"/>
      <point x="292" y="377"/>
      <point x="292" y="303"/>
      <point x="292" y="377" type="curve"/>
      <point x="191" y="377"/>
      <point x="130" y="312"/>
      <point x="130" y="212" type="curve"/>
      <point x="130" y="157"/>
      <point x="130" y="103"/>
      <point x="130" y="48" type="curve"/>
      <point x="130" y="-7"/>
      <point x="105" y="-45"/>
      <point x="50" y="-45" type="curve"/>
      <point x="50" y="-115"/>
      <point x="50" y="-45"/>
    </contour>
    <contour>
      <point x="50" y="723" type="curve"/>
      <point x="105" y="723"/>
      <point x="129" y="686"/>
      <point x="129" y="630" type="curve"/>
      <point x="129" y="576"/>
      <point x="129" y="522"/>
      <point x="129" y="469" type="curve"/>
      <point x="129" y="366"/>
      <point x="190" y="303"/>
      <point x="292" y="303" type="curve"/>
      <point x="292" y="377"/>
      <point x="292" y="303"/>
      <point x="292" y="377" type="curve"/>
      <point x="240" y="377"/>
      <point x="213" y="407"/>
      <point x="213" y="458" type="curve"/>
      <point x="213" y="516"/>
      <point x="213" y="573"/>
      <point x="213" y="630" type="curve"/>
      <point x="213" y="732"/>
      <point x="153" y="794"/>
      <point x="50" y="794" type="curve"/>
      <point x="50" y="723"/>
      <point x="50" y="794"/>
    </contour>
  </outline>
</glyph>
<glyph name="asciitilde" format="1">
  <advance width="721"/>
  <unicode hex="007E"/>
  <outline>
    <contour>
      <point x="574" y="364" type="curve"/>
      <point x="557" y="318"/>
      <point x="537" y="277"/>
      <point x="489" y="277" type="curve"/>
      <point x="446" y="277"/>
      <point x="420" y="288"/>
      <point x="386" y="313" type="curve"/>
      <point x="337" y="351"/>
      <point x="302" y="372"/>
      <point x="241" y="372" type="curve"/>
      <point x="147" y="372"/>
      <point x="102" y="324"/>
      <point x="75" y="237" type="curve"/>
      <point x="107" y="224"/>
      <point x="112" y="222"/>
      <point x="145" y="209" type="curve"/>
      <point x="160" y="260"/>
      <point x="184" y="299"/>
      <point x="237" y="299" type="curve"/>
      <point x="275" y="299"/>
      <point x="297" y="288"/>
      <point x="327" y="265" type="curve"/>
      <point x="380" y="226"/>
      <point x="418" y="206"/>
      <point x="484" y="205" type="curve"/>
      <point x="575" y="205"/>
      <point x="615" y="255"/>
      <point x="646" y="336" type="curve"/>
      <point x="612" y="349"/>
      <point x="608" y="351"/>
    </contour>
  </outline>
</glyph>
<glyph name="exclamdown" format="1">
  <advance width="258"/>
  <unicode hex="00A1"/>
  <outline>
    <contour>
      <point x="89" y="304" type="line"/>
      <point x="78" y="-189" type="line"/>
      <point x="179" y="-189" type="line"/>
      <point x="170" y="304" type="line"/>
    </contour>
    <contour>
      <point x="76" y="494" type="curve"/>
      <point x="75" y="462"/>
      <point x="98" y="446"/>
      <point x="130" y="446" type="curve"/>
      <point x="161" y="446"/>
      <point x="183" y="463"/>
      <point x="183" y="494" type="curve"/>
      <point x="82" y="494"/>
      <point x="177" y="494"/>
      <point x="76" y="494" type="curve"/>
      <point x="76" y="526"/>
      <point x="98" y="541"/>
      <point x="130" y="541" type="curve"/>
      <point x="162" y="541"/>
      <point x="183" y="525"/>
      <point x="183" y="494" type="curve"/>
      <point x="82" y="494"/>
      <point x="177" y="494"/>
    </contour>
  </outline>
</glyph>
<glyph name="sterling" format="1">
  <advance width="545"/>
  <unicode hex="00A3"/>
  <outline>
    <contour>
      <point x="472" y="71" type="curve"/>
      <point x="331" y="71"/>
      <point x="190" y="71"/>
      <point x="50" y="71" type="curve"/>
      <point x="50" y="0"/>
      <point x="50" y="71"/>
      <point x="50" y="0" type="curve"/>
      <point x="190" y="0"/>
      <point x="332" y="0"/>
      <point x="472" y="0" type="curve"/>
      <point x="472" y="71"/>
      <point x="472" y="0"/>
    </contour>
    <contour>
      <point x="421" y="411" type="curve"/>
      <point x="310" y="411"/>
      <point x="195" y="411"/>
      <point x="84" y="411" type="curve"/>
      <point x="84" y="341"/>
      <point x="84" y="411"/>
      <point x="84" y="341" type="curve"/>
      <point x="195" y="341"/>
      <point x="310" y="341"/>
      <point x="421" y="341" type="curve"/>
      <point x="421" y="411"/>
      <point x="421" y="341"/>
    </contour>
    <contour>
      <point x="497" y="668" type="curve"/>
      <point x="446" y="707"/>
      <point x="404" y="722"/>
      <point x="342" y="722" type="curve"/>
      <point x="173" y="722"/>
      <point x="111" y="561"/>
      <point x="155" y="369" type="curve"/>
      <point x="190" y="211"/>
      <point x="168" y="71"/>
      <point x="50" y="71" type="curve"/>
      <point x="50" y="0"/>
      <point x="50" y="71"/>
      <point x="50" y="0" type="curve"/>
      <point x="235" y="0"/>
      <point x="289" y="176"/>
      <point x="243" y="383" type="curve"/>
      <point x="211" y="526"/>
      <point x="236" y="654"/>
      <point x="338" y="654" type="curve"/>
      <point x="384" y="654"/>
      <point x="413" y="640"/>
      <point x="451" y="615" type="curve"/>
      <point x="497" y="668"/>
      <point x="451" y="615"/>
    </contour>
  </outline>
</glyph>
<glyph name="yen" format="1">
  <advance width="800"/>
  <unicode hex="00A5"/>
  <outline>
    <contour>
      <point x="629" y="407" type="curve"/>
      <point x="556" y="407"/>
      <point x="483" y="407"/>
      <point x="409" y="407" type="curve"/>
      <point x="409" y="329"/>
      <point x="409" y="407"/>
      <point x="409" y="329" type="curve"/>
      <point x="483" y="329"/>
      <point x="556" y="329"/>
      <point x="629" y="329" type="curve"/>
      <point x="629" y="407"/>
      <point x="629" y="329"/>
    </contour>
    <contour>
      <point x="379" y="407" type="curve"/>
      <point x="307" y="407"/>
      <point x="235" y="407"/>
      <point x="163" y="407" type="curve"/>
      <point x="163" y="329"/>
      <point x="163" y="407"/>
      <point x="163" y="329" type="curve"/>
      <point x="235" y="329"/>
      <point x="307" y="329"/>
      <point x="379" y="329" type="curve"/>
      <point x="379" y="407"/>
      <point x="379" y="329"/>
    </contour>
    <contour>
      <point x="629" y="267" type="curve"/>
      <point x="474" y="267"/>
      <point x="318" y="267"/>
      <point x="163" y="267" type="curve"/>
      <point x="163" y="189"/>
      <point x="163" y="267"/>
      <point x="163" y="189" type="curve"/>
      <point x="318" y="189"/>
      <point x="474" y="189"/>
      <point x="629" y="189" type="curve"/>
      <point x="629" y="267"/>
      <point x="629" y="189"/>
    </contour>
    <contour>
      <point x="392" y="71" type="curve"/>
      <point x="236" y="71"/>
      <point x="394" y="71"/>
      <point x="238" y="71" type="curve"/>
      <point x="238" y="0"/>
      <point x="238" y="71"/>
      <point x="238" y="0" type="curve"/>
      <point x="290" y="0"/>
      <point x="340" y="0"/>
      <point x="392" y="0" type="curve"/>
      <point x="392" y="71"/>
      <point x="392" y="0"/>
    </contour>
    <contour>
      <point x="392" y="0" type="curve"/>
      <point x="445" y="0"/>
      <point x="495" y="0"/>
      <point x="547" y="0" type="curve"/>
      <point x="547" y="71"/>
      <point x="547" y="0"/>
      <point x="547" y="71" type="curve"/>
      <point x="391" y="70"/>
      <point x="549" y="71"/>
      <point x="392" y="70" type="curve"/>
      <point x="392" y="0"/>
      <point x="392" y="70"/>
    </contour>
    <contour>
      <point x="616" y="722" type="curve"/>
      <point x="564" y="722"/>
      <point x="515" y="722"/>
      <point x="464" y="722" type="curve"/>
      <point x="464" y="652"/>
      <point x="464" y="722"/>
      <point x="464" y="652" type="curve"/>
      <point x="618" y="652"/>
      <point x="462" y="652"/>
      <point x="616" y="652" type="curve"/>
      <point x="616" y="722"/>
      <point x="616" y="652"/>
    </contour>
    <contour>
      <point x="177" y="722" type="curve"/>
      <point x="130" y="722"/>
      <point x="84" y="722"/>
      <point x="37" y="722" type="curve"/>
      <point x="37" y="652"/>
      <point x="37" y="722"/>
      <point x="37" y="652" type="curve"/>
      <point x="179" y="652"/>
      <point x="35" y="652"/>
      <point x="177" y="652" type="curve"/>
      <point x="177" y="722"/>
      <point x="177" y="652"/>
    </contour>
    <contour>
      <point x="182" y="652" type="curve"/>
      <point x="336" y="652"/>
      <point x="180" y="652"/>
      <point x="334" y="652" type="curve"/>
      <point x="334" y="722"/>
      <point x="334" y="652"/>
      <point x="334" y="722" type="curve"/>
      <point x="283" y="722"/>
      <point x="233" y="722"/>
      <point x="182" y="722" type="curve"/>
      <point x="182" y="652"/>
      <point x="182" y="722"/>
    </contour>
    <contour>
      <point x="621" y="652" type="curve"/>
      <point x="764" y="652"/>
      <point x="619" y="652"/>
      <point x="762" y="652" type="curve"/>
      <point x="762" y="722"/>
      <point x="762" y="652"/>
      <point x="762" y="722" type="curve"/>
      <point x="714" y="722"/>
      <point x="669" y="722"/>
      <point x="621" y="722" type="curve"/>
      <point x="621" y="652"/>
      <point x="621" y="722"/>
    </contour>
    <contour>
      <point x="110" y="710" type="curve"/>
      <point x="188" y="586"/>
      <point x="266" y="461"/>
      <point x="344" y="337" type="curve"/>
      <point x="437" y="337"/>
      <point x="339" y="337"/>
      <point x="432" y="337" type="curve"/>
      <point x="353" y="466"/>
      <point x="274" y="593"/>
      <point x="194" y="722" type="curve"/>
      <point x="110" y="722"/>
      <point x="194" y="710"/>
    </contour>
    <contour>
      <point x="604" y="722" type="curve"/>
      <point x="519" y="592"/>
      <point x="436" y="466"/>
      <point x="350" y="337" type="curve"/>
      <point x="443" y="337"/>
      <point x="348" y="337"/>
      <point x="441" y="337" type="curve"/>
      <point x="524" y="462"/>
      <point x="606" y="586"/>
      <point x="689" y="710" type="curve"/>
      <point x="604" y="710"/>
      <point x="689" y="722"/>
    </contour>
    <contour>
      <point x="442" y="0" type="curve"/>
      <point x="442" y="114"/>
      <point x="442" y="227"/>
      <point x="442" y="341" type="curve"/>
      <point x="343" y="341"/>
      <point x="442" y="341"/>
      <point x="343" y="341" type="curve"/>
      <point x="343" y="227"/>
      <point x="343" y="114"/>
      <point x="343" y="0" type="curve"/>
      <point x="442" y="0"/>
      <point x="343" y="0"/>
    </contour>
  </outline>
</glyph>
<glyph name="brokenbar" format="1">
  <advance width="275"/>
  <unicode hex="00A6"/>
  <outline>
    <contour>
      <point x="183" y="-300" type="curve"/>
      <point x="183" y="-176"/>
      <point x="183" y="-52"/>
      <point x="183" y="72" type="curve"/>
      <point x="92" y="72"/>
      <point x="183" y="72"/>
      <point x="92" y="72" type="curve"/>
      <point x="92" y="-52"/>
      <point x="92" y="-176"/>
      <point x="92" y="-300" type="curve"/>
      <point x="183" y="-300"/>
      <point x="92" y="-300"/>
    </contour>
    <contour>
      <point x="183" y="428" type="curve"/>
      <point x="183" y="552"/>
      <point x="183" y="676"/>
      <point x="183" y="800" type="curve"/>
      <point x="92" y="800"/>
      <point x="183" y="800"/>
      <point x="92" y="800" type="curve"/>
      <point x="92" y="676"/>
      <point x="92" y="552"/>
      <point x="92" y="428" type="curve"/>
      <point x="183" y="428"/>
      <point x="92" y="428"/>
    </contour>
  </outline>
</glyph>
<glyph name="section" format="1">
  <advance width="552"/>
  <unicode hex="00A7"/>
  <outline>
    <contour>
      <point x="445" y="705" type="curve"/>
      <point x="387" y="734"/>
      <point x="343" y="750"/>
      <point x="279" y="750" type="curve"/>
      <point x="172" y="750"/>
      <point x="96" y="704"/>
      <point x="96" y="608" type="curve"/>
      <point x="96" y="522"/>
      <point x="157" y="480"/>
      <point x="242" y="452" type="curve"/>
      <point x="319" y="428"/>
      <point x="402" y="423"/>
      <point x="402" y="358" type="curve"/>
      <point x="402" y="298"/>
      <point x="354" y="270"/>
      <point x="287" y="258" type="curve"/>
      <point x="341" y="201"/>
      <point x="287" y="258"/>
      <point x="341" y="201" type="curve"/>
      <point x="434" y="222"/>
      <point x="494" y="270"/>
      <point x="494" y="361" type="curve"/>
      <point x="493" y="467"/>
      <point x="396" y="488"/>
      <point x="288" y="519" type="curve"/>
      <point x="234" y="536"/>
      <point x="186" y="556"/>
      <point x="186" y="608" type="curve"/>
      <point x="186" y="655"/>
      <point x="221" y="679"/>
      <point x="275" y="679" type="curve"/>
      <point x="326" y="679"/>
      <point x="358" y="669"/>
      <point x="406" y="646" type="curve"/>
      <point x="445" y="705"/>
      <point x="406" y="646"/>
    </contour>
    <contour>
      <point x="209" y="522" type="curve"/>
      <point x="122" y="496"/>
      <point x="61" y="454"/>
      <point x="61" y="366" type="curve"/>
      <point x="61" y="267"/>
      <point x="145" y="235"/>
      <point x="247" y="206" type="curve"/>
      <point x="310" y="185"/>
      <point x="373" y="172"/>
      <point x="373" y="116" type="curve"/>
      <point x="373" y="68"/>
      <point x="333" y="43"/>
      <point x="279" y="43" type="curve"/>
      <point x="222" y="43"/>
      <point x="185" y="58"/>
      <point x="132" y="87" type="curve"/>
      <point x="86" y="33"/>
      <point x="132" y="87"/>
      <point x="86" y="33" type="curve"/>
      <point x="149" y="-10"/>
      <point x="201" y="-27"/>
      <point x="275" y="-27" type="curve"/>
      <point x="383" y="-27"/>
      <point x="464" y="17"/>
      <point x="464" y="118" type="curve"/>
      <point x="463" y="207"/>
      <point x="395" y="246"/>
      <point x="305" y="272" type="curve"/>
      <point x="230" y="296"/>
      <point x="153" y="305"/>
      <point x="153" y="370" type="curve"/>
      <point x="153" y="427"/>
      <point x="196" y="451"/>
      <point x="255" y="469" type="curve"/>
      <point x="209" y="522"/>
      <point x="255" y="469"/>
    </contour>
    <contour>
      <point x="158" y="33" type="curve"/>
      <point x="158" y="153"/>
      <point x="158" y="35"/>
      <point x="158" y="155" type="curve"/>
      <point x="86" y="155"/>
      <point x="158" y="155"/>
      <point x="86" y="155" type="curve"/>
      <point x="86" y="35"/>
      <point x="86" y="153"/>
      <point x="86" y="33" type="curve"/>
      <point x="158" y="33"/>
      <point x="86" y="33"/>
    </contour>
    <contour>
      <point x="445" y="583" type="curve"/>
      <point x="445" y="703"/>
      <point x="445" y="585"/>
      <point x="445" y="705" type="curve"/>
      <point x="372" y="705"/>
      <point x="445" y="705"/>
      <point x="372" y="705" type="curve"/>
      <point x="372" y="585"/>
      <point x="372" y="703"/>
      <point x="372" y="583" type="curve"/>
      <point x="445" y="583"/>
      <point x="372" y="583"/>
    </contour>
  </outline>
</glyph>
<glyph name="dieresis" format="1">
  <advance width="402"/>
  <unicode hex="00A8"/>
  <outline>
    <contour>
      <point x="181" y="597" type="move" name="_top"/>
    </contour>
    <contour>
      <point x="146" y="641" type="curve"/>
      <point x="146" y="673"/>
      <point x="124" y="689"/>
      <point x="92" y="689" type="curve"/>
      <point x="60" y="689"/>
      <point x="39" y="671"/>
      <point x="39" y="641" type="curve"/>
      <point x="140" y="641"/>
      <point x="45" y="641"/>
      <point x="146" y="641" type="curve"/>
      <point x="146" y="609"/>
      <point x="124" y="594"/>
      <point x="91" y="594" type="curve"/>
      <point x="59" y="594"/>
      <point x="39" y="610"/>
      <point x="39" y="641" type="curve"/>
      <point x="140" y="641"/>
      <point x="45" y="641"/>
    </contour>
    <contour>
      <point x="323" y="641" type="curve"/>
      <point x="323" y="673"/>
      <point x="300" y="689"/>
      <point x="268" y="689" type="curve"/>
      <point x="237" y="689"/>
      <point x="216" y="671"/>
      <point x="216" y="641" type="curve"/>
      <point x="317" y="641"/>
      <point x="222" y="641"/>
      <point x="323" y="641" type="curve"/>
      <point x="323" y="609"/>
      <point x="301" y="594"/>
      <point x="268" y="594" type="curve"/>
      <point x="236" y="594"/>
      <point x="216" y="610"/>
      <point x="216" y="641" type="curve"/>
      <point x="317" y="641"/>
      <point x="222" y="641"/>
    </contour>
  </outline>
</glyph>
<glyph name="copyright" format="1">
  <advance width="828"/>
  <unicode hex="00A9"/>
  <outline>
    <contour>
      <point x="137" y="322" type="curve"/>
      <point x="137" y="485"/>
      <point x="252" y="587"/>
      <point x="418" y="587" type="curve"/>
      <point x="581" y="587"/>
      <point x="693" y="483"/>
      <point x="693" y="320" type="curve"/>
      <point x="693" y="162"/>
      <point x="585" y="60"/>
      <point x="426" y="60" type="curve"/>
      <point x="259" y="60"/>
      <point x="137" y="157"/>
      <point x="137" y="322" type="curve"/>
      <point x="61" y="322"/>
      <point x="138" y="322"/>
      <point x="61" y="322" type="curve"/>
      <point x="61" y="121"/>
      <point x="214" y="2"/>
      <point x="423" y="2" type="curve"/>
      <point x="625" y="2"/>
      <point x="767" y="125"/>
      <point x="767" y="323" type="curve"/>
      <point x="767" y="522"/>
      <point x="622" y="645"/>
      <point x="418" y="645" type="curve"/>
      <point x="212" y="645"/>
      <point x="61" y="524"/>
      <point x="61" y="322" type="curve"/>
      <point x="138" y="322"/>
      <point x="61" y="322"/>
    </contour>
    <contour>
      <point x="494" y="432" type="curve"/>
      <point x="494" y="415"/>
      <point x="494" y="396"/>
      <point x="494" y="377" type="curve"/>
      <point x="563" y="377"/>
      <point x="495" y="377"/>
      <point x="564" y="377" type="curve"/>
      <point x="564" y="406"/>
      <point x="564" y="438"/>
      <point x="564" y="466" type="curve"/>
      <point x="495" y="434"/>
      <point x="563" y="463"/>
    </contour>
    <contour>
      <point x="564" y="466" type="curve"/>
      <point x="521" y="494"/>
      <point x="479" y="506"/>
      <point x="424" y="506" type="curve"/>
      <point x="305" y="506"/>
      <point x="229" y="438"/>
      <point x="229" y="321" type="curve"/>
      <point x="229" y="209"/>
      <point x="296" y="142"/>
      <point x="409" y="142" type="curve"/>
      <point x="473" y="142"/>
      <point x="518" y="152"/>
      <point x="570" y="194" type="curve"/>
      <point x="528" y="235"/>
      <point x="570" y="194"/>
      <point x="528" y="235" type="curve"/>
      <point x="487" y="210"/>
      <point x="457" y="200"/>
      <point x="412" y="200" type="curve"/>
      <point x="340" y="200"/>
      <point x="303" y="249"/>
      <point x="303" y="324" type="curve"/>
      <point x="303" y="400"/>
      <point x="345" y="447"/>
      <point x="421" y="447" type="curve"/>
      <point x="452" y="447"/>
      <point x="473" y="441"/>
      <point x="494" y="432" type="curve"/>
      <point x="563" y="463"/>
      <point x="495" y="434"/>
    </contour>
  </outline>
</glyph>
<glyph name="guillemotleft" format="1">
  <advance width="620"/>
  <unicode hex="00AB"/>
  <outline>
    <contour>
      <point x="292" y="444" type="curve"/>
      <point x="260" y="426"/>
      <point x="93" y="342"/>
      <point x="62" y="324" type="curve"/>
      <point x="62" y="246"/>
      <point x="62" y="318"/>
      <point x="62" y="241" type="curve"/>
      <point x="93" y="260"/>
      <point x="260" y="346"/>
      <point x="292" y="365" type="curve"/>
      <point x="292" y="442"/>
      <point x="292" y="368"/>
    </contour>
    <contour>
      <point x="292" y="201" type="curve"/>
      <point x="261" y="219"/>
      <point x="93" y="305"/>
      <point x="62" y="324" type="curve"/>
      <point x="62" y="246"/>
      <point x="62" y="318"/>
      <point x="62" y="241" type="curve"/>
      <point x="93" y="222"/>
      <point x="261" y="140"/>
      <point x="292" y="121" type="curve"/>
      <point x="292" y="199"/>
      <point x="292" y="124"/>
    </contour>
    <contour>
      <point x="535" y="444" type="curve"/>
      <point x="504" y="426"/>
      <point x="336" y="342"/>
      <point x="304" y="324" type="curve"/>
      <point x="304" y="246"/>
      <point x="304" y="318"/>
      <point x="304" y="241" type="curve"/>
      <point x="336" y="260"/>
      <point x="504" y="346"/>
      <point x="535" y="365" type="curve"/>
      <point x="535" y="442"/>
      <point x="535" y="368"/>
    </contour>
    <contour>
      <point x="535" y="201" type="curve"/>
      <point x="504" y="219"/>
      <point x="336" y="305"/>
      <point x="304" y="324" type="curve"/>
      <point x="304" y="246"/>
      <point x="304" y="318"/>
      <point x="304" y="241" type="curve"/>
      <point x="336" y="222"/>
      <point x="504" y="140"/>
      <point x="535" y="121" type="curve"/>
      <point x="535" y="199"/>
      <point x="535" y="124"/>
    </contour>
  </outline>
</glyph>
<glyph name="logicalnot" format="1">
  <advance width="702"/>
  <unicode hex="00AC"/>
  <outline>
    <contour>
      <point x="93" y="273" type="curve"/>
      <point x="620" y="273" type="line"/>
      <point x="620" y="351"/>
      <point x="620" y="273"/>
      <point x="620" y="351" type="curve"/>
      <point x="93" y="351" type="line"/>
      <point x="93" y="273"/>
      <point x="93" y="351"/>
    </contour>
    <contour>
      <point x="620" y="146" type="curve"/>
      <point x="620" y="351" type="line"/>
      <point x="528" y="351"/>
      <point x="624" y="351"/>
      <point x="531" y="351" type="curve"/>
      <point x="531" y="146" type="line"/>
      <point x="624" y="146"/>
      <point x="528" y="146"/>
    </contour>
  </outline>
</glyph>
<glyph name="macron" format="1">
  <advance width="339"/>
  <unicode hex="00AF"/>
  <outline>
    <contour>
      <point x="149" y="604" type="move" name="_top"/>
    </contour>
    <contour>
      <point x="264" y="675" type="curve"/>
      <point x="186" y="675"/>
      <point x="108" y="675"/>
      <point x="30" y="675" type="curve"/>
      <point x="30" y="604"/>
      <point x="30" y="675"/>
      <point x="30" y="604" type="curve"/>
      <point x="108" y="604"/>
      <point x="186" y="604"/>
      <point x="264" y="604" type="curve"/>
      <point x="264" y="675"/>
      <point x="264" y="604"/>
    </contour>
  </outline>
</glyph>
<glyph name="degree" format="1">
  <advance width="517"/>
  <unicode hex="00B0"/>
  <outline>
    <contour>
      <point x="453" y="494" type="curve"/>
      <point x="453" y="617"/>
      <point x="380" y="694"/>
      <point x="258" y="694" type="curve"/>
      <point x="137" y="694"/>
      <point x="64" y="617"/>
      <point x="64" y="496" type="curve"/>
      <point x="126" y="496"/>
      <point x="83" y="496"/>
      <point x="144" y="496" type="curve"/>
      <point x="144" y="573"/>
      <point x="181" y="627"/>
      <point x="256" y="627" type="curve"/>
      <point x="332" y="627"/>
      <point x="372" y="574"/>
      <point x="372" y="494" type="curve"/>
      <point x="372" y="414"/>
      <point x="335" y="357"/>
      <point x="259" y="357" type="curve"/>
      <point x="181" y="357"/>
      <point x="144" y="415"/>
      <point x="144" y="496" type="curve"/>
      <point x="83" y="496"/>
      <point x="126" y="496"/>
      <point x="64" y="496" type="curve"/>
      <point x="64" y="371"/>
      <point x="135" y="290"/>
      <point x="257" y="290" type="curve"/>
      <point x="381" y="290"/>
      <point x="453" y="370"/>
    </contour>
  </outline>
</glyph>
<glyph name="twosuperior" format="1">
  <advance width="512"/>
  <unicode hex="00B2"/>
  <outline>
    <contour>
      <point x="263" y="735" type="move" name="_top"/>
    </contour>
    <contour>
      <point x="254" y="305" type="move" name="_bottom"/>
    </contour>
    <contour>
      <point x="443" y="305" type="curve"/>
      <point x="443" y="347"/>
      <point x="443" y="383"/>
      <point x="443" y="426" type="curve"/>
      <point x="375" y="426"/>
      <point x="448" y="426"/>
      <point x="380" y="426" type="curve"/>
      <point x="380" y="405"/>
      <point x="380" y="391"/>
      <point x="380" y="370" type="curve"/>
      <point x="451" y="309"/>
      <point x="371" y="366"/>
    </contour>
    <contour>
      <point x="72" y="305" type="curve"/>
      <point x="211" y="305"/>
      <point x="332" y="305"/>
      <point x="443" y="305" type="curve"/>
      <point x="371" y="366"/>
      <point x="451" y="309"/>
      <point x="380" y="370" type="curve"/>
      <point x="279" y="370"/>
      <point x="173" y="370"/>
      <point x="72" y="370" type="curve"/>
      <point x="72" y="305"/>
      <point x="72" y="370"/>
    </contour>
    <contour>
      <point x="152" y="609" type="curve"/>
      <point x="178" y="647"/>
      <point x="207" y="670"/>
      <point x="253" y="670" type="curve"/>
      <point x="303" y="670"/>
      <point x="337" y="646"/>
      <point x="337" y="601" type="curve"/>
      <point x="337" y="557"/>
      <point x="306" y="536"/>
      <point x="271" y="508" type="curve"/>
      <point x="205" y="462"/>
      <point x="139" y="416"/>
      <point x="72" y="370" type="curve"/>
      <point x="78" y="307"/>
      <point x="74" y="370"/>
      <point x="79" y="307" type="curve"/>
      <point x="166" y="362"/>
      <point x="249" y="408"/>
      <point x="319" y="458" type="curve"/>
      <point x="374" y="502"/>
      <point x="421" y="534"/>
      <point x="421" y="604" type="curve"/>
      <point x="421" y="692"/>
      <point x="353" y="735"/>
      <point x="261" y="735" type="curve"/>
      <point x="184" y="735"/>
      <point x="128" y="709"/>
      <point x="92" y="641" type="curve"/>
      <point x="152" y="609"/>
      <point x="92" y="641"/>
    </contour>
  </outline>
</glyph>
<glyph name="threesuperior" format="1">
  <advance width="459"/>
  <unicode hex="00B3"/>
  <outline>
    <contour>
      <point x="228" y="734" type="move" name="_top"/>
    </contour>
    <contour>
      <point x="218" y="298" type="move" name="_bottom"/>
    </contour>
    <contour>
      <point x="114" y="632" type="curve"/>
      <point x="142" y="656"/>
      <point x="174" y="670"/>
      <point x="206" y="670" type="curve"/>
      <point x="255" y="670"/>
      <point x="291" y="654"/>
      <point x="291" y="610" type="curve"/>
      <point x="291" y="559"/>
      <point x="226" y="551"/>
      <point x="162" y="547" type="curve"/>
      <point x="162" y="493"/>
      <point x="162" y="547"/>
      <point x="162" y="493" type="curve"/>
      <point x="276" y="495"/>
      <point x="376" y="516"/>
      <point x="376" y="615" type="curve"/>
      <point x="376" y="701"/>
      <point x="307" y="733"/>
      <point x="214" y="733" type="curve"/>
      <point x="159" y="733"/>
      <point x="108" y="712"/>
      <point x="72" y="676" type="curve"/>
      <point x="114" y="632"/>
      <point x="72" y="676"/>
    </contour>
    <contour>
      <point x="68" y="335" type="curve"/>
      <point x="109" y="312"/>
      <point x="150" y="299"/>
      <point x="197" y="299" type="curve"/>
      <point x="308" y="296"/>
      <point x="394" y="328"/>
      <point x="392" y="427" type="curve"/>
      <point x="392" y="533"/>
      <point x="282" y="537"/>
      <point x="162" y="539" type="curve"/>
      <point x="162" y="491"/>
      <point x="162" y="539"/>
      <point x="162" y="491" type="curve"/>
      <point x="238" y="488"/>
      <point x="307" y="481"/>
      <point x="307" y="425" type="curve"/>
      <point x="307" y="376"/>
      <point x="263" y="359"/>
      <point x="205" y="360" type="curve"/>
      <point x="172" y="360"/>
      <point x="140" y="368"/>
      <point x="104" y="384" type="curve"/>
      <point x="68" y="335"/>
      <point x="104" y="384"/>
    </contour>
  </outline>
</glyph>
<glyph name="paragraph" format="1">
  <advance width="801"/>
  <unicode hex="00B6"/>
  <outline>
    <contour>
      <point x="466" y="651" type="curve"/>
      <point x="634" y="651"/>
      <point x="466" y="651"/>
      <point x="634" y="651" type="curve"/>
      <point x="634" y="722"/>
      <point x="634" y="651"/>
      <point x="634" y="722" type="curve"/>
      <point x="578" y="722"/>
      <point x="522" y="722"/>
      <point x="466" y="722" type="curve"/>
      <point x="466" y="651"/>
      <point x="466" y="722"/>
    </contour>
    <contour>
      <point x="466" y="0" type="curve"/>
      <point x="522" y="0"/>
      <point x="578" y="0"/>
      <point x="634" y="0" type="curve"/>
      <point x="634" y="71"/>
      <point x="634" y="0"/>
      <point x="634" y="71" type="curve"/>
      <point x="466" y="71"/>
      <point x="634" y="71"/>
      <point x="466" y="71" type="curve"/>
      <point x="466" y="0"/>
      <point x="466" y="71"/>
    </contour>
    <contour>
      <point x="466" y="71" type="curve"/>
      <point x="305" y="71"/>
      <point x="466" y="71"/>
      <point x="305" y="71" type="curve"/>
      <point x="305" y="0"/>
      <point x="305" y="71"/>
      <point x="305" y="0" type="curve"/>
      <point x="466" y="0"/>
      <point x="412" y="0"/>
      <point x="466" y="0" type="curve"/>
      <point x="466" y="71"/>
      <point x="466" y="0"/>
    </contour>
    <contour>
      <point x="450" y="370" type="curve"/>
      <point x="397" y="346"/>
      <point x="357" y="332"/>
      <point x="300" y="332" type="curve"/>
      <point x="201" y="332"/>
      <point x="135" y="386"/>
      <point x="135" y="482" type="curve"/>
      <point x="135" y="595"/>
      <point x="219" y="651"/>
      <point x="337" y="651" type="curve"/>
      <point x="379" y="651"/>
      <point x="421" y="651"/>
      <point x="463" y="651" type="curve"/>
      <point x="463" y="722"/>
      <point x="463" y="651"/>
      <point x="463" y="722" type="curve"/>
      <point x="417" y="722"/>
      <point x="371" y="722"/>
      <point x="325" y="722" type="curve"/>
      <point x="162" y="722"/>
      <point x="42" y="640"/>
      <point x="42" y="485" type="curve"/>
      <point x="42" y="338"/>
      <point x="153" y="265"/>
      <point x="307" y="262" type="curve"/>
      <point x="371" y="262"/>
      <point x="423" y="282"/>
      <point x="479" y="308" type="curve"/>
      <point x="450" y="370"/>
      <point x="479" y="309"/>
    </contour>
    <contour>
      <point x="513" y="0" type="curve"/>
      <point x="513" y="241"/>
      <point x="513" y="481"/>
      <point x="513" y="722" type="curve"/>
      <point x="421" y="722"/>
      <point x="513" y="722"/>
      <point x="421" y="722" type="curve"/>
      <point x="421" y="481"/>
      <point x="421" y="241"/>
      <point x="421" y="0" type="curve"/>
      <point x="513" y="0"/>
      <point x="421" y="0"/>
    </contour>
    <contour>
      <point x="716" y="0" type="curve"/>
      <point x="716" y="241"/>
      <point x="716" y="481"/>
      <point x="716" y="722" type="curve"/>
      <point x="624" y="722"/>
      <point x="716" y="722"/>
      <point x="624" y="722" type="curve"/>
      <point x="624" y="481"/>
      <point x="624" y="241"/>
      <point x="624" y="0" type="curve"/>
      <point x="716" y="0"/>
      <point x="624" y="0"/>
    </contour>
  </outline>
</glyph>
<glyph name="periodcentered" format="1">
  <advance width="251"/>
  <unicode hex="00B7"/>
  <outline>
    <contour>
      <point x="179" y="440" type="curve"/>
      <point x="179" y="472"/>
      <point x="156" y="488"/>
      <point x="124" y="488" type="curve"/>
      <point x="93" y="488"/>
      <point x="72" y="471"/>
      <point x="72" y="440" type="curve"/>
      <point x="173" y="440"/>
      <point x="78" y="440"/>
      <point x="179" y="440" type="curve"/>
      <point x="179" y="408"/>
      <point x="156" y="393"/>
      <point x="124" y="393" type="curve"/>
      <point x="92" y="393"/>
      <point x="72" y="409"/>
      <point x="72" y="440" type="curve"/>
      <point x="173" y="440"/>
      <point x="78" y="440"/>
    </contour>
  </outline>
</glyph>
<glyph name="cedilla" format="1">
  <advance width="382"/>
  <unicode hex="00B8"/>
  <outline>
    <contour>
      <point x="211" y="52" type="move" name="_bottom"/>
    </contour>
    <contour>
      <point x="151" y="101" type="curve"/>
      <point x="136" y="77"/>
      <point x="96" y="11"/>
      <point x="81" y="-13" type="curve"/>
      <point x="144" y="-69"/>
      <point x="81" y="-13"/>
      <point x="144" y="-69" type="curve"/>
      <point x="160" y="-42"/>
      <point x="205" y="26"/>
      <point x="222" y="52" type="curve"/>
      <point x="151" y="101"/>
      <point x="222" y="52"/>
    </contour>
    <contour>
      <point x="144" y="-70" type="curve"/>
      <point x="154" y="-64"/>
      <point x="162" y="-61"/>
      <point x="174" y="-61" type="curve"/>
      <point x="195" y="-61"/>
      <point x="207" y="-72"/>
      <point x="207" y="-93" type="curve"/>
      <point x="207" y="-117"/>
      <point x="187" y="-127"/>
      <point x="161" y="-127" type="curve"/>
      <point x="135" y="-127"/>
      <point x="115" y="-122"/>
      <point x="89" y="-109" type="curve"/>
      <point x="58" y="-162"/>
      <point x="89" y="-109"/>
      <point x="58" y="-162" type="curve"/>
      <point x="91" y="-179"/>
      <point x="118" y="-187"/>
      <point x="156" y="-187" type="curve"/>
      <point x="229" y="-187"/>
      <point x="282" y="-159"/>
      <point x="282" y="-91" type="curve"/>
      <point x="282" y="-28"/>
      <point x="238" y="7"/>
      <point x="174" y="7" type="curve"/>
      <point x="139" y="7"/>
      <point x="114" y="1"/>
      <point x="81" y="-13" type="curve"/>
      <point x="144" y="-70"/>
      <point x="81" y="-13"/>
    </contour>
  </outline>
</glyph>
<glyph name="onesuperior" format="1">
  <advance width="398"/>
  <unicode hex="00B9"/>
  <outline>
    <contour>
      <point x="223" y="725" type="move" name="_top"/>
    </contour>
    <contour>
      <point x="229" y="306" type="move" name="_bottom"/>
    </contour>
    <contour>
      <point x="186" y="305" type="curve"/>
      <point x="236" y="305"/>
      <point x="285" y="305"/>
      <point x="335" y="305" type="curve"/>
      <point x="335" y="371"/>
      <point x="335" y="303"/>
      <point x="335" y="368" type="curve"/>
      <point x="313" y="368"/>
      <point x="292" y="368"/>
      <point x="271" y="368" type="curve"/>
      <point x="186" y="303"/>
      <point x="271" y="371"/>
    </contour>
    <contour>
      <point x="271" y="368" type="curve"/>
      <point x="219" y="368"/>
      <point x="170" y="368"/>
      <point x="118" y="368" type="curve"/>
      <point x="118" y="303"/>
      <point x="118" y="371"/>
      <point x="118" y="305" type="curve"/>
      <point x="141" y="305"/>
      <point x="163" y="305"/>
      <point x="186" y="305" type="curve"/>
      <point x="271" y="371"/>
      <point x="186" y="303"/>
    </contour>
    <contour>
      <point x="101" y="574" type="line"/>
      <point x="271" y="722" type="line"/>
      <point x="186" y="727" type="line"/>
      <point x="59" y="622" type="line"/>
    </contour>
    <contour>
      <point x="271" y="368" type="curve"/>
      <point x="271" y="727" type="line"/>
      <point x="186" y="727" type="line"/>
      <point x="186" y="305" type="line"/>
      <point x="271" y="371"/>
      <point x="186" y="303"/>
    </contour>
  </outline>
</glyph>
<glyph name="ordmasculine" format="1">
  <advance width="473"/>
  <unicode hex="00BA"/>
  <outline>
    <contour>
      <point x="124" y="601" type="curve"/>
      <point x="124" y="674"/>
      <point x="162" y="724"/>
      <point x="234" y="724" type="curve"/>
      <point x="308" y="724"/>
      <point x="347" y="674"/>
      <point x="347" y="600" type="curve"/>
      <point x="347" y="522"/>
      <point x="309" y="472"/>
      <point x="241" y="472" type="curve"/>
      <point x="163" y="472"/>
      <point x="124" y="522"/>
      <point x="124" y="601" type="curve"/>
      <point x="85" y="601"/>
      <point x="99" y="601"/>
      <point x="60" y="601" type="curve"/>
      <point x="60" y="488"/>
      <point x="126" y="421"/>
      <point x="238" y="421" type="curve"/>
      <point x="347" y="421"/>
      <point x="412" y="488"/>
      <point x="412" y="600" type="curve"/>
      <point x="412" y="708"/>
      <point x="348" y="774"/>
      <point x="237" y="774" type="curve"/>
      <point x="126" y="774"/>
      <point x="60" y="708"/>
      <point x="60" y="601" type="curve"/>
      <point x="99" y="601"/>
      <point x="85" y="601"/>
    </contour>
  </outline>
</glyph>
<glyph name="guillemotright" format="1">
  <advance width="620"/>
  <unicode hex="00BB"/>
  <outline>
    <contour>
      <point x="328" y="444" type="curve"/>
      <point x="359" y="426"/>
      <point x="527" y="342"/>
      <point x="558" y="324" type="curve"/>
      <point x="558" y="246"/>
      <point x="558" y="318"/>
      <point x="558" y="241" type="curve"/>
      <point x="527" y="260"/>
      <point x="359" y="346"/>
      <point x="328" y="365" type="curve"/>
      <point x="328" y="442"/>
      <point x="328" y="368"/>
    </contour>
    <contour>
      <point x="328" y="201" type="curve"/>
      <point x="359" y="219"/>
      <point x="527" y="305"/>
      <point x="558" y="324" type="curve"/>
      <point x="558" y="246"/>
      <point x="558" y="318"/>
      <point x="558" y="241" type="curve"/>
      <point x="527" y="222"/>
      <point x="359" y="140"/>
      <point x="328" y="121" type="curve"/>
      <point x="328" y="199"/>
      <point x="328" y="124"/>
    </contour>
    <contour>
      <point x="85" y="444" type="curve"/>
      <point x="116" y="426"/>
      <point x="283" y="342"/>
      <point x="315" y="324" type="curve"/>
      <point x="315" y="246"/>
      <point x="315" y="318"/>
      <point x="315" y="241" type="curve"/>
      <point x="283" y="260"/>
      <point x="116" y="346"/>
      <point x="85" y="365" type="curve"/>
      <point x="85" y="442"/>
      <point x="85" y="368"/>
    </contour>
    <contour>
      <point x="85" y="201" type="curve"/>
      <point x="116" y="219"/>
      <point x="283" y="305"/>
      <point x="315" y="324" type="curve"/>
      <point x="315" y="246"/>
      <point x="315" y="318"/>
      <point x="315" y="241" type="curve"/>
      <point x="283" y="222"/>
      <point x="116" y="140"/>
      <point x="85" y="121" type="curve"/>
      <point x="85" y="199"/>
      <point x="85" y="124"/>
    </contour>
  </outline>
</glyph>
<glyph name="onequarter" format="1">
  <advance width="1023"/>
  <unicode hex="00BC"/>
  <outline>
    <contour>
      <point x="343" y="-61" type="line"/>
      <point x="787" y="729" type="line"/>
      <point x="700" y="729" type="line"/>
      <point x="256" y="-61" type="line"/>
    </contour>
    <contour>
      <point x="166" y="310" type="curve"/>
      <point x="217" y="310"/>
      <point x="265" y="310"/>
      <point x="315" y="310" type="curve"/>
      <point x="315" y="375"/>
      <point x="315" y="307"/>
      <point x="315" y="373" type="curve"/>
      <point x="293" y="373"/>
      <point x="273" y="373"/>
      <point x="251" y="373" type="curve"/>
      <point x="166" y="307"/>
      <point x="251" y="375"/>
    </contour>
    <contour>
      <point x="252" y="373" type="curve"/>
      <point x="200" y="373"/>
      <point x="150" y="373"/>
      <point x="98" y="373" type="curve"/>
      <point x="98" y="307"/>
      <point x="98" y="375"/>
      <point x="98" y="310" type="curve"/>
      <point x="122" y="310"/>
      <point x="143" y="310"/>
      <point x="167" y="310" type="curve"/>
      <point x="252" y="375"/>
      <point x="167" y="307"/>
    </contour>
    <contour>
      <point x="81" y="579" type="line"/>
      <point x="251" y="727" type="line"/>
      <point x="167" y="731" type="line"/>
      <point x="40" y="627" type="line"/>
    </contour>
    <contour>
      <point x="252" y="373" type="curve"/>
      <point x="252" y="731" type="line"/>
      <point x="167" y="731" type="line"/>
      <point x="167" y="310" type="line"/>
      <point x="252" y="375"/>
      <point x="167" y="307"/>
    </contour>
    <contour>
      <point x="988" y="120" type="line"/>
      <point x="595" y="120" type="line"/>
      <point x="595" y="58" type="line"/>
      <point x="988" y="58" type="line"/>
    </contour>
    <contour>
      <point x="621" y="64" type="line"/>
      <point x="879" y="364" type="line"/>
      <point x="812" y="377" type="line"/>
      <point x="595" y="120" type="line"/>
    </contour>
    <contour>
      <point x="897" y="-64" type="line"/>
      <point x="897" y="377" type="line"/>
      <point x="812" y="377" type="line"/>
      <point x="812" y="-64" type="line"/>
    </contour>
    <contour>
      <point x="855" y="-5" type="line"/>
      <point x="743" y="-5" type="line"/>
      <point x="743" y="-64" type="line"/>
      <point x="855" y="-64" type="line"/>
    </contour>
    <contour>
      <point x="855" y="-64" type="line"/>
      <point x="963" y="-64" type="line"/>
      <point x="963" y="-5" type="line"/>
      <point x="855" y="-5" type="line"/>
    </contour>
  </outline>
</glyph>
<glyph name="threequarters" format="1">
  <advance width="1030"/>
  <unicode hex="00BE"/>
  <outline>
    <contour>
      <point x="358" y="-61" type="line"/>
      <point x="802" y="729" type="line"/>
      <point x="716" y="729" type="line"/>
      <point x="272" y="-61" type="line"/>
    </contour>
    <contour>
      <point x="91" y="628" type="curve"/>
      <point x="120" y="651"/>
      <point x="151" y="666"/>
      <point x="183" y="666" type="curve"/>
      <point x="232" y="666"/>
      <point x="268" y="650"/>
      <point x="268" y="606" type="curve"/>
      <point x="268" y="555"/>
      <point x="203" y="547"/>
      <point x="139" y="543" type="curve"/>
      <point x="139" y="489"/>
      <point x="139" y="543"/>
      <point x="139" y="489" type="curve"/>
      <point x="253" y="491"/>
      <point x="353" y="512"/>
      <point x="353" y="611" type="curve"/>
      <point x="353" y="697"/>
      <point x="284" y="729"/>
      <point x="192" y="729" type="curve"/>
      <point x="136" y="729"/>
      <point x="85" y="708"/>
      <point x="49" y="672" type="curve"/>
      <point x="91" y="628"/>
      <point x="49" y="672"/>
    </contour>
    <contour>
      <point x="45" y="330" type="curve"/>
      <point x="86" y="308"/>
      <point x="128" y="294"/>
      <point x="174" y="294" type="curve"/>
      <point x="286" y="292"/>
      <point x="371" y="324"/>
      <point x="369" y="423" type="curve"/>
      <point x="369" y="528"/>
      <point x="259" y="532"/>
      <point x="139" y="535" type="curve"/>
      <point x="139" y="487"/>
      <point x="139" y="535"/>
      <point x="139" y="487" type="curve"/>
      <point x="215" y="484"/>
      <point x="284" y="476"/>
      <point x="284" y="421" type="curve"/>
      <point x="284" y="372"/>
      <point x="240" y="355"/>
      <point x="183" y="357" type="curve"/>
      <point x="149" y="357"/>
      <point x="118" y="364"/>
      <point x="82" y="380" type="curve"/>
      <point x="45" y="330"/>
      <point x="82" y="380"/>
    </contour>
    <contour>
      <point x="998" y="120" type="line"/>
      <point x="605" y="120" type="line"/>
      <point x="605" y="58" type="line"/>
      <point x="998" y="58" type="line"/>
    </contour>
    <contour>
      <point x="631" y="64" type="line"/>
      <point x="888" y="364" type="line"/>
      <point x="822" y="377" type="line"/>
      <point x="605" y="120" type="line"/>
    </contour>
    <contour>
      <point x="907" y="-64" type="line"/>
      <point x="907" y="377" type="line"/>
      <point x="822" y="377" type="line"/>
      <point x="822" y="-64" type="line"/>
    </contour>
    <contour>
      <point x="865" y="-5" type="line"/>
      <point x="753" y="-5" type="line"/>
      <point x="753" y="-64" type="line"/>
      <point x="865" y="-64" type="line"/>
    </contour>
    <contour>
      <point x="865" y="-64" type="line"/>
      <point x="973" y="-64" type="line"/>
      <point x="973" y="-5" type="line"/>
      <point x="865" y="-5" type="line"/>
    </contour>
  </outline>
</glyph>
<glyph name="questiondown" format="1">
  <advance width="543"/>
  <unicode hex="00BF"/>
  <outline>
    <contour>
      <point x="346" y="355" type="curve"/>
      <point x="346" y="392"/>
      <point x="346" y="456"/>
      <point x="346" y="493" type="curve"/>
      <point x="257" y="493"/>
      <point x="346" y="493"/>
      <point x="257" y="493" type="curve"/>
      <point x="257" y="456"/>
      <point x="257" y="392"/>
      <point x="257" y="355" type="curve"/>
      <point x="346" y="355"/>
      <point x="257" y="355"/>
    </contour>
    <contour>
      <point x="445" y="119" type="line"/>
      <point x="411" y="83"/>
      <point x="361" y="55"/>
      <point x="299" y="55" type="curve"/>
      <point x="207" y="55"/>
      <point x="144" y="105"/>
      <point x="144" y="196" type="curve"/>
      <point x="144" y="297"/>
      <point x="223" y="355"/>
      <point x="336" y="355" type="curve"/>
      <point x="336" y="384"/>
      <point x="336" y="396"/>
      <point x="336" y="425" type="curve"/>
      <point x="172" y="425"/>
      <point x="56" y="343"/>
      <point x="56" y="196" type="curve"/>
      <point x="56" y="59"/>
      <point x="155" y="-19"/>
      <point x="295" y="-19" type="curve"/>
      <point x="379" y="-19"/>
      <point x="444" y="11"/>
      <point x="494" y="64" type="curve"/>
    </contour>
    <contour>
      <point x="248" y="689" type="curve"/>
      <point x="248" y="658"/>
      <point x="270" y="642"/>
      <point x="301" y="642" type="curve"/>
      <point x="332" y="642"/>
      <point x="353" y="659"/>
      <point x="353" y="689" type="curve"/>
      <point x="248" y="689"/>
      <point x="353" y="689"/>
      <point x="248" y="689" type="curve"/>
      <point x="248" y="720"/>
      <point x="270" y="734"/>
      <point x="302" y="734" type="curve"/>
      <point x="333" y="734"/>
      <point x="353" y="719"/>
      <point x="353" y="689" type="curve"/>
      <point x="248" y="689"/>
      <point x="353" y="689"/>
    </contour>
  </outline>
</glyph>
<glyph name="Agrave" format="1">
  <advance width="839"/>
  <unicode hex="00C0"/>
  <outline>
    <contour>
      <point x="121" y="71" type="curve"/>
      <point x="-20" y="71"/>
      <point x="128" y="71"/>
      <point x="-13" y="71" type="curve"/>
      <point x="-13" y="0"/>
      <point x="-13" y="71"/>
      <point x="-13" y="0" type="curve"/>
      <point x="34" y="0"/>
      <point x="75" y="0"/>
      <point x="120" y="0" type="curve"/>
      <point x="121" y="71"/>
      <point x="120" y="0"/>
    </contour>
    <contour>
      <point x="121" y="0" type="curve"/>
      <point x="177" y="0"/>
      <point x="117" y="0"/>
      <point x="286" y="0" type="curve"/>
      <point x="286" y="71"/>
      <point x="286" y="0"/>
      <point x="286" y="71" type="curve"/>
      <point x="117" y="71"/>
      <point x="291" y="71"/>
      <point x="121" y="71" type="curve"/>
      <point x="121" y="0"/>
      <point x="121" y="71"/>
    </contour>
    <contour>
      <point x="691" y="0" type="curve"/>
      <point x="738" y="0"/>
      <point x="778" y="0"/>
      <point x="825" y="0" type="curve"/>
      <point x="825" y="71"/>
      <point x="825" y="0"/>
      <point x="825" y="71" type="curve"/>
      <point x="684" y="71"/>
      <point x="832" y="71"/>
      <point x="691" y="71" type="curve"/>
      <point x="691" y="0"/>
      <point x="691" y="71"/>
    </contour>
    <contour>
      <point x="691" y="71" type="curve"/>
      <point x="521" y="71"/>
      <point x="696" y="71"/>
      <point x="526" y="71" type="curve"/>
      <point x="526" y="0"/>
      <point x="526" y="71"/>
      <point x="526" y="0" type="curve"/>
      <point x="583" y="0"/>
      <point x="635" y="0"/>
      <point x="691" y="0" type="curve"/>
      <point x="691" y="71"/>
      <point x="691" y="0"/>
    </contour>
    <contour>
      <point x="586" y="292" type="curve"/>
      <point x="473" y="292"/>
      <point x="359" y="292"/>
      <point x="245" y="292" type="curve"/>
      <point x="208" y="218"/>
      <point x="245" y="292"/>
      <point x="208" y="218" type="curve"/>
      <point x="344" y="218"/>
      <point x="480" y="218"/>
      <point x="616" y="218" type="curve"/>
      <point x="586" y="292"/>
      <point x="616" y="218"/>
    </contour>
    <contour>
      <point x="752" y="0" type="curve"/>
      <point x="658" y="242"/>
      <point x="559" y="480"/>
      <point x="465" y="722" type="curve"/>
      <point x="381" y="722"/>
      <point x="465" y="722"/>
      <point x="381" y="722" type="curve"/>
      <point x="474" y="482"/>
      <point x="562" y="240"/>
      <point x="655" y="0" type="curve"/>
      <point x="752" y="0"/>
      <point x="655" y="0"/>
    </contour>
    <contour>
      <point x="159" y="0" type="curve"/>
      <point x="262" y="240"/>
      <point x="360" y="482"/>
      <point x="463" y="722" type="curve"/>
      <point x="380" y="722"/>
      <point x="463" y="722"/>
      <point x="380" y="722" type="curve"/>
      <point x="274" y="480"/>
      <point x="163" y="242"/>
      <point x="58" y="0" type="curve"/>
      <point x="159" y="0"/>
      <point x="58" y="0"/>
    </contour>
    <contour>
      <point x="472" y="801" type="line"/>
      <point x="348" y="967" type="line"/>
      <point x="228" y="967" type="line"/>
      <point x="379" y="801" type="line"/>
    </contour>
  </outline>
</glyph>
<glyph name="Atilde" format="1">
  <advance width="839"/>
  <unicode hex="00C3"/>
  <outline>
    <contour>
      <point x="121" y="71" type="curve"/>
      <point x="-20" y="71"/>
      <point x="128" y="71"/>
      <point x="-13" y="71" type="curve"/>
      <point x="-13" y="0"/>
      <point x="-13" y="71"/>
      <point x="-13" y="0" type="curve"/>
      <point x="34" y="0"/>
      <point x="75" y="0"/>
      <point x="120" y="0" type="curve"/>
      <point x="121" y="71"/>
      <point x="120" y="0"/>
    </contour>
    <contour>
      <point x="121" y="0" type="curve"/>
      <point x="177" y="0"/>
      <point x="117" y="0"/>
      <point x="286" y="0" type="curve"/>
      <point x="286" y="71"/>
      <point x="286" y="0"/>
      <point x="286" y="71" type="curve"/>
      <point x="117" y="71"/>
      <point x="291" y="71"/>
      <point x="121" y="71" type="curve"/>
      <point x="121" y="0"/>
      <point x="121" y="71"/>
    </contour>
    <contour>
      <point x="691" y="0" type="curve"/>
      <point x="738" y="0"/>
      <point x="778" y="0"/>
      <point x="825" y="0" type="curve"/>
      <point x="825" y="71"/>
      <point x="825" y="0"/>
      <point x="825" y="71" type="curve"/>
      <point x="684" y="71"/>
      <point x="832" y="71"/>
      <point x="691" y="71" type="curve"/>
      <point x="691" y="0"/>
      <point x="691" y="71"/>
    </contour>
    <contour>
      <point x="691" y="71" type="curve"/>
      <point x="521" y="71"/>
      <point x="696" y="71"/>
      <point x="526" y="71" type="curve"/>
      <point x="526" y="0"/>
      <point x="526" y="71"/>
      <point x="526" y="0" type="curve"/>
      <point x="583" y="0"/>
      <point x="635" y="0"/>
      <point x="691" y="0" type="curve"/>
      <point x="691" y="71"/>
      <point x="691" y="0"/>
    </contour>
    <contour>
      <point x="586" y="292" type="curve"/>
      <point x="473" y="292"/>
      <point x="359" y="292"/>
      <point x="245" y="292" type="curve"/>
      <point x="208" y="218"/>
      <point x="245" y="292"/>
      <point x="208" y="218" type="curve"/>
      <point x="344" y="218"/>
      <point x="480" y="218"/>
      <point x="616" y="218" type="curve"/>
      <point x="586" y="292"/>
      <point x="616" y="218"/>
    </contour>
    <contour>
      <point x="752" y="0" type="curve"/>
      <point x="658" y="242"/>
      <point x="559" y="480"/>
      <point x="465" y="722" type="curve"/>
      <point x="381" y="722"/>
      <point x="465" y="722"/>
      <point x="381" y="722" type="curve"/>
      <point x="474" y="482"/>
      <point x="562" y="240"/>
      <point x="655" y="0" type="curve"/>
      <point x="752" y="0"/>
      <point x="655" y="0"/>
    </contour>
    <contour>
      <point x="159" y="0" type="curve"/>
      <point x="262" y="240"/>
      <point x="360" y="482"/>
      <point x="463" y="722" type="curve"/>
      <point x="380" y="722"/>
      <point x="463" y="722"/>
      <point x="380" y="722" type="curve"/>
      <point x="274" y="480"/>
      <point x="163" y="242"/>
      <point x="58" y="0" type="curve"/>
      <point x="159" y="0"/>
      <point x="58" y="0"/>
    </contour>
    <contour>
      <point x="576" y="957" type="curve"/>
      <point x="562" y="914"/>
      <point x="546" y="879"/>
      <point x="511" y="879" type="curve"/>
      <point x="476" y="879"/>
      <point x="456" y="892"/>
      <point x="431" y="915" type="curve"/>
      <point x="397" y="946"/>
      <point x="372" y="962"/>
      <point x="328" y="962" type="curve"/>
      <point x="254" y="962"/>
      <point x="217" y="908"/>
      <point x="195" y="833" type="curve"/>
      <point x="263" y="800"/>
      <point x="195" y="833"/>
      <point x="264" y="800" type="curve"/>
      <point x="280" y="850"/>
      <point x="299" y="880"/>
      <point x="337" y="880" type="curve"/>
      <point x="370" y="880"/>
      <point x="386" y="865"/>
      <point x="408" y="844" type="curve"/>
      <point x="446" y="812"/>
      <point x="473" y="796"/>
      <point x="520" y="796" type="curve"/>
      <point x="594" y="796"/>
      <point x="625" y="852"/>
      <point x="649" y="925" type="curve"/>
      <point x="577" y="957"/>
      <point x="649" y="925"/>
    </contour>
  </outline>
</glyph>
<glyph name="Aring" format="1">
  <advance width="839"/>
  <unicode hex="00C5"/>
  <outline>
    <contour>
      <point x="121" y="71" type="curve"/>
      <point x="-20" y="71"/>
      <point x="128" y="71"/>
      <point x="-13" y="71" type="curve"/>
      <point x="-13" y="0"/>
      <point x="-13" y="71"/>
      <point x="-13" y="0" type="curve"/>
      <point x="34" y="0"/>
      <point x="75" y="0"/>
      <point x="120" y="0" type="curve"/>
      <point x="121" y="71"/>
      <point x="120" y="0"/>
    </contour>
    <contour>
      <point x="121" y="0" type="curve"/>
      <point x="177" y="0"/>
      <point x="117" y="0"/>
      <point x="286" y="0" type="curve"/>
      <point x="286" y="71"/>
      <point x="286" y="0"/>
      <point x="286" y="71" type="curve"/>
      <point x="117" y="71"/>
      <point x="291" y="71"/>
      <point x="121" y="71" type="curve"/>
      <point x="121" y="0"/>
      <point x="121" y="71"/>
    </contour>
    <contour>
      <point x="691" y="0" type="curve"/>
      <point x="738" y="0"/>
      <point x="778" y="0"/>
      <point x="825" y="0" type="curve"/>
      <point x="825" y="71"/>
      <point x="825" y="0"/>
      <point x="825" y="71" type="curve"/>
      <point x="684" y="71"/>
      <point x="832" y="71"/>
      <point x="691" y="71" type="curve"/>
      <point x="691" y="0"/>
      <point x="691" y="71"/>
    </contour>
    <contour>
      <point x="691" y="71" type="curve"/>
      <point x="521" y="71"/>
      <point x="696" y="71"/>
      <point x="526" y="71" type="curve"/>
      <point x="526" y="0"/>
      <point x="526" y="71"/>
      <point x="526" y="0" type="curve"/>
      <point x="583" y="0"/>
      <point x="635" y="0"/>
      <point x="691" y="0" type="curve"/>
      <point x="691" y="71"/>
      <point x="691" y="0"/>
    </contour>
    <contour>
      <point x="586" y="292" type="curve"/>
      <point x="473" y="292"/>
      <point x="359" y="292"/>
      <point x="245" y="292" type="curve"/>
      <point x="208" y="218"/>
      <point x="245" y="292"/>
      <point x="208" y="218" type="curve"/>
      <point x="344" y="218"/>
      <point x="480" y="218"/>
      <point x="616" y="218" type="curve"/>
      <point x="586" y="292"/>
      <point x="616" y="218"/>
    </contour>
    <contour>
      <point x="752" y="0" type="curve"/>
      <point x="658" y="242"/>
      <point x="559" y="480"/>
      <point x="465" y="722" type="curve"/>
      <point x="381" y="722"/>
      <point x="465" y="722"/>
      <point x="381" y="722" type="curve"/>
      <point x="474" y="482"/>
      <point x="562" y="240"/>
      <point x="655" y="0" type="curve"/>
      <point x="752" y="0"/>
      <point x="655" y="0"/>
    </contour>
    <contour>
      <point x="159" y="0" type="curve"/>
      <point x="262" y="240"/>
      <point x="360" y="482"/>
      <point x="463" y="722" type="curve"/>
      <point x="380" y="722"/>
      <point x="463" y="722"/>
      <point x="380" y="722" type="curve"/>
      <point x="274" y="480"/>
      <point x="163" y="242"/>
      <point x="58" y="0" type="curve"/>
      <point x="159" y="0"/>
      <point x="58" y="0"/>
    </contour>
    <contour>
      <point x="271" y="933" type="curve"/>
      <point x="271" y="847"/>
      <point x="332" y="799"/>
      <point x="421" y="799" type="curve"/>
      <point x="512" y="799"/>
      <point x="575" y="846"/>
      <point x="575" y="933" type="curve"/>
      <point x="575" y="1020"/>
      <point x="511" y="1067"/>
      <point x="419" y="1067" type="curve"/>
      <point x="330" y="1067"/>
      <point x="271" y="1019"/>
      <point x="271" y="933" type="curve"/>
      <point x="350" y="933"/>
      <point x="269" y="933"/>
      <point x="348" y="933" type="curve"/>
      <point x="348" y="977"/>
      <point x="373" y="1004"/>
      <point x="419" y="1004" type="curve"/>
      <point x="467" y="1004"/>
      <point x="496" y="980"/>
      <point x="496" y="933" type="curve"/>
      <point x="496" y="887"/>
      <point x="468" y="861"/>
      <point x="421" y="861" type="curve"/>
      <point x="375" y="861"/>
      <point x="348" y="887"/>
      <point x="348" y="933" type="curve"/>
      <point x="269" y="933"/>
      <point x="350" y="933"/>
    </contour>
  </outline>
</glyph>
<glyph name="Igrave" format="1">
  <advance width="384"/>
  <unicode hex="00CC"/>
  <outline>
    <contour>
      <point x="196" y="722" type="curve"/>
      <point x="142" y="722"/>
      <point x="101" y="722"/>
      <point x="48" y="722" type="curve"/>
      <point x="48" y="651"/>
      <point x="48" y="722"/>
      <point x="48" y="651" type="curve"/>
      <point x="208" y="651"/>
      <point x="35" y="651"/>
      <point x="196" y="651" type="curve"/>
      <point x="196" y="722"/>
      <point x="196" y="651"/>
    </contour>
    <contour>
      <point x="196" y="651" type="curve"/>
      <point x="356" y="651"/>
      <point x="183" y="651"/>
      <point x="343" y="651" type="curve"/>
      <point x="343" y="722"/>
      <point x="343" y="651"/>
      <point x="343" y="722" type="curve"/>
      <point x="289" y="722"/>
      <point x="248" y="722"/>
      <point x="196" y="722" type="curve"/>
      <point x="196" y="651"/>
      <point x="196" y="722"/>
    </contour>
    <contour>
      <point x="196" y="0" type="curve"/>
      <point x="248" y="0"/>
      <point x="289" y="0"/>
      <point x="343" y="0" type="curve"/>
      <point x="343" y="71"/>
      <point x="343" y="0"/>
      <point x="343" y="71" type="curve"/>
      <point x="183" y="71"/>
      <point x="356" y="71"/>
      <point x="196" y="71" type="curve"/>
      <point x="196" y="0"/>
      <point x="196" y="71"/>
    </contour>
    <contour>
      <point x="196" y="71" type="curve"/>
      <point x="35" y="71"/>
      <point x="208" y="71"/>
      <point x="48" y="71" type="curve"/>
      <point x="48" y="0"/>
      <point x="48" y="71"/>
      <point x="48" y="0" type="curve"/>
      <point x="101" y="0"/>
      <point x="142" y="0"/>
      <point x="196" y="0" type="curve"/>
      <point x="196" y="71"/>
      <point x="196" y="0"/>
    </contour>
    <contour>
      <point x="241" y="0" type="curve"/>
      <point x="241" y="241"/>
      <point x="241" y="481"/>
      <point x="241" y="722" type="curve"/>
      <point x="148" y="722"/>
      <point x="241" y="722"/>
      <point x="148" y="722" type="curve"/>
      <point x="148" y="481"/>
      <point x="148" y="241"/>
      <point x="148" y="0" type="curve"/>
      <point x="241" y="0"/>
      <point x="148" y="0"/>
    </contour>
    <contour>
      <point x="246" y="801" type="line"/>
      <point x="122" y="967" type="line"/>
      <point x="3" y="967" type="line"/>
      <point x="154" y="801" type="line"/>
    </contour>
  </outline>
</glyph>
<glyph name="Icircumflex" format="1">
  <advance width="386"/>
  <unicode hex="00CE"/>
  <outline>
    <contour>
      <point x="191" y="722" type="curve"/>
      <point x="137" y="722"/>
      <point x="97" y="722"/>
      <point x="43" y="722" type="curve"/>
      <point x="43" y="651"/>
      <point x="43" y="722"/>
      <point x="43" y="651" type="curve"/>
      <point x="203" y="651"/>
      <point x="31" y="651"/>
      <point x="191" y="651" type="curve"/>
      <point x="191" y="722"/>
      <point x="191" y="651"/>
    </contour>
    <contour>
      <point x="191" y="651" type="curve"/>
      <point x="351" y="651"/>
      <point x="177" y="651"/>
      <point x="338" y="651" type="curve"/>
      <point x="338" y="722"/>
      <point x="338" y="651"/>
      <point x="338" y="722" type="curve"/>
      <point x="284" y="722"/>
      <point x="243" y="722"/>
      <point x="191" y="722" type="curve"/>
      <point x="191" y="651"/>
      <point x="191" y="722"/>
    </contour>
    <contour>
      <point x="191" y="0" type="curve"/>
      <point x="243" y="0"/>
      <point x="284" y="0"/>
      <point x="338" y="0" type="curve"/>
      <point x="338" y="71"/>
      <point x="338" y="0"/>
      <point x="338" y="71" type="curve"/>
      <point x="177" y="71"/>
      <point x="351" y="71"/>
      <point x="191" y="71" type="curve"/>
      <point x="191" y="0"/>
      <point x="191" y="71"/>
    </contour>
    <contour>
      <point x="191" y="71" type="curve"/>
      <point x="31" y="71"/>
      <point x="203" y="71"/>
      <point x="43" y="71" type="curve"/>
      <point x="43" y="0"/>
      <point x="43" y="71"/>
      <point x="43" y="0" type="curve"/>
      <point x="97" y="0"/>
      <point x="137" y="0"/>
      <point x="191" y="0" type="curve"/>
      <point x="191" y="71"/>
      <point x="191" y="0"/>
    </contour>
    <contour>
      <point x="236" y="0" type="curve"/>
      <point x="236" y="241"/>
      <point x="236" y="481"/>
      <point x="236" y="722" type="curve"/>
      <point x="143" y="722"/>
      <point x="236" y="722"/>
      <point x="143" y="722" type="curve"/>
      <point x="143" y="481"/>
      <point x="143" y="241"/>
      <point x="143" y="0" type="curve"/>
      <point x="236" y="0"/>
      <point x="143" y="0"/>
    </contour>
    <contour>
      <point x="83" y="802" type="line"/>
      <point x="234" y="968" type="line"/>
      <point x="114" y="968" type="line"/>
      <point x="-9" y="802" type="line"/>
    </contour>
    <contour>
      <point x="389" y="802" type="line"/>
      <point x="266" y="968" type="line"/>
      <point x="146" y="968" type="line"/>
      <point x="298" y="802" type="line"/>
    </contour>
  </outline>
</glyph>
<glyph name="Idieresis" format="1">
  <advance width="382"/>
  <unicode hex="00CF"/>
  <outline>
    <contour>
      <point x="192" y="722" type="curve"/>
      <point x="138" y="722"/>
      <point x="98" y="722"/>
      <point x="45" y="722" type="curve"/>
      <point x="45" y="651"/>
      <point x="45" y="722"/>
      <point x="45" y="651" type="curve"/>
      <point x="205" y="651"/>
      <point x="33" y="651"/>
      <point x="192" y="651" type="curve"/>
      <point x="192" y="722"/>
      <point x="192" y="651"/>
    </contour>
    <contour>
      <point x="192" y="651" type="curve"/>
      <point x="352" y="651"/>
      <point x="179" y="651"/>
      <point x="340" y="651" type="curve"/>
      <point x="340" y="722"/>
      <point x="340" y="651"/>
      <point x="340" y="722" type="curve"/>
      <point x="286" y="722"/>
      <point x="245" y="722"/>
      <point x="192" y="722" type="curve"/>
      <point x="192" y="651"/>
      <point x="192" y="722"/>
    </contour>
    <contour>
      <point x="192" y="0" type="curve"/>
      <point x="245" y="0"/>
      <point x="286" y="0"/>
      <point x="340" y="0" type="curve"/>
      <point x="340" y="71"/>
      <point x="340" y="0"/>
      <point x="340" y="71" type="curve"/>
      <point x="179" y="71"/>
      <point x="352" y="71"/>
      <point x="192" y="71" type="curve"/>
      <point x="192" y="0"/>
      <point x="192" y="71"/>
    </contour>
    <contour>
      <point x="192" y="71" type="curve"/>
      <point x="33" y="71"/>
      <point x="205" y="71"/>
      <point x="45" y="71" type="curve"/>
      <point x="45" y="0"/>
      <point x="45" y="71"/>
      <point x="45" y="0" type="curve"/>
      <point x="98" y="0"/>
      <point x="138" y="0"/>
      <point x="192" y="0" type="curve"/>
      <point x="192" y="71"/>
      <point x="192" y="0"/>
    </contour>
    <contour>
      <point x="237" y="0" type="curve"/>
      <point x="237" y="241"/>
      <point x="237" y="481"/>
      <point x="237" y="722" type="curve"/>
      <point x="144" y="722"/>
      <point x="237" y="722"/>
      <point x="144" y="722" type="curve"/>
      <point x="144" y="481"/>
      <point x="144" y="241"/>
      <point x="144" y="0" type="curve"/>
      <point x="237" y="0"/>
      <point x="144" y="0"/>
    </contour>
    <contour>
      <point x="157" y="845" type="curve"/>
      <point x="157" y="877"/>
      <point x="134" y="893"/>
      <point x="103" y="893" type="curve"/>
      <point x="71" y="893"/>
      <point x="49" y="875"/>
      <point x="49" y="845" type="curve"/>
      <point x="151" y="845"/>
      <point x="55" y="845"/>
      <point x="157" y="845" type="curve"/>
      <point x="157" y="813"/>
      <point x="135" y="798"/>
      <point x="102" y="798" type="curve"/>
      <point x="70" y="798"/>
      <point x="49" y="814"/>
      <point x="49" y="845" type="curve"/>
      <point x="151" y="845"/>
      <point x="55" y="845"/>
    </contour>
    <contour>
      <point x="334" y="845" type="curve"/>
      <point x="334" y="877"/>
      <point x="311" y="893"/>
      <point x="279" y="893" type="curve"/>
      <point x="247" y="893"/>
      <point x="226" y="875"/>
      <point x="226" y="845" type="curve"/>
      <point x="328" y="845"/>
      <point x="233" y="845"/>
      <point x="334" y="845" type="curve"/>
      <point x="334" y="813"/>
      <point x="311" y="798"/>
      <point x="279" y="798" type="curve"/>
      <point x="247" y="798"/>
      <point x="226" y="814"/>
      <point x="226" y="845" type="curve"/>
      <point x="328" y="845"/>
      <point x="233" y="845"/>
    </contour>
  </outline>
</glyph>
<glyph name="Ntilde" format="1">
  <advance width="927"/>
  <unicode hex="00D1"/>
  <outline>
    <contour>
      <point x="190" y="722" type="curve"/>
      <point x="137" y="722"/>
      <point x="96" y="722"/>
      <point x="44" y="722" type="curve"/>
      <point x="44" y="651"/>
      <point x="44" y="722"/>
      <point x="44" y="651" type="curve"/>
      <point x="203" y="651"/>
      <point x="30" y="651"/>
      <point x="190" y="651" type="curve"/>
      <point x="190" y="722"/>
      <point x="190" y="651"/>
    </contour>
    <contour>
      <point x="750" y="651" type="curve"/>
      <point x="909" y="651"/>
      <point x="737" y="651"/>
      <point x="896" y="651" type="curve"/>
      <point x="896" y="722"/>
      <point x="896" y="651"/>
      <point x="896" y="722" type="curve"/>
      <point x="843" y="722"/>
      <point x="802" y="722"/>
      <point x="750" y="722" type="curve"/>
      <point x="750" y="651"/>
      <point x="750" y="722"/>
    </contour>
    <contour>
      <point x="755" y="722" type="curve"/>
      <point x="703" y="722"/>
      <point x="663" y="722"/>
      <point x="611" y="722" type="curve"/>
      <point x="611" y="651"/>
      <point x="611" y="722"/>
      <point x="611" y="651" type="curve"/>
      <point x="768" y="651"/>
      <point x="598" y="651"/>
      <point x="755" y="651" type="curve"/>
      <point x="755" y="722"/>
      <point x="755" y="651"/>
    </contour>
    <contour>
      <point x="189" y="71" type="curve"/>
      <point x="29" y="71"/>
      <point x="202" y="71"/>
      <point x="43" y="71" type="curve"/>
      <point x="42" y="0"/>
      <point x="43" y="71"/>
      <point x="42" y="0" type="curve"/>
      <point x="95" y="0"/>
      <point x="135" y="0"/>
      <point x="189" y="0" type="curve"/>
      <point x="189" y="71"/>
      <point x="189" y="0"/>
    </contour>
    <contour>
      <point x="189" y="0" type="curve"/>
      <point x="240" y="0"/>
      <point x="176" y="0"/>
      <point x="333" y="0" type="curve"/>
      <point x="333" y="71"/>
      <point x="333" y="0"/>
      <point x="333" y="71" type="curve"/>
      <point x="176" y="71"/>
      <point x="346" y="71"/>
      <point x="189" y="71" type="curve"/>
      <point x="189" y="0"/>
      <point x="189" y="71"/>
    </contour>
    <contour>
      <point x="799" y="0" type="curve"/>
      <point x="613" y="240"/>
      <point x="429" y="482"/>
      <point x="244" y="722" type="curve"/>
      <point x="137" y="722"/>
      <point x="243" y="722"/>
      <point x="137" y="722" type="curve"/>
      <point x="322" y="482"/>
      <point x="506" y="240"/>
      <point x="692" y="0" type="curve"/>
      <point x="798" y="0"/>
      <point x="693" y="0"/>
    </contour>
    <contour>
      <point x="708" y="722" type="curve"/>
      <point x="708" y="481"/>
      <point x="708" y="241"/>
      <point x="708" y="0" type="curve"/>
      <point x="800" y="0"/>
      <point x="708" y="0"/>
      <point x="800" y="0" type="curve"/>
      <point x="800" y="241"/>
      <point x="800" y="481"/>
      <point x="800" y="722" type="curve"/>
      <point x="708" y="722"/>
      <point x="800" y="722"/>
    </contour>
    <contour>
      <point x="234" y="0" type="curve"/>
      <point x="234" y="241"/>
      <point x="234" y="481"/>
      <point x="234" y="722" type="curve"/>
      <point x="142" y="722"/>
      <point x="234" y="722"/>
      <point x="142" y="722" type="curve"/>
      <point x="142" y="481"/>
      <point x="142" y="241"/>
      <point x="142" y="0" type="curve"/>
      <point x="234" y="0"/>
      <point x="142" y="0"/>
    </contour>
    <contour>
      <point x="624" y="957" type="curve"/>
      <point x="610" y="914"/>
      <point x="593" y="879"/>
      <point x="559" y="879" type="curve"/>
      <point x="524" y="879"/>
      <point x="504" y="892"/>
      <point x="478" y="915" type="curve"/>
      <point x="445" y="946"/>
      <point x="420" y="962"/>
      <point x="376" y="962" type="curve"/>
      <point x="302" y="962"/>
      <point x="265" y="908"/>
      <point x="242" y="833" type="curve"/>
      <point x="311" y="800"/>
      <point x="242" y="833"/>
      <point x="311" y="800" type="curve"/>
      <point x="328" y="850"/>
      <point x="347" y="880"/>
      <point x="385" y="880" type="curve"/>
      <point x="417" y="880"/>
      <point x="434" y="865"/>
      <point x="457" y="844" type="curve"/>
      <point x="493" y="812"/>
      <point x="520" y="796"/>
      <point x="567" y="796" type="curve"/>
      <point x="642" y="796"/>
      <point x="673" y="852"/>
      <point x="697" y="925" type="curve"/>
      <point x="624" y="957"/>
      <point x="697" y="925"/>
    </contour>
  </outline>
</glyph>
<glyph name="Ograve" format="1">
  <advance width="811"/>
  <unicode hex="00D2"/>
  <outline>
    <contour>
      <point x="153" y="360" type="curve"/>
      <point x="153" y="532"/>
      <point x="235" y="653"/>
      <point x="402" y="653" type="curve"/>
      <point x="570" y="653"/>
      <point x="658" y="535"/>
      <point x="658" y="363" type="curve"/>
      <point x="658" y="191"/>
      <point x="575" y="70"/>
      <point x="408" y="70" type="curve"/>
      <point x="238" y="70"/>
      <point x="153" y="187"/>
      <point x="153" y="360" type="curve"/>
      <point x="60" y="360"/>
      <point x="153" y="360"/>
      <point x="60" y="360" type="curve"/>
      <point x="60" y="139"/>
      <point x="186" y="-5"/>
      <point x="404" y="-5" type="curve"/>
      <point x="624" y="-5"/>
      <point x="750" y="140"/>
      <point x="750" y="363" type="curve"/>
      <point x="750" y="583"/>
      <point x="626" y="727"/>
      <point x="408" y="727" type="curve"/>
      <point x="187" y="727"/>
      <point x="60" y="582"/>
      <point x="60" y="360" type="curve"/>
      <point x="153" y="360"/>
      <point x="60" y="360"/>
    </contour>
    <contour>
      <point x="458" y="801" type="line"/>
      <point x="334" y="967" type="line"/>
      <point x="215" y="967" type="line"/>
      <point x="366" y="801" type="line"/>
    </contour>
  </outline>
</glyph>
<glyph name="Otilde" format="1">
  <advance width="811"/>
  <unicode hex="00D5"/>
  <outline>
    <contour>
      <point x="153" y="360" type="curve"/>
      <point x="153" y="532"/>
      <point x="235" y="653"/>
      <point x="402" y="653" type="curve"/>
      <point x="570" y="653"/>
      <point x="658" y="535"/>
      <point x="658" y="363" type="curve"/>
      <point x="658" y="191"/>
      <point x="575" y="70"/>
      <point x="408" y="70" type="curve"/>
      <point x="238" y="70"/>
      <point x="153" y="187"/>
      <point x="153" y="360" type="curve"/>
      <point x="60" y="360"/>
      <point x="153" y="360"/>
      <point x="60" y="360" type="curve"/>
      <point x="60" y="139"/>
      <point x="186" y="-5"/>
      <point x="404" y="-5" type="curve"/>
      <point x="624" y="-5"/>
      <point x="750" y="140"/>
      <point x="750" y="363" type="curve"/>
      <point x="750" y="583"/>
      <point x="626" y="727"/>
      <point x="408" y="727" type="curve"/>
      <point x="187" y="727"/>
      <point x="60" y="582"/>
      <point x="60" y="360" type="curve"/>
      <point x="153" y="360"/>
      <point x="60" y="360"/>
    </contour>
    <contour>
      <point x="562" y="957" type="curve"/>
      <point x="548" y="914"/>
      <point x="532" y="879"/>
      <point x="498" y="879" type="curve"/>
      <point x="462" y="879"/>
      <point x="442" y="892"/>
      <point x="416" y="915" type="curve"/>
      <point x="383" y="946"/>
      <point x="358" y="962"/>
      <point x="314" y="962" type="curve"/>
      <point x="240" y="962"/>
      <point x="203" y="908"/>
      <point x="180" y="833" type="curve"/>
      <point x="250" y="800"/>
      <point x="181" y="833"/>
      <point x="250" y="800" type="curve"/>
      <point x="266" y="850"/>
      <point x="285" y="880"/>
      <point x="323" y="880" type="curve"/>
      <point x="355" y="880"/>
      <point x="372" y="865"/>
      <point x="395" y="844" type="curve"/>
      <point x="432" y="812"/>
      <point x="458" y="796"/>
      <point x="506" y="796" type="curve"/>
      <point x="580" y="796"/>
      <point x="611" y="852"/>
      <point x="635" y="925" type="curve"/>
      <point x="562" y="957"/>
      <point x="635" y="925"/>
    </contour>
  </outline>
</glyph>
<glyph name="Odieresis" format="1">
  <advance width="811"/>
  <unicode hex="00D6"/>
  <outline>
    <contour>
      <point x="153" y="360" type="curve"/>
      <point x="153" y="532"/>
      <point x="235" y="653"/>
      <point x="402" y="653" type="curve"/>
      <point x="570" y="653"/>
      <point x="658" y="535"/>
      <point x="658" y="363" type="curve"/>
      <point x="658" y="191"/>
      <point x="575" y="70"/>
      <point x="408" y="70" type="curve"/>
      <point x="238" y="70"/>
      <point x="153" y="187"/>
      <point x="153" y="360" type="curve"/>
      <point x="60" y="360"/>
      <point x="153" y="360"/>
      <point x="60" y="360" type="curve"/>
      <point x="60" y="139"/>
      <point x="186" y="-5"/>
      <point x="404" y="-5" type="curve"/>
      <point x="624" y="-5"/>
      <point x="750" y="140"/>
      <point x="750" y="363" type="curve"/>
      <point x="750" y="583"/>
      <point x="626" y="727"/>
      <point x="408" y="727" type="curve"/>
      <point x="187" y="727"/>
      <point x="60" y="582"/>
      <point x="60" y="360" type="curve"/>
      <point x="153" y="360"/>
      <point x="60" y="360"/>
    </contour>
    <contour>
      <point x="372" y="845" type="curve"/>
      <point x="372" y="877"/>
      <point x="349" y="893"/>
      <point x="317" y="893" type="curve"/>
      <point x="286" y="893"/>
      <point x="264" y="875"/>
      <point x="264" y="845" type="curve"/>
      <point x="366" y="845"/>
      <point x="270" y="845"/>
      <point x="372" y="845" type="curve"/>
      <point x="372" y="813"/>
      <point x="349" y="798"/>
      <point x="317" y="798" type="curve"/>
      <point x="285" y="798"/>
      <point x="264" y="814"/>
      <point x="264" y="845" type="curve"/>
      <point x="366" y="845"/>
      <point x="270" y="845"/>
    </contour>
    <contour>
      <point x="549" y="845" type="curve"/>
      <point x="549" y="877"/>
      <point x="525" y="893"/>
      <point x="494" y="893" type="curve"/>
      <point x="462" y="893"/>
      <point x="441" y="875"/>
      <point x="441" y="845" type="curve"/>
      <point x="543" y="845"/>
      <point x="447" y="845"/>
      <point x="549" y="845" type="curve"/>
      <point x="549" y="813"/>
      <point x="526" y="798"/>
      <point x="494" y="798" type="curve"/>
      <point x="462" y="798"/>
      <point x="441" y="814"/>
      <point x="441" y="845" type="curve"/>
      <point x="543" y="845"/>
      <point x="447" y="845"/>
    </contour>
  </outline>
</glyph>
<glyph name="multiply" format="1">
  <advance width="597"/>
  <unicode hex="00D7"/>
  <outline>
    <contour>
      <point x="120" y="76" type="line"/>
      <point x="529" y="490" type="line"/>
      <point x="475" y="544" type="line"/>
      <point x="66" y="130" type="line"/>
    </contour>
    <contour>
      <point x="530" y="128" type="line"/>
      <point x="121" y="544" type="line"/>
      <point x="67" y="490" type="line"/>
      <point x="477" y="75" type="line"/>
    </contour>
  </outline>
</glyph>
<glyph name="Oslash" format="1">
  <advance width="811"/>
  <unicode hex="00D8"/>
  <outline>
    <contour>
      <point x="205" y="-69" type="line"/>
      <point x="667" y="749" type="line"/>
      <point x="605" y="780" type="line"/>
      <point x="147" y="-33" type="line"/>
    </contour>
    <contour>
      <point x="153" y="360" type="curve"/>
      <point x="153" y="532"/>
      <point x="235" y="653"/>
      <point x="402" y="653" type="curve"/>
      <point x="570" y="653"/>
      <point x="658" y="535"/>
      <point x="658" y="363" type="curve"/>
      <point x="658" y="191"/>
      <point x="575" y="70"/>
      <point x="408" y="70" type="curve"/>
      <point x="238" y="70"/>
      <point x="153" y="187"/>
      <point x="153" y="360" type="curve"/>
      <point x="60" y="360"/>
      <point x="153" y="360"/>
      <point x="60" y="360" type="curve"/>
      <point x="60" y="139"/>
      <point x="186" y="-5"/>
      <point x="404" y="-5" type="curve"/>
      <point x="624" y="-5"/>
      <point x="750" y="140"/>
      <point x="750" y="363" type="curve"/>
      <point x="750" y="583"/>
      <point x="626" y="727"/>
      <point x="408" y="727" type="curve"/>
      <point x="187" y="727"/>
      <point x="60" y="582"/>
      <point x="60" y="360" type="curve"/>
      <point x="153" y="360"/>
      <point x="60" y="360"/>
    </contour>
  </outline>
</glyph>
<glyph name="Ucircumflex" format="1">
  <advance width="887"/>
  <unicode hex="00DB"/>
  <outline>
    <contour>
      <point x="705" y="651" type="curve"/>
      <point x="853" y="651"/>
      <point x="703" y="651"/>
      <point x="851" y="651" type="curve"/>
      <point x="851" y="722"/>
      <point x="851" y="651"/>
      <point x="851" y="722" type="curve"/>
      <point x="803" y="722"/>
      <point x="754" y="722"/>
      <point x="705" y="722" type="curve"/>
      <point x="705" y="651"/>
      <point x="705" y="722"/>
    </contour>
    <contour>
      <point x="705" y="722" type="curve"/>
      <point x="655" y="722"/>
      <point x="608" y="722"/>
      <point x="559" y="722" type="curve"/>
      <point x="559" y="651"/>
      <point x="559" y="722"/>
      <point x="559" y="651" type="curve"/>
      <point x="707" y="651"/>
      <point x="557" y="651"/>
      <point x="705" y="651" type="curve"/>
      <point x="705" y="722"/>
      <point x="705" y="651"/>
    </contour>
    <contour>
      <point x="183" y="722" type="curve"/>
      <point x="134" y="722"/>
      <point x="86" y="722"/>
      <point x="38" y="722" type="curve"/>
      <point x="37" y="651"/>
      <point x="38" y="722"/>
      <point x="37" y="651" type="curve"/>
      <point x="185" y="651"/>
      <point x="35" y="651"/>
      <point x="183" y="651" type="curve"/>
      <point x="183" y="722"/>
      <point x="183" y="651"/>
    </contour>
    <contour>
      <point x="183" y="651" type="curve"/>
      <point x="331" y="651"/>
      <point x="181" y="651"/>
      <point x="330" y="651" type="curve"/>
      <point x="330" y="722"/>
      <point x="330" y="651"/>
      <point x="330" y="722" type="curve"/>
      <point x="281" y="722"/>
      <point x="233" y="722"/>
      <point x="183" y="722" type="curve"/>
      <point x="183" y="651"/>
      <point x="183" y="722"/>
    </contour>
    <contour>
      <point x="139" y="695" type="curve"/>
      <point x="139" y="547"/>
      <point x="139" y="424"/>
      <point x="139" y="275" type="curve"/>
      <point x="139" y="82"/>
      <point x="244" y="-5"/>
      <point x="442" y="-5" type="curve"/>
      <point x="641" y="-5"/>
      <point x="747" y="84"/>
      <point x="747" y="278" type="curve"/>
      <point x="747" y="426"/>
      <point x="747" y="548"/>
      <point x="747" y="695" type="curve"/>
      <point x="667" y="695"/>
      <point x="743" y="695"/>
      <point x="663" y="695" type="curve"/>
      <point x="663" y="543"/>
      <point x="663" y="421"/>
      <point x="663" y="269" type="curve"/>
      <point x="663" y="137"/>
      <point x="587" y="73"/>
      <point x="449" y="73" type="curve"/>
      <point x="299" y="73"/>
      <point x="223" y="141"/>
      <point x="223" y="288" type="curve"/>
      <point x="223" y="433"/>
      <point x="223" y="552"/>
      <point x="223" y="695" type="curve"/>
      <point x="142" y="695"/>
      <point x="220" y="695"/>
    </contour>
    <contour>
      <point x="339" y="802" type="line"/>
      <point x="490" y="968" type="line"/>
      <point x="371" y="968" type="line"/>
      <point x="248" y="802" type="line"/>
    </contour>
    <contour>
      <point x="647" y="802" type="line"/>
      <point x="522" y="968" type="line"/>
      <point x="403" y="968" type="line"/>
      <point x="554" y="802" type="line"/>
    </contour>
  </outline>
</glyph>
<glyph name="Yacute" format="1">
  <advance width="716"/>
  <unicode hex="00DD"/>
  <outline>
    <contour>
      <point x="347" y="71" type="curve"/>
      <point x="198" y="71"/>
      <point x="349" y="71"/>
      <point x="200" y="71" type="curve"/>
      <point x="200" y="0"/>
      <point x="200" y="71"/>
      <point x="200" y="0" type="curve"/>
      <point x="250" y="0"/>
      <point x="297" y="0"/>
      <point x="347" y="0" type="curve"/>
      <point x="347" y="71"/>
      <point x="347" y="0"/>
    </contour>
    <contour>
      <point x="347" y="0" type="curve"/>
      <point x="397" y="0"/>
      <point x="445" y="0"/>
      <point x="495" y="0" type="curve"/>
      <point x="495" y="71"/>
      <point x="495" y="0"/>
      <point x="495" y="71" type="curve"/>
      <point x="345" y="71"/>
      <point x="497" y="71"/>
      <point x="347" y="71" type="curve"/>
      <point x="347" y="0"/>
      <point x="347" y="71"/>
    </contour>
    <contour>
      <point x="565" y="722" type="curve"/>
      <point x="517" y="722"/>
      <point x="470" y="722"/>
      <point x="421" y="722" type="curve"/>
      <point x="421" y="651"/>
      <point x="421" y="722"/>
      <point x="421" y="651" type="curve"/>
      <point x="568" y="651"/>
      <point x="419" y="651"/>
      <point x="565" y="651" type="curve"/>
      <point x="565" y="722"/>
      <point x="565" y="651"/>
    </contour>
    <contour>
      <point x="137" y="722" type="curve"/>
      <point x="92" y="722"/>
      <point x="49" y="722"/>
      <point x="5" y="722" type="curve"/>
      <point x="4" y="651"/>
      <point x="5" y="722"/>
      <point x="4" y="651" type="curve"/>
      <point x="139" y="651"/>
      <point x="2" y="651"/>
      <point x="137" y="651" type="curve"/>
      <point x="137" y="722"/>
      <point x="137" y="651"/>
    </contour>
    <contour>
      <point x="142" y="651" type="curve"/>
      <point x="289" y="651"/>
      <point x="140" y="651"/>
      <point x="286" y="651" type="curve"/>
      <point x="286" y="722"/>
      <point x="286" y="651"/>
      <point x="286" y="722" type="curve"/>
      <point x="237" y="722"/>
      <point x="191" y="722"/>
      <point x="142" y="722" type="curve"/>
      <point x="142" y="651"/>
      <point x="142" y="722"/>
    </contour>
    <contour>
      <point x="571" y="651" type="curve"/>
      <point x="707" y="651"/>
      <point x="569" y="651"/>
      <point x="705" y="651" type="curve"/>
      <point x="705" y="722"/>
      <point x="705" y="651"/>
      <point x="705" y="722" type="curve"/>
      <point x="660" y="722"/>
      <point x="616" y="722"/>
      <point x="571" y="722" type="curve"/>
      <point x="571" y="651"/>
      <point x="571" y="722"/>
    </contour>
    <contour>
      <point x="65" y="710" type="curve"/>
      <point x="143" y="586"/>
      <point x="221" y="462"/>
      <point x="299" y="337" type="curve"/>
      <point x="393" y="337"/>
      <point x="293" y="338"/>
      <point x="387" y="338" type="curve"/>
      <point x="308" y="467"/>
      <point x="230" y="594"/>
      <point x="151" y="722" type="curve"/>
      <point x="65" y="722"/>
      <point x="151" y="710"/>
    </contour>
    <contour>
      <point x="559" y="722" type="curve"/>
      <point x="473" y="593"/>
      <point x="390" y="467"/>
      <point x="305" y="338" type="curve"/>
      <point x="399" y="338"/>
      <point x="302" y="337"/>
      <point x="396" y="337" type="curve"/>
      <point x="479" y="462"/>
      <point x="561" y="587"/>
      <point x="644" y="711" type="curve"/>
      <point x="559" y="711"/>
      <point x="644" y="722"/>
    </contour>
    <contour>
      <point x="398" y="0" type="curve"/>
      <point x="398" y="115"/>
      <point x="398" y="229"/>
      <point x="398" y="344" type="curve"/>
      <point x="297" y="344"/>
      <point x="398" y="344"/>
      <point x="297" y="344" type="curve"/>
      <point x="297" y="229"/>
      <point x="297" y="115"/>
      <point x="297" y="0" type="curve"/>
      <point x="398" y="0"/>
      <point x="297" y="0"/>
    </contour>
    <contour>
      <point x="391" y="801" type="line"/>
      <point x="542" y="967" type="line"/>
      <point x="423" y="967" type="line"/>
      <point x="300" y="801" type="line"/>
    </contour>
  </outline>
</glyph>
<glyph name="Thorn" format="1">
  <advance width="659"/>
  <unicode hex="00DE"/>
  <outline>
    <contour>
      <point x="198" y="722" type="curve"/>
      <point x="152" y="722"/>
      <point x="105" y="722"/>
      <point x="57" y="722" type="curve"/>
      <point x="57" y="651"/>
      <point x="57" y="722"/>
      <point x="57" y="651" type="curve"/>
      <point x="198" y="651"/>
      <point x="57" y="651"/>
      <point x="198" y="651" type="curve"/>
      <point x="198" y="722"/>
      <point x="198" y="651"/>
    </contour>
    <contour>
      <point x="198" y="71" type="curve"/>
      <point x="57" y="71"/>
      <point x="198" y="71"/>
      <point x="57" y="71" type="curve"/>
      <point x="57" y="0"/>
      <point x="57" y="71"/>
      <point x="57" y="0" type="curve"/>
      <point x="105" y="0"/>
      <point x="152" y="0"/>
      <point x="198" y="0" type="curve"/>
      <point x="198" y="71"/>
      <point x="198" y="0"/>
    </contour>
    <contour>
      <point x="198" y="0" type="curve"/>
      <point x="245" y="0"/>
      <point x="198" y="0"/>
      <point x="338" y="0" type="curve"/>
      <point x="338" y="71"/>
      <point x="338" y="0"/>
      <point x="338" y="71" type="curve"/>
      <point x="198" y="71"/>
      <point x="338" y="71"/>
      <point x="198" y="71" type="curve"/>
      <point x="198" y="0"/>
      <point x="198" y="71"/>
    </contour>
    <contour>
      <point x="186" y="213" type="curve"/>
      <point x="245" y="186"/>
      <point x="302" y="168"/>
      <point x="371" y="168" type="curve"/>
      <point x="514" y="170"/>
      <point x="617" y="241"/>
      <point x="617" y="382" type="curve"/>
      <point x="617" y="524"/>
      <point x="500" y="598"/>
      <point x="340" y="598" type="curve"/>
      <point x="294" y="598"/>
      <point x="248" y="598"/>
      <point x="201" y="598" type="curve"/>
      <point x="201" y="528"/>
      <point x="201" y="598"/>
      <point x="201" y="528" type="curve"/>
      <point x="244" y="528"/>
      <point x="285" y="528"/>
      <point x="328" y="528" type="curve"/>
      <point x="442" y="528"/>
      <point x="525" y="477"/>
      <point x="525" y="378" type="curve"/>
      <point x="525" y="289"/>
      <point x="460" y="238"/>
      <point x="365" y="238" type="curve"/>
      <point x="307" y="238"/>
      <point x="267" y="251"/>
      <point x="215" y="275" type="curve"/>
      <point x="186" y="214"/>
      <point x="215" y="275"/>
    </contour>
    <contour>
      <point x="244" y="0" type="curve"/>
      <point x="244" y="241"/>
      <point x="244" y="481"/>
      <point x="244" y="722" type="curve"/>
      <point x="151" y="722"/>
      <point x="244" y="722"/>
      <point x="151" y="722" type="curve"/>
      <point x="151" y="481"/>
      <point x="151" y="241"/>
      <point x="151" y="0" type="curve"/>
      <point x="244" y="0"/>
      <point x="151" y="0"/>
    </contour>
    <contour>
      <point x="198" y="651" type="curve"/>
      <point x="245" y="651"/>
      <point x="198" y="651"/>
      <point x="338" y="651" type="curve"/>
      <point x="338" y="722"/>
      <point x="338" y="651"/>
      <point x="338" y="722" type="curve"/>
      <point x="198" y="722"/>
      <point x="338" y="722"/>
      <point x="198" y="722" type="curve"/>
      <point x="198" y="651"/>
      <point x="198" y="722"/>
    </contour>
  </outline>
</glyph>
<glyph name="germandbls" format="1">
  <advance width="656"/>
  <unicode hex="00DF"/>
  <outline>
    <contour>
      <point x="169" y="71" type="curve"/>
      <point x="24" y="71"/>
      <point x="171" y="71"/>
      <point x="26" y="71" type="curve"/>
      <point x="26" y="0"/>
      <point x="26" y="71"/>
      <point x="26" y="0" type="curve"/>
      <point x="74" y="0"/>
      <point x="121" y="0"/>
      <point x="169" y="0" type="curve"/>
      <point x="169" y="71"/>
      <point x="169" y="0"/>
    </contour>
    <contour>
      <point x="169" y="0" type="curve"/>
      <point x="217" y="0"/>
      <point x="258" y="0"/>
      <point x="307" y="0" type="curve"/>
      <point x="307" y="71"/>
      <point x="307" y="0"/>
      <point x="307" y="71" type="curve"/>
      <point x="163" y="71"/>
      <point x="313" y="71"/>
      <point x="169" y="71" type="curve"/>
      <point x="169" y="0"/>
      <point x="169" y="71"/>
    </contour>
    <contour>
      <point x="214" y="0" type="curve"/>
      <point x="214" y="201"/>
      <point x="214" y="400"/>
      <point x="214" y="601" type="curve"/>
      <point x="122" y="601"/>
      <point x="214" y="601"/>
      <point x="122" y="601" type="curve"/>
      <point x="122" y="400"/>
      <point x="122" y="201"/>
      <point x="122" y="0" type="curve"/>
      <point x="214" y="0"/>
      <point x="122" y="0"/>
    </contour>
    <contour>
      <point x="214" y="601" type="curve"/>
      <point x="214" y="681"/>
      <point x="263" y="728"/>
      <point x="343" y="728" type="curve"/>
      <point x="428" y="728"/>
      <point x="489" y="691"/>
      <point x="489" y="607" type="curve"/>
      <point x="489" y="523"/>
      <point x="421" y="485"/>
      <point x="329" y="485" type="curve"/>
      <point x="329" y="425"/>
      <point x="329" y="485"/>
      <point x="329" y="425" type="curve"/>
      <point x="471" y="425"/>
      <point x="578" y="480"/>
      <point x="578" y="611" type="curve"/>
      <point x="578" y="737"/>
      <point x="483" y="799"/>
      <point x="349" y="799" type="curve"/>
      <point x="214" y="799"/>
      <point x="122" y="730"/>
      <point x="122" y="601" type="curve"/>
      <point x="214" y="601"/>
      <point x="122" y="601"/>
    </contour>
    <contour>
      <point x="434" y="80" type="curve"/>
      <point x="542" y="103"/>
      <point x="612" y="164"/>
      <point x="612" y="281" type="curve"/>
      <point x="612" y="423"/>
      <point x="497" y="485"/>
      <point x="329" y="485" type="curve"/>
      <point x="329" y="425"/>
      <point x="329" y="485"/>
      <point x="329" y="425" type="curve"/>
      <point x="430" y="425"/>
      <point x="524" y="383"/>
      <point x="524" y="279" type="curve"/>
      <point x="524" y="204"/>
      <point x="474" y="168"/>
      <point x="411" y="151" type="curve"/>
      <point x="434" y="80"/>
      <point x="411" y="151"/>
    </contour>
  </outline>
</glyph>
